<?xml version="1.0" standalone="no"?>
<!DOCTYPE svg PUBLIC "-//W3C//DTD SVG 20010904//EN"
 "http://www.w3.org/TR/2001/REC-SVG-20010904/DTD/svg10.dtd">
<svg version="1.0" xmlns="http://www.w3.org/2000/svg"
 width="120.000000pt" height="120.000000pt" viewBox="0 0 120.000000 120.000000"
 preserveAspectRatio="xMidYMid meet">
<metadata>
Created by potrace 1.14, written by Peter Selinger 2001-2017
</metadata>
<g transform="translate(0.000000,120.000000) scale(0.100000,-0.100000)"
fill="#000000" stroke="none">
<path d="M520 936 c0 -23 -26 -26 -77 -11 -65 20 -76 18 -27 -4 47 -21 81 -64
100 -124 12 -41 13 -40 13 56 1 53 -1 97 -4 97 -3 0 -5 -6 -5 -14z"/>
<path d="M225 917 c-22 -12 -50 -38 -63 -57 -20 -29 -23 -44 -20 -92 6 -82 24
-98 106 -98 l65 0 -46 43 c-25 23 -49 54 -52 70 -16 62 15 122 75 146 l25 10
-25 0 c-14 0 -43 -9 -65 -22z"/>
<path d="M657 922 c15 -11 19 -33 23 -130 l5 -117 40 0 40 0 3 110 c2 91 6
113 22 130 19 20 19 20 -66 20 -71 0 -82 -2 -67 -13z"/>
<path d="M934 932 c4 -7 14 -12 23 -12 27 0 81 -40 104 -76 12 -19 23 -34 24
-32 2 2 -4 29 -12 61 -14 50 -19 57 -42 57 -14 0 -44 3 -65 7 -28 4 -37 3 -32
-5z"/>
<path d="M45 620 c-8 -14 3 -30 21 -30 8 0 14 -5 14 -11 0 -6 -9 -9 -20 -6
-11 3 -18 1 -14 -4 7 -13 31 -11 40 3 4 6 -1 17 -12 25 -16 12 -17 15 -4 23
13 8 13 10 -2 10 -9 0 -20 -4 -23 -10z"/>
<path d="M128 600 c2 -16 8 -30 12 -30 4 0 10 14 12 30 4 23 1 30 -12 30 -13
0 -16 -7 -12 -30z"/>
<path d="M194 616 c-11 -28 1 -51 26 -53 15 -1 18 0 8 3 -21 6 -23 20 -5 27
10 4 10 6 0 6 -19 1 -16 19 5 24 12 4 11 5 -6 6 -12 0 -25 -5 -28 -13z"/>
<path d="M277 623 c-8 -8 -9 -53 -1 -53 3 0 12 6 20 14 12 13 12 15 -4 19 -14
3 -13 6 8 15 23 10 23 11 4 11 -11 1 -24 -2 -27 -6z"/>
<path d="M356 602 c-21 -40 -20 -45 4 -30 17 11 22 10 30 -2 16 -25 12 10 -4
39 l-14 25 -16 -32z m24 -2 c0 -5 -5 -10 -11 -10 -5 0 -7 5 -4 10 3 6 8 10 11
10 2 0 4 -4 4 -10z"/>
<path d="M570 595 c0 -30 3 -35 23 -34 16 1 18 2 5 6 -10 2 -18 8 -18 13 0 5
8 11 18 13 16 4 16 5 0 6 -10 0 -18 5 -18 10 0 5 8 12 18 14 13 4 11 5 -5 6
-20 1 -23 -4 -23 -34z"/>
<path d="M650 595 c0 -36 10 -42 44 -29 32 12 11 64 -26 64 -14 0 -18 -8 -18
-35z m39 16 c17 -11 7 -41 -14 -41 -9 0 -15 9 -15 25 0 27 6 30 29 16z"/>
<path d="M959 614 c-9 -11 -10 -20 -2 -32 12 -20 45 -23 49 -4 1 7 0 8 -3 2
-6 -13 -30 -13 -38 0 -10 16 14 40 32 33 11 -4 14 -2 9 5 -10 17 -31 15 -47
-4z"/>
<path d="M1047 623 c-3 -5 -4 -19 -3 -33 1 -19 7 -25 26 -27 14 -1 18 0 8 3
-21 6 -23 20 -5 27 10 4 10 6 0 6 -19 1 -16 19 5 24 13 4 12 5 -5 6 -12 0 -24
-2 -26 -6z"/>
<path d="M1126 618 c-9 -27 -3 -49 12 -43 8 3 20 1 26 -4 9 -7 12 -4 11 12 0
29 -13 47 -31 47 -8 0 -16 -6 -18 -12z m36 -13 c0 -5 -5 -11 -11 -13 -6 -2
-11 4 -11 13 0 9 5 15 11 13 6 -2 11 -8 11 -13z"/>
<path d="M430 589 c0 -17 4 -28 10 -24 5 3 6 13 3 23 -5 12 1 11 20 -7 l27
-24 -1 34 c0 25 -2 29 -8 16 -6 -17 -8 -17 -20 -3 -20 24 -31 19 -31 -15z"/>
<path d="M742 593 c2 -19 10 -29 23 -31 20 -4 20 -3 1 11 -12 9 -17 20 -13 31
4 9 2 16 -4 16 -6 0 -9 -12 -7 -27z"/>
<path d="M815 595 c0 -14 3 -25 8 -25 4 0 7 11 7 25 0 14 -3 25 -7 25 -5 0 -8
-11 -8 -25z"/>
<path d="M860 595 c0 -14 4 -25 10 -25 5 0 7 8 3 18 -5 13 0 11 20 -7 l27 -24
-1 34 c0 25 -2 29 -8 16 -6 -17 -8 -17 -20 -3 -19 23 -31 20 -31 -9z"/>
<path d="M428 500 c87 -79 70 -192 -33 -228 -29 -10 -29 -10 -4 -11 42 -2 131
50 153 88 25 43 26 119 3 155 -16 24 -23 26 -84 26 l-67 0 32 -30z"/>
<path d="M687 523 c-4 -3 -7 -54 -7 -112 0 -108 -4 -124 -30 -134 -8 -3 25 -6
75 -6 84 -1 88 0 67 15 -21 14 -22 23 -22 130 l0 114 -38 0 c-21 0 -42 -3 -45
-7z"/>
<path d="M121 350 c0 -83 3 -108 10 -91 10 25 8 25 144 6 l40 -6 -36 14 c-70
27 -109 67 -140 145 l-18 47 0 -115z"/>
<path d="M1101 391 c-16 -38 -81 -100 -117 -111 -24 -7 -17 -8 37 -9 l66 -1
20 75 c20 75 16 101 -6 46z"/>
</g>
</svg>
