<?xml version="1.0" standalone="no"?>
<!DOCTYPE svg PUBLIC "-//W3C//DTD SVG 20010904//EN"
 "http://www.w3.org/TR/2001/REC-SVG-20010904/DTD/svg10.dtd">
<svg version="1.0" xmlns="http://www.w3.org/2000/svg"
 width="1080.000000pt" height="1080.000000pt" viewBox="0 0 1080.000000 1080.000000"
 preserveAspectRatio="xMidYMid meet">
<metadata>
Created by potrace 1.14, written by Peter Selinger 2001-2017
</metadata>
<g transform="translate(0.000000,1080.000000) scale(0.100000,-0.100000)"
fill="#000000" stroke="none">
<path d="M4063 10642 c-13 -2 -23 -6 -24 -10 -1 -4 -2 -93 -3 -197 -1 -105 -6
-196 -10 -204 -6 -10 -5 -12 3 -7 8 5 10 0 7 -17 -4 -21 -1 -24 17 -19 20 5
21 4 7 -14 -14 -19 -14 -19 8 0 12 11 22 14 22 8 0 -7 5 -12 11 -12 5 0 8 4 5
8 -3 5 19 8 49 8 30 0 55 -4 55 -8 0 -4 5 -8 11 -8 5 0 7 4 4 10 -4 6 5 9 19
8 15 -1 26 -7 26 -12 0 -6 5 -5 12 2 16 16 31 15 22 0 -5 -8 0 -7 11 2 17 13
18 13 10 0 -7 -12 -6 -13 6 -3 18 14 60 13 52 -2 -3 -5 0 -4 8 3 16 14 33 16
24 2 -3 -5 -1 -10 4 -10 6 0 11 5 11 10 0 6 5 10 11 10 5 0 7 -6 3 -12 -6 -9
-3 -9 9 1 9 7 22 11 30 8 9 -3 11 6 8 36 -2 26 0 37 7 33 6 -3 14 -2 17 4 4 6
1 9 -6 8 -6 -2 -14 3 -16 10 -4 9 1 10 20 3 18 -7 27 -7 31 2 3 9 5 8 5 -1 1
-8 6 -10 13 -6 16 10 58 12 52 2 -6 -10 10 -11 19 -1 10 9 226 10 220 0 -5 -9
27 -4 45 6 7 5 12 3 12 -4 0 -8 4 -8 15 1 12 10 15 10 15 0 0 -10 3 -10 14 -1
9 7 17 8 20 2 5 -7 41 -8 41 -1 0 1 19 3 42 3 22 1 39 -1 36 -5 -7 -12 41 -5
49 7 5 6 8 5 8 -4 0 -11 3 -11 15 -1 8 7 15 8 15 3 0 -5 9 -9 20 -9 11 0 20 5
20 11 0 5 5 3 11 -5 8 -12 12 -12 16 -2 4 10 9 9 24 -4 14 -13 18 -14 14 -3
-4 11 8 14 70 13 41 0 78 -4 82 -7 3 -4 12 -2 20 4 10 9 13 8 13 -1 0 -10 3
-10 15 0 8 7 15 8 15 3 0 -5 9 -9 20 -9 11 0 20 5 20 11 0 5 5 3 11 -5 8 -12
12 -12 16 -2 4 10 8 10 19 1 8 -6 14 -8 14 -3 0 5 49 9 109 9 60 0 107 -3 104
-8 -5 -9 27 -4 45 6 7 5 12 3 12 -4 0 -8 4 -8 15 1 12 10 15 10 15 0 0 -10 3
-10 15 0 14 12 20 7 16 -14 -1 -5 5 -4 13 3 16 14 118 22 110 9 -6 -10 10 -11
19 -1 10 9 226 10 220 0 -5 -9 27 -4 45 6 7 5 12 3 12 -4 0 -8 4 -8 15 1 12
10 15 10 15 0 0 -10 3 -10 14 -1 9 7 17 8 20 2 5 -7 41 -8 41 -1 0 1 19 3 42
3 22 1 39 -1 36 -5 -5 -10 11 -10 20 -1 10 9 226 10 220 0 -5 -9 27 -4 45 6 7
5 12 3 12 -4 0 -8 4 -8 15 1 12 10 15 10 15 0 0 -10 3 -10 15 0 14 12 19 7 16
-13 -1 -5 4 -5 11 0 7 4 16 8 21 9 4 1 8 2 10 4 7 7 84 4 80 -4 -3 -4 5 -5 17
-1 57 18 86 11 81 -18 -1 -5 3 -6 9 -2 6 3 8 10 5 15 -10 16 20 17 33 1 9 -12
12 -13 10 -2 -3 16 49 24 58 9 3 -4 13 -4 22 0 9 4 50 8 90 7 39 0 72 2 72 5
0 3 -35 18 -77 34 -169 62 -299 108 -313 111 -8 2 -34 10 -57 19 -24 8 -43 13
-43 10 0 -2 -9 0 -21 6 -11 6 -28 13 -37 15 -9 2 -62 16 -117 31 l-100 28
-1070 2 c-588 1 -1073 2 -1077 3 -5 1 -8 21 -8 46 0 36 -4 45 -17 46 -67 3
-392 3 -410 1z"/>
<path d="M4790 10260 c0 -5 5 -10 11 -10 5 0 7 5 4 10 -3 6 -8 10 -11 10 -2 0
-4 -4 -4 -10z"/>
<path d="M5310 10256 c7 -7 13 -7 20 0 6 6 3 10 -10 10 -13 0 -16 -4 -10 -10z"/>
<path d="M5397 10252 c-15 -16 -15 -19 -2 -19 8 0 13 3 10 5 -3 3 0 11 6 19
17 20 5 16 -14 -5z"/>
<path d="M5629 10257 c6 -8 9 -16 6 -19 -3 -2 2 -5 10 -5 13 0 13 3 -2 19 -19
21 -31 25 -14 5z"/>
<path d="M5717 10252 c-15 -16 -15 -19 -2 -19 8 0 13 3 10 5 -3 3 0 11 6 19
17 20 5 16 -14 -5z"/>
<path d="M6230 10260 c0 -5 5 -10 11 -10 5 0 7 5 4 10 -3 6 -8 10 -11 10 -2 0
-4 -4 -4 -10z"/>
<path d="M6710 10260 c0 -5 5 -10 11 -10 5 0 7 5 4 10 -3 6 -8 10 -11 10 -2 0
-4 -4 -4 -10z"/>
<path d="M4559 10258 c-5 -18 -6 -38 -1 -34 7 8 12 36 6 36 -2 0 -4 -1 -5 -2z"/>
<path d="M4625 10240 c-3 -6 1 -7 9 -4 18 7 21 14 7 14 -6 0 -13 -4 -16 -10z"/>
<path d="M4693 10231 c0 -11 5 -18 9 -15 4 3 5 11 1 19 -7 21 -12 19 -10 -4z"/>
<path d="M4835 10240 c-3 -5 -1 -10 4 -10 6 0 11 5 11 10 0 6 -2 10 -4 10 -3
0 -8 -4 -11 -10z"/>
<path d="M4860 10246 c0 -2 8 -10 18 -17 15 -13 16 -12 3 4 -13 16 -21 21 -21
13z"/>
<path d="M5254 10235 c3 -23 12 -26 13 -5 1 11 -2 20 -7 20 -4 0 -7 -7 -6 -15z"/>
<path d="M5355 10240 c3 -5 8 -10 11 -10 2 0 4 5 4 10 0 6 -5 10 -11 10 -5 0
-7 -4 -4 -10z"/>
<path d="M5675 10240 c3 -5 8 -10 11 -10 2 0 4 5 4 10 0 6 -5 10 -11 10 -5 0
-7 -4 -4 -10z"/>
<path d="M5795 10240 c-3 -5 -1 -10 4 -10 6 0 11 5 11 10 0 6 -2 10 -4 10 -3
0 -8 -4 -11 -10z"/>
<path d="M6275 10240 c-3 -5 -1 -10 4 -10 6 0 11 5 11 10 0 6 -2 10 -4 10 -3
0 -8 -4 -11 -10z"/>
<path d="M6756 10233 c-6 -14 -5 -15 5 -6 7 7 10 15 7 18 -3 3 -9 -2 -12 -12z"/>
<path d="M5130 10219 c0 -5 5 -7 10 -4 6 3 10 8 10 11 0 2 -4 4 -10 4 -5 0
-10 -5 -10 -11z"/>
<path d="M5450 10219 c0 -5 5 -7 10 -4 6 3 10 8 10 11 0 2 -4 4 -10 4 -5 0
-10 -5 -10 -11z"/>
<path d="M5855 10220 c3 -5 8 -10 11 -10 2 0 4 5 4 10 0 6 -5 10 -11 10 -5 0
-7 -4 -4 -10z"/>
<path d="M6335 10220 c3 -5 8 -10 11 -10 2 0 4 5 4 10 0 6 -5 10 -11 10 -5 0
-7 -4 -4 -10z"/>
<path d="M6815 10220 c3 -5 8 -10 11 -10 2 0 4 5 4 10 0 6 -5 10 -11 10 -5 0
-7 -4 -4 -10z"/>
<path d="M7206 10222 c-3 -5 1 -9 9 -9 8 0 12 4 9 9 -3 4 -7 8 -9 8 -2 0 -6
-4 -9 -8z"/>
<path d="M5490 10200 c0 -5 5 -10 11 -10 5 0 7 5 4 10 -3 6 -8 10 -11 10 -2 0
-4 -4 -4 -10z"/>
<path d="M4121 10156 c-8 -10 -9 -16 -1 -21 6 -4 9 -1 8 7 -2 7 3 12 10 10 8
-1 11 2 7 8 -8 13 -10 13 -24 -4z"/>
<path d="M4234 10158 c-4 -7 -4 -10 1 -6 4 4 15 2 24 -5 14 -11 14 -10 2 6
-16 20 -18 21 -27 5z"/>
<path d="M4313 10145 c0 -8 4 -12 9 -9 5 3 6 10 3 15 -9 13 -12 11 -12 -6z"/>
<path d="M4056 10138 c3 -5 10 -6 15 -3 13 9 11 12 -6 12 -8 0 -12 -4 -9 -9z"/>
<path d="M4346 10142 c-3 -5 1 -9 9 -9 8 0 15 4 15 9 0 4 -4 8 -9 8 -6 0 -12
-4 -15 -8z"/>
<path d="M4450 10139 c0 -5 5 -7 10 -4 6 3 10 8 10 11 0 2 -4 4 -10 4 -5 0
-10 -5 -10 -11z"/>
<path d="M4386 10122 c-2 -4 4 -8 14 -8 10 0 16 4 14 8 -3 4 -9 8 -14 8 -5 0
-11 -4 -14 -8z"/>
<path d="M4475 10120 c-3 -5 -1 -10 4 -10 6 0 11 5 11 10 0 6 -2 10 -4 10 -3
0 -8 -4 -11 -10z"/>
<path d="M2287 9655 c-65 -48 -177 -135 -193 -150 -6 -5 -33 -28 -60 -50 -232
-190 -562 -531 -740 -765 -27 -36 -52 -67 -55 -70 -11 -10 -165 -225 -189
-265 -13 -22 -27 -42 -30 -45 -8 -7 -100 -155 -124 -200 -10 -19 -26 -46 -35
-60 -9 -14 -23 -38 -31 -55 -8 -16 -17 -32 -20 -35 -11 -10 -150 -292 -150
-303 0 -8 24 -12 72 -11 40 1 78 -1 83 -4 16 -10 36 -11 29 -1 -3 5 2 9 11 9
9 0 14 -4 11 -8 -3 -5 1 -9 9 -9 8 0 12 4 9 9 -3 4 2 8 10 8 9 0 16 -3 17 -7
2 -23 8 -46 14 -51 3 -4 4 7 1 24 l-6 31 68 -2 c37 -1 67 -3 67 -4 0 -2 8 -4
18 -6 9 -2 15 1 11 6 -3 5 2 9 11 9 9 0 14 -4 11 -8 -3 -5 1 -9 9 -9 8 0 12 4
9 9 -3 4 2 8 10 8 9 0 16 -3 17 -7 2 -23 8 -46 14 -51 3 -4 4 7 1 24 l-6 31
68 -2 c37 -1 67 -3 67 -4 0 -2 8 -4 18 -6 9 -2 15 1 11 6 -3 5 2 9 11 9 9 0
14 -4 11 -8 -3 -5 1 -9 9 -9 8 0 12 4 9 9 -3 4 2 8 10 8 9 0 16 -3 17 -7 2
-23 8 -46 14 -51 3 -4 4 7 1 24 l-6 31 68 -2 c37 -1 67 -3 67 -4 0 -2 8 -4 18
-6 9 -2 15 1 11 6 -3 5 2 9 11 9 9 0 14 -4 11 -8 -3 -5 1 -9 9 -9 8 0 12 4 9
9 -3 4 2 8 10 8 9 0 16 -3 17 -7 2 -23 8 -46 14 -51 3 -4 4 7 1 24 l-6 31 68
-2 c37 -1 67 -3 67 -4 0 -2 8 -4 18 -6 9 -2 15 1 11 6 -3 5 2 9 11 9 9 0 13
-5 9 -11 -4 -7 1 -7 16 1 18 10 24 9 31 -1 6 -10 9 -11 9 -1 0 6 7 12 16 12 9
0 12 -5 8 -12 -5 -7 -3 -8 7 -2 29 18 48 15 44 -8 -3 -11 -1 -17 3 -14 4 4 7
13 7 19 0 7 17 12 38 13 37 2 44 -3 30 -22 -5 -5 -1 -3 7 6 17 17 84 24 73 7
-4 -6 -1 -7 8 -1 8 5 36 9 62 10 31 1 44 -2 35 -7 -7 -5 -8 -9 -2 -9 6 0 14 3
18 7 3 4 15 8 26 10 14 2 18 -2 15 -19 -3 -11 -1 -17 3 -14 4 4 7 13 7 19 0 7
17 12 38 13 37 2 44 -3 30 -22 -5 -5 -1 -3 7 6 17 17 84 24 73 7 -4 -6 -1 -7
8 -1 8 5 36 9 62 10 31 1 44 -2 35 -7 -7 -5 -8 -9 -2 -9 6 0 14 3 18 7 3 4 15
8 26 10 14 2 18 -2 15 -19 -3 -11 -1 -17 3 -14 4 4 7 13 7 19 0 7 17 12 38 13
37 2 44 -3 30 -22 -5 -5 -1 -3 7 6 17 17 84 24 73 7 -4 -6 -1 -7 8 -1 8 5 36
9 62 10 31 1 44 -2 35 -7 -7 -5 -8 -9 -2 -9 6 0 14 3 18 7 3 4 15 8 26 10 14
2 18 -2 15 -19 -3 -11 -1 -17 3 -14 4 4 7 13 7 19 0 7 17 12 38 13 37 2 44 -3
30 -22 -5 -5 -1 -3 7 6 17 17 84 24 73 7 -4 -6 -1 -7 8 -1 20 13 102 13 118 0
11 -8 13 -8 7 2 -4 7 -1 12 8 12 9 0 17 -4 17 -10 1 -5 2 -14 3 -19 0 -5 4
-13 8 -16 4 -4 5 4 3 17 -5 25 -4 25 63 23 37 -1 67 -3 67 -4 0 -2 8 -4 18 -6
9 -2 15 1 11 6 -3 5 2 9 11 9 9 0 14 -4 11 -8 -3 -5 1 -9 9 -9 8 0 12 4 9 9
-3 4 2 8 10 8 9 0 16 -3 17 -7 2 -23 8 -46 14 -51 3 -4 4 7 1 24 l-6 31 68 -2
c37 -1 67 -3 67 -4 0 -2 8 -4 18 -6 9 -2 15 1 11 6 -3 5 2 9 11 9 9 0 14 -4
11 -8 -3 -5 1 -9 9 -9 8 0 12 4 9 9 -3 4 2 8 10 8 9 0 16 -3 17 -7 2 -23 8
-46 14 -51 3 -4 4 7 1 24 l-6 31 68 -2 c37 -1 67 -3 67 -4 0 -2 8 -4 18 -6 9
-2 15 1 11 6 -3 5 2 9 11 9 9 0 14 -4 11 -8 -3 -5 1 -9 9 -9 8 0 12 4 9 9 -3
4 2 8 10 8 9 0 16 -3 17 -7 2 -23 8 -46 14 -51 3 -4 4 7 1 24 l-6 31 68 -2
c37 -1 67 -3 67 -4 0 -2 8 -4 18 -6 9 -2 15 1 11 6 -3 5 2 9 11 9 9 0 14 -4
11 -8 -3 -5 1 -9 9 -9 8 0 12 4 9 9 -3 4 2 8 10 8 9 0 16 -3 17 -7 2 -23 8
-46 14 -51 3 -4 4 7 1 24 l-6 31 68 -2 c37 -1 67 -3 67 -4 0 -2 8 -4 18 -6 9
-2 15 1 11 6 -3 5 2 9 11 9 9 0 13 -5 9 -11 -4 -7 1 -7 16 1 18 10 24 9 31 -1
6 -10 9 -11 9 -1 0 6 7 12 16 12 9 0 12 -5 8 -12 -5 -7 -3 -8 7 -2 29 18 48
15 44 -8 -3 -11 -1 -17 3 -14 4 4 7 13 7 19 0 7 17 12 38 13 37 2 44 -3 30
-22 -5 -5 -1 -3 7 6 17 17 84 24 73 7 -4 -6 -1 -7 8 -1 8 5 36 9 62 10 31 1
44 -2 35 -7 -7 -5 -8 -9 -2 -9 6 0 14 3 18 7 3 4 15 8 26 10 14 2 18 -2 15
-19 -3 -11 -1 -17 3 -14 4 4 7 13 7 19 0 7 17 12 38 13 37 2 44 -3 30 -22 -5
-5 -1 -3 7 6 17 17 84 24 73 7 -4 -6 -1 -7 8 -1 8 5 36 9 62 10 31 1 44 -2 35
-7 -7 -5 -8 -9 -2 -9 6 0 14 3 18 8 10 9 76 13 96 5 27 -11 40 -11 34 -2 -3 5
2 9 11 9 9 0 14 -4 11 -8 -3 -5 1 -9 9 -9 8 0 12 4 9 9 -3 4 2 8 10 8 16 0 19
-7 19 -42 0 -10 3 -15 8 -13 4 3 6 16 3 29 -4 23 -2 23 64 21 37 -1 67 -3 67
-4 0 -2 8 -4 18 -6 9 -2 15 1 11 6 -3 5 2 9 11 9 9 0 14 -4 11 -8 -3 -5 1 -9
9 -9 8 0 12 4 9 9 -3 4 2 8 10 8 16 0 19 -7 19 -42 0 -10 3 -15 8 -13 4 3 6
16 3 28 -4 23 -1 24 61 24 52 0 63 -2 55 -12 -8 -9 -8 -15 0 -20 6 -4 9 -1 8
5 -2 7 5 17 15 23 14 10 20 9 27 -3 5 -8 10 -10 10 -4 0 12 96 17 115 5 17 -9
35 -10 29 0 -3 5 2 9 11 9 9 0 14 -4 11 -8 -3 -5 1 -9 9 -9 8 0 12 4 9 9 -3 4
2 8 10 8 14 0 21 -12 14 -24 -2 -2 5 -13 15 -23 9 -11 14 -23 10 -28 -5 -4 -2
-5 5 -1 10 6 11 11 0 23 -6 8 -13 23 -15 33 -2 15 5 17 65 15 37 -1 67 -3 67
-4 0 -2 8 -4 18 -6 9 -2 15 1 11 6 -3 5 2 9 11 9 9 0 14 -4 11 -8 -3 -5 1 -9
9 -9 8 0 12 4 9 9 -3 4 2 8 10 8 9 0 17 -4 17 -10 1 -5 2 -14 3 -19 0 -5 4
-13 8 -16 4 -4 5 4 3 17 l-5 25 148 -2 c81 -1 147 -3 147 -4 0 -1 8 -4 18 -6
9 -2 15 1 11 6 -3 5 2 9 11 9 9 0 14 -4 11 -8 -3 -5 1 -9 9 -9 8 0 12 4 9 9
-3 4 2 8 10 8 16 0 19 -7 19 -42 0 -10 3 -15 8 -13 4 3 6 16 3 29 -4 23 -2 23
64 21 37 -1 67 -3 67 -4 0 -2 8 -4 18 -6 9 -2 15 1 11 6 -3 5 2 9 11 9 9 0 14
-4 11 -8 -3 -5 1 -9 9 -9 8 0 12 4 9 9 -3 4 2 8 10 8 16 0 19 -7 19 -42 0 -10
3 -15 8 -13 4 3 6 16 3 28 -4 23 -1 24 61 24 52 0 63 -2 55 -12 -8 -9 -8 -15
0 -20 6 -4 9 -1 8 5 -2 7 5 17 15 23 14 10 20 9 27 -3 5 -8 10 -10 10 -4 0 12
96 17 115 5 17 -9 35 -10 29 0 -3 5 2 9 11 9 9 0 14 -4 11 -8 -3 -5 1 -9 9 -9
8 0 12 4 9 9 -3 4 2 8 10 8 14 0 21 -12 14 -24 -2 -2 5 -13 15 -23 9 -11 14
-23 10 -28 -5 -4 -2 -5 5 -1 10 6 11 11 0 23 -6 8 -13 23 -15 33 -2 15 5 17
65 15 37 -1 67 -3 67 -4 0 -2 8 -4 18 -6 9 -2 15 1 11 6 -3 5 2 9 11 9 9 0 14
-4 11 -8 -3 -5 1 -9 9 -9 8 0 12 4 9 9 -3 4 2 8 10 8 9 0 17 -4 17 -10 1 -5 2
-14 3 -19 0 -5 4 -13 8 -16 4 -4 5 4 3 17 l-5 25 93 -1 c50 -1 98 -5 106 -10
10 -6 12 -6 7 2 -4 7 -1 12 8 12 9 0 17 -4 17 -10 1 -5 2 -14 3 -19 0 -5 4
-13 8 -16 4 -4 5 4 3 17 -5 25 -4 25 63 23 37 -1 67 -3 67 -4 0 -2 8 -4 18 -6
9 -2 15 1 11 6 -3 5 2 9 11 9 9 0 14 -4 11 -8 -3 -5 1 -9 9 -9 8 0 12 4 9 9
-3 4 2 8 10 8 9 0 17 -4 17 -10 1 -5 2 -14 3 -19 0 -5 4 -13 8 -16 4 -4 5 4 3
17 -5 25 -4 25 63 23 37 -1 67 -3 67 -4 0 -2 8 -4 18 -6 9 -2 15 1 11 6 -3 5
2 9 11 9 9 0 14 -4 11 -8 -3 -5 1 -9 9 -9 8 0 12 4 9 9 -3 4 2 8 10 8 9 0 16
-4 16 -10 0 -21 2 -25 16 -41 8 -9 11 -19 7 -24 -5 -4 -2 -5 5 -1 10 6 11 11
0 23 -6 8 -13 23 -15 33 -2 15 5 17 65 15 37 -1 67 -3 67 -4 0 -2 8 -4 18 -6
9 -2 15 1 11 6 -3 5 2 9 11 9 9 0 14 -4 11 -8 -3 -5 1 -9 9 -9 8 0 12 4 9 9
-3 4 2 8 10 8 16 0 19 -7 19 -42 0 -10 3 -15 8 -13 4 3 6 16 3 29 -4 23 -2 23
64 21 37 -1 67 -3 67 -4 0 -2 8 -4 18 -6 9 -2 15 1 11 6 -3 5 2 9 11 9 9 0 14
-4 11 -8 -3 -5 1 -9 9 -9 8 0 12 4 9 9 -3 4 2 8 10 8 16 0 19 -7 19 -42 0 -10
3 -15 8 -13 4 3 6 16 3 29 -4 23 -2 23 64 21 37 -1 67 -3 67 -4 0 -2 8 -4 18
-6 9 -2 15 1 11 6 -3 5 2 9 11 9 9 0 14 -4 11 -8 -3 -5 1 -9 9 -9 8 0 12 4 9
9 -3 4 4 8 16 8 12 0 19 -4 16 -8 -3 -5 1 -9 9 -9 8 0 12 3 10 7 -2 4 11 7 30
7 28 0 33 -4 29 -20 -2 -11 0 -16 4 -13 4 4 7 13 7 19 0 7 17 12 38 13 37 2
44 -3 30 -22 -5 -5 -1 -3 7 6 17 17 84 24 73 7 -4 -6 -1 -7 8 -1 17 11 79 14
79 5 0 -4 -3 -11 -8 -17 -4 -5 0 -3 8 6 8 8 29 16 47 16 26 1 31 -2 28 -19 -3
-11 -1 -16 3 -13 4 4 7 13 7 19 0 7 17 12 38 13 37 2 44 -3 30 -22 -5 -5 -1
-3 7 6 17 17 84 24 73 7 -4 -6 -1 -7 8 -1 20 13 102 13 118 0 11 -8 13 -8 7 2
-4 7 -1 12 8 12 9 0 17 -4 17 -10 1 -5 2 -14 3 -19 0 -5 4 -13 8 -16 4 -4 5 4
3 17 -5 25 -4 25 63 23 37 -1 67 -3 67 -4 0 -2 8 -4 18 -6 9 -2 15 1 11 6 -3
5 2 9 11 9 9 0 14 -4 11 -8 -3 -5 1 -9 9 -9 8 0 12 4 9 9 -3 4 2 8 10 8 9 0
16 -3 17 -7 2 -23 8 -46 14 -51 3 -4 4 7 1 24 l-6 31 63 0 c34 0 65 -5 69 -11
5 -7 8 -7 8 2 0 8 5 10 13 5 18 -11 38 -13 31 -2 -3 6 14 9 45 6 36 -2 51 1
51 9 0 18 -156 320 -227 439 -69 117 -145 238 -153 245 -3 3 -27 39 -55 80
-65 98 -175 244 -186 248 -5 2 -9 10 -9 17 0 8 -6 18 -13 22 -6 4 -37 40 -68
78 -66 83 -127 151 -230 260 -127 132 -141 146 -244 242 -132 121 -139 128
-285 245 -69 55 -134 108 -145 117 -58 47 129 44 -3139 45 l-3065 1 -54 -40z"/>
<path d="M960 7615 c-11 -13 -11 -18 0 -28 10 -9 11 -9 6 1 -4 7 -2 19 4 27 7
8 10 15 7 15 -2 0 -10 -7 -17 -15z"/>
<path d="M1190 7616 c7 -7 13 -7 20 0 6 6 3 10 -10 10 -13 0 -16 -4 -10 -10z"/>
<path d="M1439 7613 c-13 -16 -12 -17 4 -4 16 13 21 21 13 21 -2 0 -10 -8 -17
-17z"/>
<path d="M1679 7613 c-13 -16 -12 -17 4 -4 16 13 21 21 13 21 -2 0 -10 -8 -17
-17z"/>
<path d="M1985 7620 c-3 -6 1 -7 9 -4 18 7 21 14 7 14 -6 0 -13 -4 -16 -10z"/>
<path d="M2146 7622 c-3 -5 1 -9 9 -9 8 0 12 4 9 9 -3 4 -7 8 -9 8 -2 0 -6 -4
-9 -8z"/>
<path d="M2305 7620 c-3 -6 1 -7 9 -4 18 7 21 14 7 14 -6 0 -13 -4 -16 -10z"/>
<path d="M2465 7620 c-3 -6 1 -7 9 -4 18 7 21 14 7 14 -6 0 -13 -4 -16 -10z"/>
<path d="M2625 7620 c-3 -6 1 -7 9 -4 18 7 21 14 7 14 -6 0 -13 -4 -16 -10z"/>
<path d="M2786 7622 c-3 -5 1 -9 9 -9 8 0 12 4 9 9 -3 4 -7 8 -9 8 -2 0 -6 -4
-9 -8z"/>
<path d="M2945 7620 c-3 -6 1 -7 9 -4 18 7 21 14 7 14 -6 0 -13 -4 -16 -10z"/>
<path d="M3106 7622 c-3 -5 1 -9 9 -9 8 0 12 4 9 9 -3 4 -7 8 -9 8 -2 0 -6 -4
-9 -8z"/>
<path d="M3279 7613 c-13 -16 -12 -17 4 -4 9 7 17 15 17 17 0 8 -8 3 -21 -13z"/>
<path d="M3520 7615 c-11 -13 -11 -18 0 -28 10 -9 11 -9 6 1 -4 7 -2 19 4 27
7 8 10 15 7 15 -2 0 -10 -7 -17 -15z"/>
<path d="M3750 7616 c7 -7 13 -7 20 0 6 6 3 10 -10 10 -13 0 -16 -4 -10 -10z"/>
<path d="M3999 7613 c-13 -16 -12 -17 4 -4 9 7 17 15 17 17 0 8 -8 3 -21 -13z"/>
<path d="M4239 7613 c-13 -16 -12 -17 4 -4 9 7 17 15 17 17 0 8 -8 3 -21 -13z"/>
<path d="M4545 7620 c-3 -6 1 -7 9 -4 18 7 21 14 7 14 -6 0 -13 -4 -16 -10z"/>
<path d="M4706 7622 c-3 -5 1 -9 9 -9 8 0 12 4 9 9 -3 4 -7 8 -9 8 -2 0 -6 -4
-9 -8z"/>
<path d="M4865 7620 c-3 -6 1 -7 9 -4 18 7 21 14 7 14 -6 0 -13 -4 -16 -10z"/>
<path d="M5025 7620 c-3 -6 1 -7 9 -4 18 7 21 14 7 14 -6 0 -13 -4 -16 -10z"/>
<path d="M5354 7608 l-19 -23 23 19 c21 18 27 26 19 26 -2 0 -12 -10 -23 -22z"/>
<path d="M5590 7618 c0 -4 4 -8 9 -8 6 0 12 4 15 8 3 5 -1 9 -9 9 -8 0 -15 -4
-15 -9z"/>
<path d="M5761 7616 c-9 -11 -9 -16 1 -22 7 -4 10 -4 6 1 -4 4 -3 14 3 22 6 7
9 13 6 13 -2 0 -10 -6 -16 -14z"/>
<path d="M5990 7616 c7 -7 13 -7 20 0 6 6 3 10 -10 10 -13 0 -16 -4 -10 -10z"/>
<path d="M6230 7618 c0 -4 4 -8 9 -8 6 0 12 4 15 8 3 5 -1 9 -9 9 -8 0 -15 -4
-15 -9z"/>
<path d="M6390 7616 c7 -7 13 -7 20 0 6 6 3 10 -10 10 -13 0 -16 -4 -10 -10z"/>
<path d="M6640 7615 c-7 -9 -11 -17 -9 -20 3 -2 10 5 17 15 14 24 10 26 -8 5z"/>
<path d="M6870 7618 c0 -4 4 -8 9 -8 6 0 12 4 15 8 3 5 -1 9 -9 9 -8 0 -15 -4
-15 -9z"/>
<path d="M7039 7613 c-13 -16 -12 -17 4 -4 9 7 17 15 17 17 0 8 -8 3 -21 -13z"/>
<path d="M7281 7616 c-9 -11 -9 -16 1 -22 7 -4 10 -4 6 1 -4 4 -3 14 3 22 6 7
9 13 6 13 -2 0 -10 -6 -16 -14z"/>
<path d="M7519 7613 c-13 -16 -12 -17 4 -4 9 7 17 15 17 17 0 8 -8 3 -21 -13z"/>
<path d="M7763 7618 c-11 -19 -12 -37 -3 -43 5 -3 7 3 5 12 -1 10 2 24 8 31 5
6 7 12 4 12 -3 0 -9 -6 -14 -12z"/>
<path d="M8001 7616 c-9 -11 -9 -16 1 -22 7 -4 10 -4 6 1 -4 4 -3 14 3 22 6 7
9 13 6 13 -2 0 -10 -6 -16 -14z"/>
<path d="M8230 7616 c7 -7 13 -7 20 0 6 6 3 10 -10 10 -13 0 -16 -4 -10 -10z"/>
<path d="M8474 7608 l-19 -23 23 19 c12 11 22 21 22 23 0 8 -8 2 -26 -19z"/>
<path d="M8714 7608 l-19 -23 23 19 c21 18 27 26 19 26 -2 0 -12 -10 -23 -22z"/>
<path d="M9025 7620 c-3 -6 1 -7 9 -4 18 7 21 14 7 14 -6 0 -13 -4 -16 -10z"/>
<path d="M9185 7620 c-3 -6 1 -7 9 -4 18 7 21 14 7 14 -6 0 -13 -4 -16 -10z"/>
<path d="M9345 7620 c-3 -6 1 -7 9 -4 18 7 21 14 7 14 -6 0 -13 -4 -16 -10z"/>
<path d="M9506 7622 c-3 -5 1 -9 9 -9 8 0 12 4 9 9 -3 4 -7 8 -9 8 -2 0 -6 -4
-9 -8z"/>
<path d="M9679 7613 c-13 -16 -12 -17 4 -4 9 7 17 15 17 17 0 8 -8 3 -21 -13z"/>
<path d="M9920 7615 c-11 -13 -11 -18 0 -28 10 -9 11 -9 6 1 -4 7 -2 19 4 27
7 8 10 15 7 15 -2 0 -10 -7 -17 -15z"/>
<path d="M10090 7620 c0 -5 5 -10 11 -10 5 0 7 5 4 10 -3 6 -8 10 -11 10 -2 0
-4 -4 -4 -10z"/>
<path d="M810 7617 c0 -2 6 -10 14 -16 11 -9 16 -9 22 1 4 7 4 10 -1 6 -4 -4
-14 -3 -22 3 -7 6 -13 9 -13 6z"/>
<path d="M1003 7604 c9 -11 15 -24 12 -27 -3 -4 -2 -5 2 -2 4 3 8 13 9 21 1 9
0 13 -3 10 -4 -3 -13 0 -22 6 -12 10 -12 7 2 -8z"/>
<path d="M1050 7617 c0 -2 6 -10 14 -16 11 -9 16 -9 22 1 4 7 4 10 -1 6 -4 -4
-14 -3 -22 3 -7 6 -13 9 -13 6z"/>
<path d="M1243 7604 c9 -11 15 -24 12 -27 -3 -4 -2 -5 2 -2 4 3 8 13 9 21 1 9
0 13 -3 10 -4 -3 -13 0 -22 6 -12 10 -12 7 2 -8z"/>
<path d="M1290 7617 c0 -2 6 -10 14 -16 11 -9 16 -9 22 1 4 7 4 10 -1 6 -4 -4
-14 -3 -22 3 -7 6 -13 9 -13 6z"/>
<path d="M1483 7604 c9 -11 15 -24 12 -27 -3 -4 -2 -5 2 -2 4 3 8 13 9 21 1 9
0 13 -3 10 -4 -3 -13 0 -22 6 -12 10 -12 7 2 -8z"/>
<path d="M1530 7617 c0 -2 6 -10 14 -16 11 -9 16 -9 22 1 4 7 4 10 -1 6 -4 -4
-14 -3 -22 3 -7 6 -13 9 -13 6z"/>
<path d="M1723 7604 c9 -11 15 -24 12 -27 -3 -4 -2 -5 2 -2 4 3 8 13 9 21 1 9
0 13 -3 10 -4 -3 -13 0 -22 6 -12 10 -12 7 2 -8z"/>
<path d="M1770 7617 c0 -2 6 -10 14 -16 11 -9 16 -9 22 1 4 7 4 10 -1 6 -4 -4
-14 -3 -22 3 -7 6 -13 9 -13 6z"/>
<path d="M1905 7600 c10 -11 20 -20 23 -20 3 0 -3 9 -13 20 -10 11 -20 20 -23
20 -3 0 3 -9 13 -20z"/>
<path d="M3370 7617 c0 -2 6 -10 14 -16 11 -9 16 -9 22 1 4 7 4 10 -1 6 -4 -4
-14 -3 -22 3 -7 6 -13 9 -13 6z"/>
<path d="M3563 7604 c9 -11 15 -24 12 -27 -3 -4 -2 -5 2 -2 4 3 8 13 9 21 1 9
0 13 -3 10 -4 -3 -13 0 -22 6 -12 10 -12 7 2 -8z"/>
<path d="M3610 7617 c0 -2 6 -10 14 -16 11 -9 16 -9 22 1 4 7 4 10 -1 6 -4 -4
-14 -3 -22 3 -7 6 -13 9 -13 6z"/>
<path d="M3803 7604 c9 -11 15 -24 12 -27 -3 -4 -2 -5 2 -2 4 3 8 13 9 21 1 9
0 13 -3 10 -4 -3 -13 0 -22 6 -12 10 -12 7 2 -8z"/>
<path d="M3850 7617 c0 -2 6 -10 14 -16 11 -9 16 -9 22 1 4 7 4 10 -1 6 -4 -4
-14 -3 -22 3 -7 6 -13 9 -13 6z"/>
<path d="M4043 7604 c9 -11 15 -24 12 -27 -3 -4 -2 -5 2 -2 4 3 8 13 9 21 1 9
0 13 -3 10 -4 -3 -13 0 -22 6 -12 10 -12 7 2 -8z"/>
<path d="M4090 7617 c0 -2 6 -10 14 -16 11 -9 16 -9 22 1 4 7 4 10 -1 6 -4 -4
-14 -3 -22 3 -7 6 -13 9 -13 6z"/>
<path d="M4283 7604 c9 -11 15 -24 12 -27 -3 -4 -2 -5 2 -2 4 3 8 13 9 21 1 9
0 13 -3 10 -4 -3 -13 0 -22 6 -12 10 -12 7 2 -8z"/>
<path d="M4330 7617 c0 -2 6 -10 14 -16 11 -9 16 -9 22 1 4 7 4 10 -1 6 -4 -4
-14 -3 -22 3 -7 6 -13 9 -13 6z"/>
<path d="M4465 7600 c10 -11 20 -20 23 -20 3 0 -3 9 -13 20 -10 11 -20 20 -23
20 -3 0 3 -9 13 -20z"/>
<path d="M5153 7605 c0 -8 4 -12 9 -9 5 3 6 10 3 15 -9 13 -12 11 -12 -6z"/>
<path d="M5213 7605 c0 -8 4 -12 9 -9 5 3 6 10 3 15 -9 13 -12 11 -12 -6z"/>
<path d="M5396 7607 c3 -10 9 -15 12 -12 3 3 0 11 -7 18 -10 9 -11 8 -5 -6z"/>
<path d="M5456 7607 c3 -10 9 -15 12 -12 3 3 0 11 -7 18 -10 9 -11 8 -5 -6z"/>
<path d="M5793 7605 c0 -8 4 -12 9 -9 5 3 6 10 3 15 -9 13 -12 11 -12 -6z"/>
<path d="M5853 7605 c0 -8 4 -12 9 -9 5 3 6 10 3 15 -9 13 -12 11 -12 -6z"/>
<path d="M6093 7605 c0 -8 4 -12 9 -9 5 3 6 10 3 15 -9 13 -12 11 -12 -6z"/>
<path d="M6273 7605 c0 -8 4 -12 9 -9 5 3 6 10 3 15 -9 13 -12 11 -12 -6z"/>
<path d="M6355 7611 c-3 -5 -2 -12 3 -15 5 -3 9 1 9 9 0 17 -3 19 -12 6z"/>
<path d="M6433 7605 c0 -8 4 -12 9 -9 5 3 6 10 3 15 -9 13 -12 11 -12 -6z"/>
<path d="M6676 7607 c3 -10 9 -15 12 -12 3 3 0 11 -7 18 -10 9 -11 8 -5 -6z"/>
<path d="M6736 7607 c3 -10 9 -15 12 -12 3 3 0 11 -7 18 -10 9 -11 8 -5 -6z"/>
<path d="M6916 7607 c3 -10 9 -15 12 -12 3 3 0 11 -7 18 -10 9 -11 8 -5 -6z"/>
<path d="M7073 7605 c0 -8 4 -12 9 -9 5 3 6 10 3 15 -9 13 -12 11 -12 -6z"/>
<path d="M7133 7605 c0 -8 4 -12 9 -9 5 3 6 10 3 15 -9 13 -12 11 -12 -6z"/>
<path d="M7313 7605 c0 -8 4 -12 9 -9 5 3 6 10 3 15 -9 13 -12 11 -12 -6z"/>
<path d="M7373 7605 c0 -8 4 -12 9 -9 5 3 6 10 3 15 -9 13 -12 11 -12 -6z"/>
<path d="M7553 7605 c0 -8 4 -12 9 -9 5 3 6 10 3 15 -9 13 -12 11 -12 -6z"/>
<path d="M7635 7611 c-3 -5 -2 -12 3 -15 5 -3 9 1 9 9 0 17 -3 19 -12 6z"/>
<path d="M7793 7605 c0 -8 4 -12 9 -9 5 3 6 10 3 15 -9 13 -12 11 -12 -6z"/>
<path d="M7853 7605 c0 -8 4 -12 9 -9 5 3 6 10 3 15 -9 13 -12 11 -12 -6z"/>
<path d="M8093 7605 c0 -8 4 -12 9 -9 5 3 6 10 3 15 -9 13 -12 11 -12 -6z"/>
<path d="M8273 7605 c0 -8 4 -12 9 -9 5 3 6 10 3 15 -9 13 -12 11 -12 -6z"/>
<path d="M8336 7607 c3 -10 9 -15 12 -12 3 3 0 11 -7 18 -10 9 -11 8 -5 -6z"/>
<path d="M8516 7607 c3 -10 9 -15 12 -12 3 3 0 11 -7 18 -10 9 -11 8 -5 -6z"/>
<path d="M8576 7607 c3 -10 9 -15 12 -12 3 3 0 11 -7 18 -10 9 -11 8 -5 -6z"/>
<path d="M8756 7607 c3 -10 9 -15 12 -12 3 3 0 11 -7 18 -10 9 -11 8 -5 -6z"/>
<path d="M8816 7607 c3 -10 9 -15 12 -12 3 3 0 11 -7 18 -10 9 -11 8 -5 -6z"/>
<path d="M8936 7607 c3 -10 9 -15 12 -12 3 3 0 11 -7 18 -10 9 -11 8 -5 -6z"/>
<path d="M9770 7617 c0 -2 6 -10 14 -16 11 -9 16 -9 22 1 4 7 4 10 -1 6 -4 -4
-14 -3 -22 3 -7 6 -13 9 -13 6z"/>
<path d="M9963 7604 c9 -11 15 -24 12 -27 -3 -4 -2 -5 2 -2 4 3 8 13 9 21 1 9
0 13 -3 10 -4 -3 -13 0 -22 6 -12 10 -12 7 2 -8z"/>
<path d="M10010 7616 c0 -2 8 -10 18 -17 15 -13 16 -12 3 4 -13 16 -21 21 -21
13z"/>
<path d="M6700 7606 c0 -2 8 -10 18 -17 15 -13 16 -12 3 4 -13 16 -21 21 -21
13z"/>
<path d="M6940 7606 c0 -2 8 -10 18 -17 15 -13 16 -12 3 4 -13 16 -21 21 -21
13z"/>
<path d="M8369 7597 c6 -8 7 -18 3 -22 -4 -5 -1 -5 6 -1 10 6 10 11 1 22 -6 8
-14 14 -16 14 -3 0 0 -6 6 -13z"/>
<path d="M8540 7606 c0 -2 8 -10 18 -17 15 -13 16 -12 3 4 -13 16 -21 21 -21
13z"/>
<path d="M8609 7597 c6 -8 7 -18 3 -22 -4 -5 -1 -5 6 -1 10 6 10 11 1 22 -6 8
-14 14 -16 14 -3 0 0 -6 6 -13z"/>
<path d="M10050 7606 c0 -2 7 -7 16 -10 8 -3 12 -2 9 4 -6 10 -25 14 -25 6z"/>
<path d="M795 7591 c-3 -5 -2 -12 3 -15 5 -3 9 1 9 9 0 17 -3 19 -12 6z"/>
<path d="M3355 7591 c-3 -5 -2 -12 3 -15 5 -3 9 1 9 9 0 17 -3 19 -12 6z"/>
<path d="M5733 7585 c0 -8 4 -12 9 -9 5 3 6 10 3 15 -9 13 -12 11 -12 -6z"/>
<path d="M7013 7585 c0 -8 4 -12 9 -9 5 3 6 10 3 15 -9 13 -12 11 -12 -6z"/>
<path d="M9755 7591 c-3 -5 -2 -12 3 -15 5 -3 9 1 9 9 0 17 -3 19 -12 6z"/>
<path d="M730 7579 c0 -5 5 -7 10 -4 6 3 10 8 10 11 0 2 -4 4 -10 4 -5 0 -10
-5 -10 -11z"/>
<path d="M5490 7579 c0 -5 5 -7 10 -4 6 3 10 8 10 11 0 2 -4 4 -10 4 -5 0 -10
-5 -10 -11z"/>
<path d="M6210 7579 c0 -5 5 -7 10 -4 6 3 10 8 10 11 0 2 -4 4 -10 4 -5 0 -10
-5 -10 -11z"/>
<path d="M7490 7579 c0 -5 5 -7 10 -4 6 3 10 8 10 11 0 2 -4 4 -10 4 -5 0 -10
-5 -10 -11z"/>
<path d="M7690 7579 c0 -5 5 -7 10 -4 6 3 10 8 10 11 0 2 -4 4 -10 4 -5 0 -10
-5 -10 -11z"/>
<path d="M7970 7579 c0 -5 5 -7 10 -4 6 3 10 8 10 11 0 2 -4 4 -10 4 -5 0 -10
-5 -10 -11z"/>
<path d="M8850 7579 c0 -5 5 -7 10 -4 6 3 10 8 10 11 0 2 -4 4 -10 4 -5 0 -10
-5 -10 -11z"/>
<path d="M9690 7579 c0 -5 5 -7 10 -4 6 3 10 8 10 11 0 2 -4 4 -10 4 -5 0 -10
-5 -10 -11z"/>
<path d="M5135 7560 c-3 -5 -1 -10 4 -10 6 0 11 5 11 10 0 6 -2 10 -4 10 -3 0
-8 -4 -11 -10z"/>
<path d="M6415 7560 c-3 -5 -1 -10 4 -10 6 0 11 5 11 10 0 6 -2 10 -4 10 -3 0
-8 -4 -11 -10z"/>
<path d="M1855 7150 c-2 -3 -4 -107 -4 -231 1 -214 2 -225 20 -226 10 -1 19 3
19 8 0 6 7 6 18 1 9 -5 50 -7 90 -5 72 3 82 -1 60 -27 -11 -12 -10 -12 3 -2 9
6 19 9 23 5 4 -4 4 -1 1 8 -5 13 11 15 113 14 l119 0 -4 29 c-2 17 3 33 9 38
10 6 10 8 1 8 -7 0 -13 7 -13 15 0 8 5 15 11 15 5 0 7 -5 3 -12 -5 -7 -3 -8 7
-3 22 14 60 15 52 2 -5 -9 -3 -9 8 -2 8 6 26 10 42 9 15 0 27 4 27 10 0 6 4 4
9 -4 6 -8 8 -17 5 -21 -2 -4 0 -10 5 -14 6 -3 8 2 7 12 -3 14 3 18 30 19 21 0
31 -3 27 -10 -5 -8 -3 -8 8 0 8 6 26 9 42 8 18 -2 25 1 21 8 -5 8 -2 8 7 2 20
-13 189 -13 189 0 0 7 3 7 8 0 8 -14 150 -14 171 0 9 6 12 5 8 -1 -4 -6 0 -14
9 -17 8 -3 12 -2 9 4 -3 5 11 8 35 5 27 -3 40 0 40 8 0 8 3 9 8 1 4 -7 64 -10
172 -10 99 1 171 -3 179 -9 11 -7 13 -7 8 1 -8 13 17 27 28 16 12 -12 95 -11
88 2 -5 8 -3 8 8 0 8 -6 32 -11 54 -10 24 1 45 -5 53 -14 8 -8 11 -9 7 -2 -9
17 4 34 18 25 19 -13 187 -11 180 1 -5 7 -2 7 8 0 8 -6 32 -11 54 -10 24 1 45
-5 53 -14 8 -8 11 -9 7 -2 -12 24 6 32 33 14 14 -9 23 -12 20 -7 -4 7 26 10
90 9 58 -1 103 3 111 10 9 7 12 7 9 1 -4 -6 3 -17 15 -25 20 -12 21 -12 9 3
-13 15 -10 16 27 12 28 -3 41 0 41 8 0 8 3 9 8 1 4 -7 64 -10 172 -10 99 1
171 -3 179 -9 11 -7 13 -7 8 1 -8 13 17 27 28 16 12 -12 95 -11 88 2 -5 8 -3
8 8 0 8 -6 32 -11 54 -10 24 1 45 -5 53 -14 8 -8 11 -9 7 -2 -9 17 4 35 18 24
7 -5 37 -9 67 -8 36 1 62 -3 75 -14 18 -14 19 -14 7 1 -11 15 -8 16 30 14 24
-2 49 2 57 9 11 8 13 8 8 0 -4 -7 0 -15 9 -18 8 -3 12 -2 9 4 -3 5 11 8 35 5
27 -3 40 0 40 8 0 8 2 9 8 1 8 -13 131 -13 151 0 9 6 12 5 8 -1 -4 -6 27 -9
86 -9 51 1 98 -3 106 -9 11 -7 13 -7 8 1 -8 13 17 27 28 16 12 -12 95 -11 88
2 -5 8 -3 8 8 0 8 -6 32 -11 54 -10 25 1 45 -5 53 -14 11 -13 11 -13 6 1 -6
20 11 34 22 18 5 -8 3 -9 -7 -4 -8 5 -11 4 -6 0 9 -10 48 -15 42 -5 -2 3 40 5
93 4 58 -1 103 3 111 10 11 8 13 8 8 0 -4 -7 0 -15 9 -18 8 -3 12 -2 9 4 -3 5
11 8 35 5 27 -3 40 0 40 8 0 8 3 9 8 1 5 -7 65 -10 182 -9 96 1 180 3 185 4 6
2 12 2 15 1 3 -1 26 -3 52 -5 33 -2 46 1 41 9 -5 8 -3 8 8 0 8 -6 32 -11 54
-10 24 1 45 -5 53 -14 8 -8 11 -9 7 -2 -9 17 4 35 18 24 15 -12 218 -10 236 2
9 6 12 5 8 0 -3 -6 4 -16 16 -24 20 -12 21 -12 9 3 -13 15 -10 16 27 12 28 -3
41 0 41 8 0 8 3 9 8 1 8 -13 131 -13 151 0 9 6 12 5 8 -1 -4 -7 26 -10 86 -9
51 1 98 -3 106 -9 11 -7 13 -7 8 1 -4 7 0 14 8 18 8 3 17 1 19 -3 3 -5 26 -8
50 -6 30 1 43 -2 39 -9 -3 -6 0 -6 7 1 11 10 16 9 27 -5 12 -16 13 -16 7 0 -5
14 -1 16 20 12 16 -3 26 0 26 8 0 6 6 4 13 -7 10 -12 16 -14 21 -7 11 18 25
14 21 -5 -1 -10 -8 -17 -15 -15 -6 1 -8 -3 -5 -9 8 -12 30 4 30 23 0 6 6 13
14 16 10 3 12 -1 8 -14 -7 -18 -6 -18 7 -1 14 18 32 24 21 7 -3 -5 -1 -10 4
-10 6 0 11 5 11 10 0 6 5 10 11 10 5 0 7 -5 3 -12 -5 -7 -3 -8 7 -2 20 12 89
12 82 -1 -3 -5 0 -5 7 2 11 10 16 9 27 -5 12 -16 13 -16 7 0 -5 14 -1 16 20
12 17 -3 26 0 26 8 0 11 2 11 8 0 5 -8 22 -11 46 -8 25 4 35 2 30 -6 -5 -7 -2
-8 7 -3 20 13 149 13 142 0 -3 -5 0 -5 7 2 11 10 16 9 27 -5 12 -16 13 -16 7
0 -5 14 -1 16 20 12 16 -3 26 0 26 8 0 6 6 4 13 -7 10 -12 16 -14 21 -7 4 7
12 12 17 12 6 0 7 -4 4 -10 -3 -5 -1 -10 4 -10 6 0 11 5 11 11 0 5 5 7 10 4 6
-4 7 -11 4 -17 -4 -7 -2 -8 5 -4 6 4 9 12 6 17 -4 5 1 9 10 9 9 0 13 -4 10
-10 -3 -5 -1 -10 4 -10 6 0 11 5 11 10 0 6 5 10 11 10 5 0 7 -5 3 -12 -5 -8
-3 -8 7 -2 19 12 89 12 82 -1 -3 -5 0 -5 7 2 11 10 16 9 27 -5 12 -16 13 -16
7 0 -5 14 -1 16 20 12 17 -3 26 0 26 8 0 11 2 11 8 0 5 -8 22 -11 46 -8 25 4
35 2 30 -6 -5 -7 -2 -8 7 -3 7 5 52 9 99 9 47 1 91 5 99 10 9 6 12 5 8 0 -3
-6 4 -16 16 -24 20 -12 21 -12 9 3 -13 15 -10 16 27 12 28 -3 41 0 41 8 0 8 2
9 8 1 8 -13 131 -13 151 0 9 6 12 5 8 -1 -6 -9 177 -12 208 -3 6 1 12 1 15 0
3 -1 26 -3 52 -5 31 -2 45 1 41 8 -4 6 -1 7 8 1 19 -12 90 -14 111 -3 9 5 19
5 22 1 7 -12 217 -9 235 2 9 6 12 5 8 -1 -4 -6 0 -14 9 -17 8 -3 12 -2 9 4 -3
5 11 8 35 5 27 -3 40 0 40 8 0 8 3 9 8 1 9 -13 161 -13 181 0 9 6 12 5 8 -1
-4 -6 18 -10 58 -9 39 0 65 4 65 10 0 6 5 4 10 -4 20 -30 11 10 -36 175 -9 33
-21 65 -26 72 -7 9 -945 12 -3971 12 -2179 0 -3997 1 -4039 1 l-78 0 0 48 0
48 -226 0 c-124 0 -227 -3 -229 -6z"/>
<path d="M7673 6775 c0 -8 4 -12 9 -9 5 3 6 10 3 15 -9 13 -12 11 -12 -6z"/>
<path d="M8633 6775 c0 -8 4 -12 9 -9 5 3 6 10 3 15 -9 13 -12 11 -12 -6z"/>
<path d="M2435 6769 c-4 -6 -5 -12 -2 -15 2 -3 7 2 10 11 7 17 1 20 -8 4z"/>
<path d="M2750 6776 c0 -2 8 -10 18 -17 15 -13 16 -12 3 4 -13 16 -21 21 -21
13z"/>
<path d="M3155 6769 c-4 -6 -5 -12 -2 -15 2 -3 7 2 10 11 7 17 1 20 -8 4z"/>
<path d="M3236 6767 c3 -10 9 -15 12 -12 3 3 0 11 -7 18 -10 9 -11 8 -5 -6z"/>
<path d="M3565 6760 c10 -11 20 -20 23 -20 3 0 -3 9 -13 20 -10 11 -20 20 -23
20 -3 0 3 -9 13 -20z"/>
<path d="M3710 6777 c0 -2 6 -10 14 -16 11 -9 16 -9 22 1 4 7 4 10 -1 6 -4 -4
-14 -3 -22 3 -7 6 -13 9 -13 6z"/>
<path d="M3883 6762 c10 -10 14 -22 10 -27 -5 -4 -2 -5 5 -1 11 6 10 12 -4 27
-9 10 -19 19 -22 19 -3 0 2 -8 11 -18z"/>
<path d="M4274 6755 c0 -13 3 -22 7 -19 8 4 6 30 -2 38 -3 3 -5 -5 -5 -19z"/>
<path d="M4843 6762 c10 -10 14 -22 10 -27 -5 -4 -2 -5 5 -1 11 6 10 12 -4 27
-9 10 -19 19 -22 19 -3 0 2 -8 11 -18z"/>
<path d="M4990 6777 c0 -2 6 -10 14 -16 11 -9 16 -9 22 1 4 7 4 10 -1 6 -4 -4
-14 -3 -22 3 -7 6 -13 9 -13 6z"/>
<path d="M5395 6769 c-4 -6 -5 -12 -2 -15 2 -3 7 2 10 11 7 17 1 20 -8 4z"/>
<path d="M5476 6767 c3 -10 9 -15 12 -12 3 3 0 11 -7 18 -10 9 -11 8 -5 -6z"/>
<path d="M5639 6778 c-6 -20 -6 -39 0 -42 4 -3 7 6 7 20 0 20 -4 32 -7 22z"/>
<path d="M6436 6767 c3 -10 9 -15 12 -12 3 3 0 11 -7 18 -10 9 -11 8 -5 -6z"/>
<path d="M6599 6778 c-6 -20 -6 -39 0 -42 4 -3 7 6 7 20 0 20 -4 32 -7 22z"/>
<path d="M6910 6777 c0 -2 6 -10 14 -16 11 -9 16 -9 22 1 4 7 4 10 -1 6 -4 -4
-14 -3 -22 3 -7 6 -13 9 -13 6z"/>
<path d="M7154 6755 c0 -13 3 -22 7 -19 8 4 6 30 -2 38 -3 3 -5 -5 -5 -19z"/>
<path d="M7315 6769 c-4 -6 -5 -12 -2 -15 2 -3 7 2 10 11 7 17 1 20 -8 4z"/>
<path d="M7396 6767 c3 -10 9 -15 12 -12 3 3 0 11 -7 18 -10 9 -11 8 -5 -6z"/>
<path d="M7790 6777 c0 -2 6 -10 14 -16 11 -9 16 -9 22 1 4 7 4 10 -1 6 -4 -4
-14 -3 -22 3 -7 6 -13 9 -13 6z"/>
<path d="M8110 6777 c0 -2 6 -10 14 -16 11 -9 16 -9 22 1 4 7 4 10 -1 6 -4 -4
-14 -3 -22 3 -7 6 -13 9 -13 6z"/>
<path d="M8196 6767 c3 -10 9 -15 12 -12 3 3 0 11 -7 18 -10 9 -11 8 -5 -6z"/>
<path d="M8836 6767 c3 -10 9 -15 12 -12 3 3 0 11 -7 18 -10 9 -11 8 -5 -6z"/>
<path d="M9074 6755 c0 -13 3 -22 7 -19 8 4 6 30 -2 38 -3 3 -5 -5 -5 -19z"/>
<path d="M9316 6767 c3 -10 9 -15 12 -12 3 3 0 11 -7 18 -10 9 -11 8 -5 -6z"/>
<path d="M9479 6778 c-6 -20 -6 -39 0 -42 4 -3 7 6 7 20 0 20 -4 32 -7 22z"/>
<path d="M9790 6777 c0 -2 6 -10 14 -16 11 -9 16 -9 22 1 4 7 4 10 -1 6 -4 -4
-14 -3 -22 3 -7 6 -13 9 -13 6z"/>
<path d="M10385 6760 c10 -11 20 -20 23 -20 3 0 -3 9 -13 20 -10 11 -20 20
-23 20 -3 0 3 -9 13 -20z"/>
<path d="M2536 6762 c-3 -4 4 -9 15 -9 23 -2 25 3 4 10 -8 4 -16 3 -19 -1z"/>
<path d="M2696 6758 c3 -5 10 -6 15 -3 13 9 11 12 -6 12 -8 0 -12 -4 -9 -9z"/>
<path d="M2856 6758 c3 -4 11 -5 19 -1 21 7 19 12 -4 10 -11 0 -18 -5 -15 -9z"/>
<path d="M2933 6755 c0 -8 4 -12 9 -9 4 3 8 9 8 15 0 5 -4 9 -8 9 -5 0 -9 -7
-9 -15z"/>
<path d="M3450 6761 c0 -6 4 -12 8 -15 5 -3 9 1 9 9 0 8 -4 15 -9 15 -4 0 -8
-4 -8 -9z"/>
<path d="M3506 6762 c-3 -5 1 -9 9 -9 8 0 12 4 9 9 -3 4 -7 8 -9 8 -2 0 -6 -4
-9 -8z"/>
<path d="M3656 6758 c3 -5 10 -6 15 -3 13 9 11 12 -6 12 -8 0 -12 -4 -9 -9z"/>
<path d="M3814 6762 c4 -3 14 -7 22 -8 9 -1 13 0 10 4 -4 3 -14 7 -22 8 -9 1
-13 0 -10 -4z"/>
<path d="M3976 6758 c3 -5 10 -6 15 -3 13 9 11 12 -6 12 -8 0 -12 -4 -9 -9z"/>
<path d="M4730 6761 c0 -6 4 -12 8 -15 5 -3 9 1 9 9 0 8 -4 15 -9 15 -4 0 -8
-4 -8 -9z"/>
<path d="M4786 6762 c-3 -5 1 -9 9 -9 8 0 12 4 9 9 -3 4 -7 8 -9 8 -2 0 -6 -4
-9 -8z"/>
<path d="M4936 6758 c3 -5 10 -6 15 -3 13 9 11 12 -6 12 -8 0 -12 -4 -9 -9z"/>
<path d="M5096 6761 c8 -8 43 -8 38 0 -2 4 -13 7 -24 6 -10 -1 -17 -3 -14 -6z"/>
<path d="M5173 6755 c0 -8 4 -12 9 -9 4 3 8 9 8 15 0 5 -4 9 -8 9 -5 0 -9 -7
-9 -15z"/>
<path d="M5690 6761 c0 -6 4 -12 8 -15 5 -3 9 1 9 9 0 8 -4 15 -9 15 -4 0 -8
-4 -8 -9z"/>
<path d="M5896 6758 c3 -5 10 -6 15 -3 13 9 11 12 -6 12 -8 0 -12 -4 -9 -9z"/>
<path d="M6056 6758 c3 -4 11 -5 19 -1 21 7 19 12 -4 10 -11 0 -18 -5 -15 -9z"/>
<path d="M6133 6755 c0 -8 4 -12 9 -9 4 3 8 9 8 15 0 5 -4 9 -8 9 -5 0 -9 -7
-9 -15z"/>
<path d="M6650 6761 c0 -6 4 -12 8 -15 5 -3 9 1 9 9 0 8 -4 15 -9 15 -4 0 -8
-4 -8 -9z"/>
<path d="M6856 6758 c3 -5 10 -6 15 -3 13 9 11 12 -6 12 -8 0 -12 -4 -9 -9z"/>
<path d="M7016 6758 c3 -4 11 -5 19 -1 21 7 19 12 -4 10 -11 0 -18 -5 -15 -9z"/>
<path d="M7093 6755 c0 -8 4 -12 9 -9 4 3 8 9 8 15 0 5 -4 9 -8 9 -5 0 -9 -7
-9 -15z"/>
<path d="M7610 6761 c0 -6 4 -12 8 -15 5 -3 9 1 9 9 0 8 -4 15 -9 15 -4 0 -8
-4 -8 -9z"/>
<path d="M7735 6760 c-4 -6 -1 -9 7 -8 7 2 12 -3 10 -10 -1 -8 2 -11 8 -7 8 5
7 11 -1 21 -14 17 -16 17 -24 4z"/>
<path d="M8055 6760 c-4 -6 -1 -9 7 -8 7 2 12 -3 10 -10 -1 -8 2 -11 8 -7 8 5
7 11 -1 21 -14 17 -16 17 -24 4z"/>
<path d="M8375 6760 c-4 -6 -1 -9 7 -8 7 2 12 -3 10 -10 -1 -8 2 -11 8 -7 8 5
7 11 -1 21 -14 17 -16 17 -24 4z"/>
<path d="M8695 6760 c-4 -6 -1 -9 7 -8 7 2 12 -3 10 -10 -1 -8 2 -11 8 -7 8 5
7 11 -1 21 -14 17 -16 17 -24 4z"/>
<path d="M9013 6755 c0 -8 4 -12 9 -9 4 3 8 9 8 15 0 5 -4 9 -8 9 -5 0 -9 -7
-9 -15z"/>
<path d="M9530 6761 c0 -6 4 -12 8 -15 5 -3 9 1 9 9 0 8 -4 15 -9 15 -4 0 -8
-4 -8 -9z"/>
<path d="M9736 6758 c3 -5 10 -6 15 -3 13 9 11 12 -6 12 -8 0 -12 -4 -9 -9z"/>
<path d="M9896 6758 c3 -4 11 -5 19 -1 21 7 19 12 -4 10 -11 0 -18 -5 -15 -9z"/>
<path d="M9973 6755 c0 -8 4 -12 9 -9 4 3 8 9 8 15 0 5 -4 9 -8 9 -5 0 -9 -7
-9 -15z"/>
<path d="M10353 6755 c0 -8 4 -12 9 -9 5 3 6 10 3 15 -9 13 -12 11 -12 -6z"/>
<path d="M7919 6758 c-6 -20 -6 -39 0 -42 4 -3 7 6 7 20 0 20 -4 32 -7 22z"/>
<path d="M8273 6745 c0 -8 4 -12 9 -9 5 3 6 10 3 15 -9 13 -12 11 -12 -6z"/>
<path d="M8555 6751 c-3 -5 -2 -12 3 -15 5 -3 9 1 9 9 0 17 -3 19 -12 6z"/>
<path d="M8913 6745 c0 -8 4 -12 9 -9 5 3 6 10 3 15 -9 13 -12 11 -12 -6z"/>
<path d="M9653 6745 c0 -8 4 -12 9 -9 5 3 6 10 3 15 -9 13 -12 11 -12 -6z"/>
<path d="M2366 6718 c3 -5 10 -6 15 -3 13 9 11 12 -6 12 -8 0 -12 -4 -9 -9z"/>
<path d="M2416 6718 c3 -5 10 -6 15 -3 13 9 11 12 -6 12 -8 0 -12 -4 -9 -9z"/>
<path d="M3040 6720 c-9 -6 -10 -10 -3 -10 6 0 15 5 18 10 8 12 4 12 -15 0z"/>
<path d="M3136 6718 c3 -5 10 -6 15 -3 13 9 11 12 -6 12 -8 0 -12 -4 -9 -9z"/>
<path d="M3246 6718 c3 -5 10 -6 15 -3 13 9 11 12 -6 12 -8 0 -12 -4 -9 -9z"/>
<path d="M3347 6719 c7 -7 15 -10 18 -7 3 3 -2 9 -12 12 -14 6 -15 5 -6 -5z"/>
<path d="M4320 6720 c-9 -6 -10 -10 -3 -10 6 0 15 5 18 10 8 12 4 12 -15 0z"/>
<path d="M4416 6718 c3 -5 10 -6 15 -3 13 9 11 12 -6 12 -8 0 -12 -4 -9 -9z"/>
<path d="M4526 6718 c3 -5 10 -6 15 -3 13 9 11 12 -6 12 -8 0 -12 -4 -9 -9z"/>
<path d="M5280 6720 c-9 -6 -10 -10 -3 -10 6 0 15 5 18 10 8 12 4 12 -15 0z"/>
<path d="M5376 6718 c3 -5 10 -6 15 -3 13 9 11 12 -6 12 -8 0 -12 -4 -9 -9z"/>
<path d="M5486 6718 c3 -5 10 -6 15 -3 13 9 11 12 -6 12 -8 0 -12 -4 -9 -9z"/>
<path d="M5587 6719 c7 -7 15 -10 18 -7 3 3 -2 9 -12 12 -14 6 -15 5 -6 -5z"/>
<path d="M6240 6720 c-9 -6 -10 -10 -3 -10 6 0 15 5 18 10 8 12 4 12 -15 0z"/>
<path d="M6336 6718 c3 -5 10 -6 15 -3 13 9 11 12 -6 12 -8 0 -12 -4 -9 -9z"/>
<path d="M6446 6718 c3 -5 10 -6 15 -3 13 9 11 12 -6 12 -8 0 -12 -4 -9 -9z"/>
<path d="M6547 6719 c7 -7 15 -10 18 -7 3 3 -2 9 -12 12 -14 6 -15 5 -6 -5z"/>
<path d="M7200 6720 c-9 -6 -10 -10 -3 -10 6 0 15 5 18 10 8 12 4 12 -15 0z"/>
<path d="M7296 6718 c3 -5 10 -6 15 -3 13 9 11 12 -6 12 -8 0 -12 -4 -9 -9z"/>
<path d="M7406 6718 c3 -5 10 -6 15 -3 13 9 11 12 -6 12 -8 0 -12 -4 -9 -9z"/>
<path d="M7507 6719 c7 -7 15 -10 18 -7 3 3 -2 9 -12 12 -14 6 -15 5 -6 -5z"/>
<path d="M8210 6719 c0 -5 5 -7 10 -4 6 3 10 8 10 11 0 2 -4 4 -10 4 -5 0 -10
-5 -10 -11z"/>
<path d="M8846 6718 c3 -5 10 -6 15 -3 13 9 11 12 -6 12 -8 0 -12 -4 -9 -9z"/>
<path d="M9120 6720 c-9 -6 -10 -10 -3 -10 6 0 15 5 18 10 8 12 4 12 -15 0z"/>
<path d="M9216 6718 c3 -5 10 -6 15 -3 13 9 11 12 -6 12 -8 0 -12 -4 -9 -9z"/>
<path d="M9326 6718 c3 -5 10 -6 15 -3 13 9 11 12 -6 12 -8 0 -12 -4 -9 -9z"/>
<path d="M9427 6719 c7 -7 15 -10 18 -7 3 3 -2 9 -12 12 -14 6 -15 5 -6 -5z"/>
<path d="M10080 6720 c-9 -6 -10 -10 -3 -10 6 0 15 5 18 10 8 12 4 12 -15 0z"/>
<path d="M10176 6718 c3 -5 10 -6 15 -3 13 9 11 12 -6 12 -8 0 -12 -4 -9 -9z"/>
<path d="M10226 6718 c3 -5 10 -6 15 -3 13 9 11 12 -6 12 -8 0 -12 -4 -9 -9z"/>
<path d="M2004 6638 l-19 -23 23 19 c21 18 27 26 19 26 -2 0 -12 -10 -23 -22z"/>
<path d="M1965 6640 c-3 -6 1 -7 9 -4 18 7 21 14 7 14 -6 0 -13 -4 -16 -10z"/>
<path d="M2230 6645 c0 -7 30 -13 34 -7 3 4 -4 9 -15 9 -10 1 -19 0 -19 -2z"/>
<path d="M229 6206 c0 -1 -2 -8 -4 -16 -9 -43 -14 -73 -20 -136 -4 -38 -9 -80
-11 -94 -12 -71 -32 -581 -24 -620 2 -8 11 -254 13 -346 1 -45 5 -80 8 -78 12
7 15 -76 4 -88 -7 -8 -6 -9 2 -4 9 5 13 -2 14 -21 1 -35 6 -69 14 -106 4 -22
3 -27 -7 -21 -10 5 -11 4 0 -7 6 -7 12 -23 12 -35 0 -13 5 -26 10 -29 6 -4 8
-10 5 -16 -5 -7 0 -49 20 -148 2 -13 7 -26 9 -29 3 -2 1 -14 -5 -25 -8 -14 -8
-17 0 -13 12 8 26 -37 17 -53 -4 -5 -1 -13 5 -16 5 -4 8 -13 5 -21 -3 -8 0
-14 5 -14 6 0 9 -9 6 -20 -3 -11 -2 -20 3 -20 4 0 7 -8 7 -17 0 -10 4 -28 8
-41 6 -18 10 -20 22 -11 12 10 13 8 9 -16 -3 -15 -2 -24 2 -20 4 3 7 12 7 18
0 5 6 12 13 15 8 2 10 -3 6 -15 -5 -16 -5 -17 6 -1 6 10 17 15 27 11 12 -5 14
-3 8 8 -5 8 2 5 15 -6 13 -11 21 -15 17 -9 -4 7 5 11 24 12 20 0 27 -3 22 -11
-4 -7 0 -6 10 2 9 7 17 10 17 6 0 -4 8 -1 17 6 9 8 14 9 10 3 -9 -15 95 -14
105 1 5 6 8 5 8 -2 0 -14 26 -13 49 1 10 6 12 5 7 -3 -5 -8 0 -10 18 -7 16 3
26 0 26 -7 0 -8 3 -7 9 2 5 8 16 11 25 8 9 -4 16 -1 16 6 0 9 2 9 8 0 8 -13
29 -12 51 1 10 6 12 5 7 -3 -5 -8 0 -10 18 -7 14 2 27 -1 30 -7 3 -9 5 -9 5 1
1 6 13 12 27 12 17 0 23 -4 18 -12 -6 -10 -4 -10 7 -2 8 6 24 10 37 8 17 -3
21 0 16 8 -6 10 -4 10 7 2 8 -6 25 -10 39 -9 14 1 31 -3 39 -9 11 -8 13 -8 7
2 -6 9 0 11 24 7 17 -3 29 -2 27 3 -5 6 37 8 53 2 3 -1 8 -2 13 -1 4 0 7 -5 7
-11 0 -7 5 -5 11 5 7 12 15 15 22 9 7 -5 31 -8 55 -7 30 2 40 0 35 -8 -4 -7 1
-6 10 2 9 7 17 10 17 5 0 -5 5 -2 10 6 8 12 10 12 10 1 0 -11 3 -11 17 0 11
10 14 10 9 1 -5 -9 2 -11 29 -7 26 3 34 1 30 -8 -4 -7 0 -4 8 6 14 16 16 16
31 2 9 -9 16 -12 16 -6 0 6 5 11 11 11 6 0 9 -6 6 -13 -3 -8 1 -14 8 -14 8 0
11 7 7 15 -3 10 -1 13 6 8 7 -4 12 -2 12 6 0 10 2 10 8 1 8 -13 29 -12 51 1
10 6 12 5 7 -3 -5 -8 0 -10 18 -7 16 3 26 0 26 -7 0 -8 3 -7 9 2 5 8 16 11 25
8 9 -4 16 -1 16 6 0 9 2 9 8 0 8 -13 29 -12 51 1 10 7 12 6 6 -4 -5 -8 -3 -11
6 -8 8 3 22 1 33 -4 13 -7 16 -7 12 1 -5 7 4 11 24 11 22 0 29 -4 24 -12 -6
-10 -4 -10 7 -2 8 6 24 10 37 8 17 -3 21 0 16 8 -6 10 -4 10 7 2 8 -6 25 -10
39 -9 14 1 31 -3 39 -9 11 -8 13 -8 7 2 -6 9 0 11 24 7 17 -3 29 -2 27 3 -7 9
34 8 51 -2 7 -4 12 -4 12 1 0 4 5 1 10 -7 6 -10 10 -11 10 -2 0 6 5 12 11 12
5 0 7 -6 3 -12 -5 -9 -2 -9 9 1 9 7 17 10 17 5 0 -5 5 -2 10 6 6 10 10 11 10
3 0 -14 48 -15 65 -2 6 4 17 4 24 0 7 -5 22 -6 34 -3 15 4 18 2 12 -9 -7 -11
-6 -12 6 -3 8 6 24 10 37 8 17 -3 21 0 16 8 -5 9 -2 9 9 -1 9 -7 17 -10 17 -5
0 4 7 -1 15 -12 9 -12 13 -13 10 -4 -4 12 3 16 25 18 23 2 29 -1 24 -10 -6 -9
-3 -9 9 1 9 7 17 10 17 6 0 -4 8 -1 17 6 9 8 14 9 10 2 -5 -8 5 -10 35 -8 24
1 49 -3 57 -9 11 -8 13 -8 7 2 -6 9 0 11 24 7 17 -3 29 -2 27 3 -7 9 34 8 51
-2 7 -4 12 -4 12 1 0 4 5 1 10 -7 6 -10 10 -11 10 -2 0 6 5 12 11 12 5 0 7 -6
3 -12 -5 -9 -2 -9 9 1 9 7 17 10 17 5 0 -5 5 -2 10 6 6 10 10 11 10 3 0 -14
48 -15 65 -2 6 4 17 4 24 0 7 -5 22 -6 34 -3 15 4 18 2 12 -9 -8 -12 -6 -12 8
0 9 7 17 10 17 6 0 -4 8 -1 17 6 9 8 14 9 10 3 -9 -15 95 -14 105 1 5 6 8 5 8
-2 0 -14 26 -13 49 1 10 6 12 5 7 -3 -5 -8 0 -10 18 -7 16 3 26 0 26 -7 0 -8
3 -7 9 2 5 8 16 11 25 8 9 -4 16 -1 16 6 0 9 2 9 8 0 8 -13 29 -12 51 1 10 6
12 5 7 -3 -5 -8 0 -10 18 -7 14 2 27 -1 30 -7 3 -9 5 -9 5 1 1 6 13 12 27 12
17 0 23 -4 18 -12 -6 -10 -4 -10 7 -2 8 6 24 10 37 8 17 -3 21 0 16 8 -6 10
-4 10 7 2 8 -6 25 -10 39 -9 14 1 31 -3 39 -9 11 -8 13 -8 7 2 -6 9 0 11 24 7
17 -3 29 -2 27 3 -5 6 37 8 53 2 3 -1 8 -2 13 -1 4 0 7 -5 7 -12 0 -6 5 -4 11
6 7 12 15 15 22 9 7 -5 31 -8 55 -7 30 2 40 0 35 -8 -4 -7 1 -6 10 2 9 7 17
10 17 5 0 -5 5 -2 10 6 8 12 10 12 10 1 0 -11 3 -11 17 0 11 10 14 10 9 1 -5
-9 2 -11 29 -7 26 3 34 1 30 -8 -4 -7 0 -4 8 6 14 16 16 16 31 2 9 -9 16 -12
16 -6 0 6 5 11 11 11 6 0 9 -6 6 -13 -3 -8 1 -14 8 -14 8 0 11 7 7 15 -3 10
-1 13 6 8 7 -4 12 -2 12 6 0 10 2 10 8 1 8 -13 29 -12 51 1 10 6 12 5 7 -3 -5
-8 0 -10 18 -7 16 3 26 0 26 -7 0 -8 3 -7 9 2 5 8 16 11 25 8 9 -4 16 -1 16 6
0 9 2 9 8 0 8 -13 29 -12 51 1 10 7 12 6 6 -4 -5 -8 -3 -11 6 -8 8 3 22 1 33
-4 13 -7 16 -7 12 1 -5 7 4 11 24 11 22 0 29 -4 24 -12 -6 -10 -4 -10 7 -2 8
6 24 10 37 8 17 -3 21 0 16 8 -6 10 -4 10 7 2 8 -6 25 -10 39 -9 14 1 31 -3
39 -9 11 -8 13 -8 7 2 -6 9 0 11 24 7 17 -3 29 -2 27 3 -7 9 34 8 51 -2 7 -4
12 -4 12 1 0 4 5 1 10 -7 6 -10 10 -11 10 -2 0 6 5 12 11 12 5 0 7 -6 3 -12
-5 -9 -2 -9 9 1 9 7 17 10 17 5 0 -5 5 -2 10 6 6 10 10 11 10 3 0 -14 48 -15
65 -2 6 4 17 4 24 0 7 -5 22 -6 34 -3 15 4 18 2 12 -9 -7 -11 -6 -12 6 -3 8 6
24 10 37 8 17 -3 21 0 16 8 -5 9 -2 9 9 -1 9 -7 17 -10 17 -5 0 4 7 -1 15 -12
11 -14 14 -15 9 -2 -4 13 0 16 20 14 14 -2 26 2 26 8 0 7 3 7 8 -1 8 -13 29
-12 51 1 10 6 12 5 7 -3 -5 -8 0 -10 18 -7 16 3 26 0 26 -7 0 -8 3 -7 9 2 5 8
16 11 25 8 9 -4 16 -1 16 6 0 9 2 9 8 0 8 -13 29 -12 51 1 10 7 12 6 6 -4 -5
-8 -3 -11 6 -8 8 3 22 1 33 -4 13 -7 16 -7 12 1 -5 7 4 11 24 11 22 0 29 -4
24 -12 -5 -9 -2 -9 9 1 9 7 17 10 17 6 0 -4 8 -1 17 6 9 8 14 9 10 2 -5 -8 5
-10 35 -8 24 1 49 -3 57 -9 11 -8 13 -8 7 2 -6 9 0 11 24 7 17 -3 29 -2 27 3
-5 6 37 8 53 2 3 -1 8 -2 13 -1 4 0 7 -5 7 -12 0 -6 5 -4 11 6 6 10 15 14 22
10 18 -12 121 -10 129 2 5 6 8 5 8 -4 0 -11 3 -11 17 0 11 10 14 10 9 1 -5 -9
2 -11 29 -7 26 3 34 1 30 -8 -4 -7 -1 -5 7 4 13 16 43 15 33 -1 -3 -5 -1 -12
5 -15 6 -4 9 -1 8 6 -2 6 3 14 11 17 9 3 12 0 9 -10 -4 -8 0 -15 7 -15 8 0 11
7 7 15 -3 10 -1 13 6 8 7 -4 12 -2 12 6 0 10 2 10 8 1 8 -13 29 -12 51 1 10 6
12 5 7 -3 -5 -8 0 -10 18 -7 16 3 26 0 26 -7 0 -8 3 -7 9 2 5 8 16 11 25 8 9
-4 16 -1 16 6 0 9 2 9 8 0 8 -13 29 -12 51 1 10 7 12 6 6 -4 -5 -8 -3 -11 6
-8 8 3 22 1 33 -4 14 -8 17 -7 11 2 -6 10 -1 12 19 8 15 -3 26 -1 26 6 0 7 3
7 8 -1 8 -13 29 -12 51 1 10 6 12 5 7 -3 -5 -8 0 -10 18 -7 16 3 26 0 26 -7 0
-8 3 -7 9 2 5 8 16 11 25 8 9 -4 16 -1 16 6 0 9 2 9 8 0 8 -13 29 -12 51 1 10
6 12 5 7 -3 -5 -8 0 -10 18 -7 14 2 27 -1 30 -7 3 -9 5 -9 5 1 1 6 13 12 27
12 17 0 23 -4 18 -12 -6 -10 -4 -10 7 -2 8 6 24 10 37 8 17 -3 21 0 16 8 -6
10 -4 10 7 2 8 -6 25 -10 39 -9 14 1 31 -3 39 -9 11 -8 13 -8 7 2 -6 9 0 11
24 7 17 -3 29 -2 27 3 -5 6 37 8 53 2 3 -1 8 -2 13 -1 4 0 7 -5 7 -11 0 -7 5
-5 11 5 6 10 15 14 22 10 18 -12 121 -10 129 2 5 6 8 5 8 -4 0 -11 3 -11 17 0
11 10 14 10 9 1 -5 -9 2 -11 29 -7 26 3 34 1 30 -8 -4 -7 0 -4 7 5 9 10 19 14
28 8 7 -4 20 -6 28 -2 11 4 14 1 10 -10 -4 -8 -1 -15 7 -15 8 0 11 7 7 15 -3
10 -1 13 6 8 7 -4 12 -2 12 6 0 10 2 10 8 1 8 -13 29 -12 51 1 10 6 12 5 7 -3
-5 -8 0 -10 18 -7 16 3 26 0 26 -7 0 -8 3 -7 9 2 5 8 16 11 25 8 9 -4 16 -1
16 6 0 9 2 9 8 0 8 -13 29 -12 51 1 10 6 12 5 7 -3 -5 -8 0 -10 18 -7 14 2 27
-1 30 -7 3 -9 5 -9 5 1 1 6 6 12 12 12 5 0 8 -4 5 -8 -3 -5 1 -9 9 -9 8 0 12
4 9 9 -3 5 9 6 26 3 17 -3 29 -2 27 3 -7 9 34 8 51 -2 7 -4 12 -4 12 1 0 4 5
1 10 -7 8 -12 10 -12 10 -1 0 11 3 11 17 0 9 -8 14 -9 10 -3 -4 7 0 15 9 18
12 4 15 2 11 -9 -4 -8 -2 -17 4 -20 5 -4 8 -1 7 6 -2 6 3 14 11 17 9 3 12 0 9
-10 -4 -8 0 -15 7 -15 7 0 11 6 8 13 -3 9 3 12 21 8 16 -3 26 0 26 8 0 6 7 3
16 -8 8 -10 12 -12 8 -4 -7 13 -6 13 11 0 12 -9 16 -10 11 -2 -6 9 0 11 24 7
17 -3 29 -2 27 3 -5 6 37 8 53 2 3 -1 8 -2 13 -1 4 0 7 -5 7 -11 0 -9 4 -8 11
2 8 12 12 12 16 2 4 -10 9 -9 20 5 13 16 14 16 9 1 -3 -10 -1 -20 5 -23 5 -4
8 -1 7 7 -2 9 9 13 40 11 23 0 42 3 42 9 0 5 5 6 10 3 6 -4 8 -10 6 -14 -3 -3
4 -7 14 -7 10 0 16 4 14 8 -3 5 9 6 26 3 17 -3 29 -2 27 3 -7 9 34 8 51 -2 7
-4 12 -4 12 1 0 4 5 1 10 -7 8 -12 10 -12 10 -1 0 11 3 11 16 1 8 -8 14 -9 12
-4 -2 5 2 10 7 12 6 1 10 -2 10 -7 0 -5 4 -13 8 -18 5 -4 7 -2 5 6 -1 7 3 16
11 19 9 3 12 0 9 -10 -4 -8 0 -15 7 -15 7 0 11 6 8 13 -3 9 2 12 18 9 12 -3
28 0 35 6 8 7 14 6 20 -2 5 -8 3 -10 -7 -4 -8 5 -10 4 -6 0 11 -12 38 -15 31
-4 -3 6 7 7 26 4 17 -3 29 -2 27 3 -5 6 37 8 53 2 3 -1 8 -2 13 -1 4 0 7 -5 7
-11 0 -9 4 -8 11 2 8 12 12 12 16 2 4 -10 9 -9 20 5 13 16 14 16 9 1 -3 -10
-1 -20 5 -23 5 -4 8 -1 7 6 -2 6 3 14 11 17 10 3 11 0 5 -9 -6 -11 -5 -12 7
-3 8 6 24 10 37 8 12 -2 22 1 22 7 0 5 5 7 10 4 6 -4 7 -12 4 -18 -5 -8 -3 -8
7 1 17 16 43 16 33 0 -6 -10 -4 -10 7 -2 8 6 24 10 37 8 17 -3 21 0 16 8 -6
10 -4 10 7 2 8 -6 25 -10 39 -9 14 1 31 -3 39 -9 11 -8 13 -8 7 2 -6 9 0 11
24 7 17 -3 29 -2 27 3 -5 6 37 8 53 2 3 -1 8 -2 13 -1 4 0 7 -4 7 -11 0 -6 7
-3 16 8 15 18 15 18 10 0 -5 -14 -3 -16 6 -9 16 11 98 11 117 -1 9 -6 12 -5 7
2 -3 6 -2 13 4 17 5 3 10 2 10 -3 0 -6 10 -8 22 -4 16 4 19 2 13 -9 -7 -11 -6
-12 6 -3 8 6 24 10 37 8 16 -3 21 0 16 8 -5 7 -3 8 7 2 19 -12 89 -11 89 1 0
6 4 5 8 -2 8 -13 29 -12 51 1 10 6 12 5 7 -3 -5 -8 0 -10 18 -7 16 3 26 0 26
-7 0 -8 3 -7 9 2 5 8 16 11 25 8 9 -4 16 -1 16 6 0 9 2 9 8 0 8 -13 29 -12 51
1 10 7 12 6 6 -4 -5 -8 -3 -11 6 -8 8 3 22 1 33 -4 13 -7 16 -7 12 1 -5 7 4
11 24 11 22 0 29 -4 24 -12 -6 -10 -4 -10 7 -2 8 6 24 10 37 8 17 -3 21 0 16
8 -6 10 -4 10 7 2 8 -6 25 -10 39 -9 14 1 31 -3 39 -9 11 -8 13 -8 7 2 -6 9 0
11 24 7 17 -3 29 -2 27 3 -5 6 37 8 53 2 3 -1 8 -2 13 -1 4 0 7 -5 7 -11 0 -9
4 -8 11 2 8 12 12 12 16 2 4 -10 9 -9 20 5 13 16 14 16 9 1 -3 -10 -1 -20 5
-23 5 -4 8 -1 7 6 -2 6 3 14 11 17 10 3 11 0 5 -9 -6 -11 -5 -12 7 -3 8 6 24
10 37 8 16 -3 21 0 16 8 -4 7 3 4 16 -7 13 -11 20 -15 17 -9 -4 7 0 15 9 18 9
4 13 2 8 -5 -4 -7 -1 -10 7 -7 8 3 22 1 33 -4 13 -7 16 -7 12 1 -5 7 1 11 14
11 12 0 18 4 15 10 -3 6 0 10 7 10 9 0 9 3 -2 10 -9 6 -11 10 -3 10 7 0 10 7
6 17 -5 13 -2 15 12 10 14 -6 15 -5 7 6 -8 9 -8 26 1 61 7 26 15 45 17 42 3
-2 5 10 6 27 2 72 4 88 12 84 4 -3 8 11 9 31 1 21 4 51 7 67 13 68 19 112 20
138 0 15 3 27 6 27 3 0 6 12 6 28 1 15 4 47 8 72 3 25 9 79 12 120 4 41 11 78
18 82 7 5 8 8 0 8 -10 0 -12 56 -3 76 3 5 5 48 4 96 0 49 4 88 8 88 4 0 3 8
-2 19 -6 10 -8 21 -4 24 4 5 8 210 3 227 -1 3 -3 57 -5 120 -3 63 -6 138 -9
165 -8 97 -17 200 -21 225 -2 14 -7 45 -10 70 -4 25 -8 52 -10 60 -2 13 -586
15 -5183 16 -2850 0 -5182 0 -5183 0z"/>
<path d="M1215 4149 c-4 -6 -5 -12 -2 -15 2 -3 7 2 10 11 7 17 1 20 -8 4z"/>
<path d="M2175 4149 c-4 -6 -5 -12 -2 -15 2 -3 7 2 10 11 7 17 1 20 -8 4z"/>
<path d="M2815 4149 c-4 -6 -5 -12 -2 -15 2 -3 7 2 10 11 7 17 1 20 -8 4z"/>
<path d="M3775 4149 c-4 -6 -5 -12 -2 -15 2 -3 7 2 10 11 7 17 1 20 -8 4z"/>
<path d="M4735 4149 c-4 -6 -5 -12 -2 -15 2 -3 7 2 10 11 7 17 1 20 -8 4z"/>
<path d="M5695 4149 c-4 -6 -5 -12 -2 -15 2 -3 7 2 10 11 7 17 1 20 -8 4z"/>
<path d="M6975 4149 c-4 -6 -5 -12 -2 -15 2 -3 7 2 10 11 7 17 1 20 -8 4z"/>
<path d="M7775 4149 c-4 -6 -5 -12 -2 -15 2 -3 7 2 10 11 7 17 1 20 -8 4z"/>
<path d="M8095 4149 c-4 -6 -5 -12 -2 -15 2 -3 7 2 10 11 7 17 1 20 -8 4z"/>
<path d="M8415 4149 c-4 -6 -5 -12 -2 -15 2 -3 7 2 10 11 7 17 1 20 -8 4z"/>
<path d="M8735 4149 c-4 -6 -5 -12 -2 -15 2 -3 7 2 10 11 7 17 1 20 -8 4z"/>
<path d="M9215 4149 c-4 -6 -5 -12 -2 -15 2 -3 7 2 10 11 7 17 1 20 -8 4z"/>
<path d="M10175 4149 c-4 -6 -5 -12 -2 -15 2 -3 7 2 10 11 7 17 1 20 -8 4z"/>
<path d="M1536 4141 c-3 -5 2 -15 12 -22 15 -12 16 -12 5 2 -7 9 -10 19 -6 22
3 4 4 7 0 7 -3 0 -8 -4 -11 -9z"/>
<path d="M4096 4141 c-3 -5 2 -15 12 -22 15 -12 16 -12 5 2 -7 9 -10 19 -6 22
3 4 4 7 0 7 -3 0 -8 -4 -11 -9z"/>
<path d="M7296 4141 c-3 -5 2 -15 12 -22 15 -12 16 -12 5 2 -7 9 -10 19 -6 22
3 4 4 7 0 7 -3 0 -8 -4 -11 -9z"/>
<path d="M310 4136 c0 -2 8 -10 18 -17 15 -13 16 -12 3 4 -13 16 -21 21 -21
13z"/>
<path d="M433 4125 c0 -8 4 -12 9 -9 5 3 6 10 3 15 -9 13 -12 11 -12 -6z"/>
<path d="M696 4127 c3 -10 9 -15 12 -12 3 3 0 11 -7 18 -10 9 -11 8 -5 -6z"/>
<path d="M856 4127 c3 -10 9 -15 12 -12 3 3 0 11 -7 18 -10 9 -11 8 -5 -6z"/>
<path d="M1110 4137 c0 -2 6 -10 14 -16 11 -9 16 -9 22 1 4 7 4 10 -1 6 -4 -4
-14 -3 -22 3 -7 6 -13 9 -13 6z"/>
<path d="M1395 4131 c-3 -5 -2 -12 3 -15 5 -3 9 1 9 9 0 17 -3 19 -12 6z"/>
<path d="M1656 4127 c3 -10 9 -15 12 -12 3 3 0 11 -7 18 -10 9 -11 8 -5 -6z"/>
<path d="M1816 4127 c3 -10 9 -15 12 -12 3 3 0 11 -7 18 -10 9 -11 8 -5 -6z"/>
<path d="M2070 4137 c0 -2 6 -10 14 -16 11 -9 16 -9 22 1 4 7 4 10 -1 6 -4 -4
-14 -3 -22 3 -7 6 -13 9 -13 6z"/>
<path d="M2353 4125 c0 -8 4 -12 9 -9 5 3 6 10 3 15 -9 13 -12 11 -12 -6z"/>
<path d="M2710 4137 c0 -2 6 -10 14 -16 11 -9 16 -9 22 1 4 7 4 10 -1 6 -4 -4
-14 -3 -22 3 -7 6 -13 9 -13 6z"/>
<path d="M2993 4125 c0 -8 4 -12 9 -9 5 3 6 10 3 15 -9 13 -12 11 -12 -6z"/>
<path d="M3256 4127 c3 -10 9 -15 12 -12 3 3 0 11 -7 18 -10 9 -11 8 -5 -6z"/>
<path d="M3416 4127 c3 -10 9 -15 12 -12 3 3 0 11 -7 18 -10 9 -11 8 -5 -6z"/>
<path d="M3670 4137 c0 -2 6 -10 14 -16 11 -9 16 -9 22 1 4 7 4 10 -1 6 -4 -4
-14 -3 -22 3 -7 6 -13 9 -13 6z"/>
<path d="M3955 4131 c-3 -5 -2 -12 3 -15 5 -3 9 1 9 9 0 17 -3 19 -12 6z"/>
<path d="M4216 4127 c3 -10 9 -15 12 -12 3 3 0 11 -7 18 -10 9 -11 8 -5 -6z"/>
<path d="M4376 4127 c3 -10 9 -15 12 -12 3 3 0 11 -7 18 -10 9 -11 8 -5 -6z"/>
<path d="M4630 4137 c0 -2 6 -10 14 -16 11 -9 16 -9 22 1 4 7 4 10 -1 6 -4 -4
-14 -3 -22 3 -7 6 -13 9 -13 6z"/>
<path d="M4913 4125 c0 -8 4 -12 9 -9 5 3 6 10 3 15 -9 13 -12 11 -12 -6z"/>
<path d="M5176 4127 c3 -10 9 -15 12 -12 3 3 0 11 -7 18 -10 9 -11 8 -5 -6z"/>
<path d="M5336 4127 c3 -10 9 -15 12 -12 3 3 0 11 -7 18 -10 9 -11 8 -5 -6z"/>
<path d="M5603 4124 c9 -11 15 -24 12 -27 -3 -4 -2 -5 2 -2 4 3 8 13 9 21 1 9
0 13 -3 10 -4 -3 -13 0 -22 6 -12 10 -12 7 2 -8z"/>
<path d="M5875 4131 c-3 -5 -2 -12 3 -15 5 -3 9 1 9 9 0 17 -3 19 -12 6z"/>
<path d="M6010 4136 c0 -2 8 -10 18 -17 15 -13 16 -12 3 4 -13 16 -21 21 -21
13z"/>
<path d="M6136 4127 c3 -10 9 -15 12 -12 3 3 0 11 -7 18 -10 9 -11 8 -5 -6z"/>
<path d="M6296 4127 c3 -10 9 -15 12 -12 3 3 0 11 -7 18 -10 9 -11 8 -5 -6z"/>
<path d="M6456 4127 c3 -10 9 -15 12 -12 3 3 0 11 -7 18 -10 9 -11 8 -5 -6z"/>
<path d="M6616 4127 c3 -10 9 -15 12 -12 3 3 0 11 -7 18 -10 9 -11 8 -5 -6z"/>
<path d="M6870 4137 c0 -2 6 -10 14 -16 11 -9 16 -9 22 1 4 7 4 10 -1 6 -4 -4
-14 -3 -22 3 -7 6 -13 9 -13 6z"/>
<path d="M7155 4131 c-3 -5 -2 -12 3 -15 5 -3 9 1 9 9 0 17 -3 19 -12 6z"/>
<path d="M7416 4127 c3 -10 9 -15 12 -12 3 3 0 11 -7 18 -10 9 -11 8 -5 -6z"/>
<path d="M7576 4127 c3 -10 9 -15 12 -12 3 3 0 11 -7 18 -10 9 -11 8 -5 -6z"/>
<path d="M8955 4130 c-4 -6 -10 -8 -14 -6 -4 3 -8 -1 -8 -9 0 -10 4 -12 12 -5
7 5 14 8 17 5 2 -3 5 2 5 10 0 18 -3 19 -12 5z"/>
<path d="M9110 4137 c0 -2 6 -10 14 -16 11 -9 16 -9 22 1 4 7 4 10 -1 6 -4 -4
-14 -3 -22 3 -7 6 -13 9 -13 6z"/>
<path d="M9656 4127 c3 -10 9 -15 12 -12 3 3 0 11 -7 18 -10 9 -11 8 -5 -6z"/>
<path d="M9816 4127 c3 -10 9 -15 12 -12 3 3 0 11 -7 18 -10 9 -11 8 -5 -6z"/>
<path d="M10070 4137 c0 -2 6 -10 14 -16 11 -9 16 -9 22 1 4 7 4 10 -1 6 -4
-4 -14 -3 -22 3 -7 6 -13 9 -13 6z"/>
<path d="M456 4113 c-6 -14 -5 -15 5 -6 7 7 10 15 7 18 -3 3 -9 -2 -12 -12z"/>
<path d="M496 4122 c-3 -5 1 -9 9 -9 8 0 12 4 9 9 -3 4 -7 8 -9 8 -2 0 -6 -4
-9 -8z"/>
<path d="M976 4122 c-3 -5 1 -9 9 -9 8 0 12 4 9 9 -3 4 -7 8 -9 8 -2 0 -6 -4
-9 -8z"/>
<path d="M1370 4121 c0 -6 4 -13 10 -16 6 -3 7 1 4 9 -7 18 -14 21 -14 7z"/>
<path d="M1470 4125 c0 -7 30 -13 34 -7 3 4 -4 9 -15 9 -10 1 -19 0 -19 -2z"/>
<path d="M1896 4122 c-3 -5 1 -9 9 -9 8 0 12 4 9 9 -3 4 -7 8 -9 8 -2 0 -6 -4
-9 -8z"/>
<path d="M1936 4122 c-3 -5 1 -9 9 -9 8 0 12 4 9 9 -3 4 -7 8 -9 8 -2 0 -6 -4
-9 -8z"/>
<path d="M2255 4120 c5 -8 42 -6 50 1 2 3 -8 5 -25 5 -16 0 -27 -3 -25 -6z"/>
<path d="M2376 4113 c-6 -14 -5 -15 5 -6 7 7 10 15 7 18 -3 3 -9 -2 -12 -12z"/>
<path d="M2416 4122 c-3 -5 1 -9 9 -9 8 0 12 4 9 9 -3 4 -7 8 -9 8 -2 0 -6 -4
-9 -8z"/>
<path d="M2895 4120 c5 -8 42 -6 50 1 2 3 -8 5 -25 5 -16 0 -27 -3 -25 -6z"/>
<path d="M3016 4113 c-6 -14 -5 -15 5 -6 7 7 10 15 7 18 -3 3 -9 -2 -12 -12z"/>
<path d="M3056 4122 c-3 -5 1 -9 9 -9 8 0 12 4 9 9 -3 4 -7 8 -9 8 -2 0 -6 -4
-9 -8z"/>
<path d="M3536 4122 c-3 -5 1 -9 9 -9 8 0 12 4 9 9 -3 4 -7 8 -9 8 -2 0 -6 -4
-9 -8z"/>
<path d="M3930 4121 c0 -6 4 -13 10 -16 6 -3 7 1 4 9 -7 18 -14 21 -14 7z"/>
<path d="M4030 4125 c0 -7 30 -13 34 -7 3 4 -4 9 -15 9 -10 1 -19 0 -19 -2z"/>
<path d="M4456 4122 c-3 -5 1 -9 9 -9 8 0 12 4 9 9 -3 4 -7 8 -9 8 -2 0 -6 -4
-9 -8z"/>
<path d="M4496 4122 c-3 -5 1 -9 9 -9 8 0 12 4 9 9 -3 4 -7 8 -9 8 -2 0 -6 -4
-9 -8z"/>
<path d="M4815 4120 c5 -8 42 -6 50 1 2 3 -8 5 -25 5 -16 0 -27 -3 -25 -6z"/>
<path d="M4936 4113 c-6 -14 -5 -15 5 -6 7 7 10 15 7 18 -3 3 -9 -2 -12 -12z"/>
<path d="M4976 4122 c-3 -5 1 -9 9 -9 8 0 12 4 9 9 -3 4 -7 8 -9 8 -2 0 -6 -4
-9 -8z"/>
<path d="M5416 4122 c-3 -4 4 -9 15 -9 23 -2 25 3 4 10 -8 4 -16 3 -19 -1z"/>
<path d="M5806 4122 c-3 -5 1 -9 9 -9 8 0 12 4 9 9 -3 4 -7 8 -9 8 -2 0 -6 -4
-9 -8z"/>
<path d="M5850 4121 c0 -6 4 -13 10 -16 6 -3 7 1 4 9 -7 18 -14 21 -14 7z"/>
<path d="M5935 4120 c5 -8 42 -6 50 1 2 3 -8 5 -25 5 -16 0 -27 -3 -25 -6z"/>
<path d="M6376 4122 c-3 -5 1 -9 9 -9 8 0 12 4 9 9 -3 4 -7 8 -9 8 -2 0 -6 -4
-9 -8z"/>
<path d="M6696 4122 c-3 -5 1 -9 9 -9 8 0 12 4 9 9 -3 4 -7 8 -9 8 -2 0 -6 -4
-9 -8z"/>
<path d="M6736 4122 c-3 -5 1 -9 9 -9 8 0 12 4 9 9 -3 4 -7 8 -9 8 -2 0 -6 -4
-9 -8z"/>
<path d="M7086 4122 c-3 -5 1 -9 9 -9 8 0 12 4 9 9 -3 4 -7 8 -9 8 -2 0 -6 -4
-9 -8z"/>
<path d="M7130 4121 c0 -6 4 -13 10 -16 6 -3 7 1 4 9 -7 18 -14 21 -14 7z"/>
<path d="M7215 4120 c5 -8 42 -6 50 1 2 3 -8 5 -25 5 -16 0 -27 -3 -25 -6z"/>
<path d="M7856 4122 c-3 -5 1 -9 9 -9 8 0 12 4 9 9 -3 4 -7 8 -9 8 -2 0 -6 -4
-9 -8z"/>
<path d="M7976 4118 c3 -4 11 -5 19 -1 21 7 19 12 -4 10 -11 0 -18 -5 -15 -9z"/>
<path d="M8293 4113 c0 -9 4 -10 13 -2 7 6 18 8 23 5 5 -4 12 -3 15 2 3 5 -8
8 -23 8 -16 0 -28 -5 -28 -13z"/>
<path d="M8496 4122 c-3 -5 1 -9 9 -9 8 0 12 4 9 9 -3 4 -7 8 -9 8 -2 0 -6 -4
-9 -8z"/>
<path d="M8616 4118 c3 -4 11 -5 19 -1 21 7 19 12 -4 10 -11 0 -18 -5 -15 -9z"/>
<path d="M9306 4121 c-3 -4 4 -7 14 -6 27 2 33 10 10 12 -11 1 -22 -2 -24 -6z"/>
<path d="M9456 4122 c-3 -5 1 -9 9 -9 8 0 12 4 9 9 -3 4 -7 8 -9 8 -2 0 -6 -4
-9 -8z"/>
<path d="M10376 4118 c3 -5 10 -6 15 -3 13 9 11 12 -6 12 -8 0 -12 -4 -9 -9z"/>
<path d="M10433 4115 c0 -8 4 -12 9 -9 5 3 6 10 3 15 -9 13 -12 11 -12 -6z"/>
<path d="M10470 4116 c7 -7 13 -7 20 0 6 6 3 10 -10 10 -13 0 -16 -4 -10 -10z"/>
<path d="M10315 4111 c-3 -5 -2 -12 3 -15 5 -3 9 1 9 9 0 17 -3 19 -12 6z"/>
<path d="M1227 4099 c7 -7 15 -10 18 -7 3 3 -2 9 -12 12 -14 6 -15 5 -6 -5z"/>
<path d="M2187 4099 c7 -7 15 -10 18 -7 3 3 -2 9 -12 12 -14 6 -15 5 -6 -5z"/>
<path d="M2827 4099 c7 -7 15 -10 18 -7 3 3 -2 9 -12 12 -14 6 -15 5 -6 -5z"/>
<path d="M3787 4099 c7 -7 15 -10 18 -7 3 3 -2 9 -12 12 -14 6 -15 5 -6 -5z"/>
<path d="M4747 4099 c7 -7 15 -10 18 -7 3 3 -2 9 -12 12 -14 6 -15 5 -6 -5z"/>
<path d="M5707 4099 c7 -7 15 -10 18 -7 3 3 -2 9 -12 12 -14 6 -15 5 -6 -5z"/>
<path d="M6987 4099 c7 -7 15 -10 18 -7 3 3 -2 9 -12 12 -14 6 -15 5 -6 -5z"/>
<path d="M7787 4099 c7 -7 15 -10 18 -7 3 3 -2 9 -12 12 -14 6 -15 5 -6 -5z"/>
<path d="M7880 4100 c-9 -6 -10 -10 -3 -10 6 0 15 5 18 10 8 12 4 12 -15 0z"/>
<path d="M8107 4099 c7 -7 15 -10 18 -7 3 3 -2 9 -12 12 -14 6 -15 5 -6 -5z"/>
<path d="M8200 4100 c-9 -6 -10 -10 -3 -10 6 0 15 5 18 10 8 12 4 12 -15 0z"/>
<path d="M8427 4099 c7 -7 15 -10 18 -7 3 3 -2 9 -12 12 -14 6 -15 5 -6 -5z"/>
<path d="M8520 4100 c-9 -6 -10 -10 -3 -10 6 0 15 5 18 10 8 12 4 12 -15 0z"/>
<path d="M8747 4099 c7 -7 15 -10 18 -7 3 3 -2 9 -12 12 -14 6 -15 5 -6 -5z"/>
<path d="M9227 4099 c7 -7 15 -10 18 -7 3 3 -2 9 -12 12 -14 6 -15 5 -6 -5z"/>
<path d="M10187 4099 c7 -7 15 -10 18 -7 3 3 -2 9 -12 12 -14 6 -15 5 -6 -5z"/>
<path d="M835 4081 c-3 -5 -2 -12 3 -15 5 -3 9 1 9 9 0 17 -3 19 -12 6z"/>
<path d="M1026 4078 c3 -5 10 -6 15 -3 13 9 11 12 -6 12 -8 0 -12 -4 -9 -9z"/>
<path d="M1635 4081 c-3 -5 -2 -12 3 -15 5 -3 9 1 9 9 0 17 -3 19 -12 6z"/>
<path d="M1795 4081 c-3 -5 -2 -12 3 -15 5 -3 9 1 9 9 0 17 -3 19 -12 6z"/>
<path d="M2570 4086 c0 -2 7 -7 16 -10 8 -3 12 -2 9 4 -6 10 -25 14 -25 6z"/>
<path d="M3395 4081 c-3 -5 -2 -12 3 -15 5 -3 9 1 9 9 0 17 -3 19 -12 6z"/>
<path d="M3586 4078 c3 -5 10 -6 15 -3 13 9 11 12 -6 12 -8 0 -12 -4 -9 -9z"/>
<path d="M4195 4081 c-3 -5 -2 -12 3 -15 5 -3 9 1 9 9 0 17 -3 19 -12 6z"/>
<path d="M4355 4081 c-3 -5 -2 -12 3 -15 5 -3 9 1 9 9 0 17 -3 19 -12 6z"/>
<path d="M5315 4081 c-3 -5 -2 -12 3 -15 5 -3 9 1 9 9 0 17 -3 19 -12 6z"/>
<path d="M5450 4086 c0 -2 7 -7 16 -10 8 -3 12 -2 9 4 -6 10 -25 14 -25 6z"/>
<path d="M5506 4078 c3 -5 10 -6 15 -3 13 9 11 12 -6 12 -8 0 -12 -4 -9 -9z"/>
<path d="M6115 4081 c-3 -5 -2 -12 3 -15 5 -3 9 1 9 9 0 17 -3 19 -12 6z"/>
<path d="M6275 4081 c-3 -5 -2 -12 3 -15 5 -3 9 1 9 9 0 17 -3 19 -12 6z"/>
<path d="M6435 4081 c-3 -5 -2 -12 3 -15 5 -3 9 1 9 9 0 17 -3 19 -12 6z"/>
<path d="M6595 4081 c-3 -5 -2 -12 3 -15 5 -3 9 1 9 9 0 17 -3 19 -12 6z"/>
<path d="M6786 4078 c3 -5 10 -6 15 -3 13 9 11 12 -6 12 -8 0 -12 -4 -9 -9z"/>
<path d="M7395 4081 c-3 -5 -2 -12 3 -15 5 -3 9 1 9 9 0 17 -3 19 -12 6z"/>
<path d="M7555 4081 c-3 -5 -2 -12 3 -15 5 -3 9 1 9 9 0 17 -3 19 -12 6z"/>
<path d="M8970 4086 c0 -2 7 -7 16 -10 8 -3 12 -2 9 4 -6 10 -25 14 -25 6z"/>
<path d="M9635 4081 c-3 -5 -2 -12 3 -15 5 -3 9 1 9 9 0 17 -3 19 -12 6z"/>
<path d="M9795 4081 c-3 -5 -2 -12 3 -15 5 -3 9 1 9 9 0 17 -3 19 -12 6z"/>
<path d="M9986 4078 c3 -5 10 -6 15 -3 13 9 11 12 -6 12 -8 0 -12 -4 -9 -9z"/>
<path d="M1855 3660 c-2 -3 -4 -106 -4 -228 l-1 -222 33 -1 c17 -1 43 -1 57
-1 13 1 28 -4 32 -11 6 -9 8 -9 8 1 0 6 6 12 14 12 8 0 17 -6 19 -12 4 -10 6
-10 6 0 1 6 6 12 12 12 5 0 8 -4 4 -9 -3 -5 -1 -13 5 -16 6 -4 9 -1 8 6 -2 8
12 13 40 15 23 2 40 -1 38 -5 -3 -4 1 -8 9 -8 8 0 12 4 9 9 -3 4 4 8 16 8 12
0 18 -4 15 -10 -3 -5 -2 -10 4 -10 5 0 11 6 14 13 3 8 10 6 21 -8 11 -14 14
-15 10 -4 -4 12 1 17 21 17 22 0 24 -3 13 -17 -12 -15 -11 -15 7 0 11 9 27 18
36 21 11 5 15 17 12 48 -2 26 1 39 7 35 5 -3 10 -1 10 5 0 13 32 9 43 -5 4 -7
10 -6 15 0 4 7 66 11 167 10 153 -1 160 -1 158 -20 -2 -18 -1 -17 9 2 11 22
30 25 56 10 7 -5 12 -4 12 2 0 12 27 10 48 -2 7 -5 12 -4 12 2 0 12 27 10 48
-2 7 -5 12 -4 12 2 0 12 27 10 48 -2 7 -5 12 -3 12 3 0 15 32 8 48 -10 11 -13
12 -13 10 0 -3 12 15 15 97 15 55 1 106 -3 113 -8 8 -6 12 -5 12 3 0 6 6 10
13 7 6 -2 11 -10 9 -16 -1 -7 2 -10 8 -6 6 3 7 11 4 17 -4 6 3 5 16 -2 15 -8
20 -8 16 -1 -4 6 -2 11 3 11 6 0 11 -4 11 -10 0 -5 5 -10 11 -10 5 0 8 4 5 8
-6 11 34 9 52 -1 7 -5 12 -4 12 2 0 12 27 10 48 -2 7 -5 12 -3 12 3 0 13 32 9
42 -5 5 -7 8 -6 8 0 0 7 30 10 75 10 42 0 75 -5 75 -10 0 -6 -10 -9 -21 -9
-22 2 -17 -9 6 -12 8 -1 21 6 28 16 13 19 31 21 55 7 7 -5 12 -4 12 2 0 12 27
10 48 -2 7 -5 12 -4 12 2 0 12 27 10 48 -2 7 -5 12 -4 12 2 0 12 27 10 48 -2
7 -5 12 -3 12 3 0 15 32 8 48 -10 11 -13 12 -13 10 0 -3 12 14 15 97 15 57 0
103 -4 108 -10 4 -6 10 -5 16 4 10 16 35 5 25 -11 -4 -7 -2 -8 5 -4 6 4 8 12
5 18 -4 6 3 5 16 -2 15 -8 20 -8 16 -1 -4 6 -2 11 3 11 6 0 11 -4 11 -10 0 -5
5 -10 11 -10 5 0 8 4 5 8 -6 11 34 9 52 -1 7 -5 12 -4 12 2 0 12 27 10 48 -2
7 -5 12 -3 12 3 0 13 32 9 42 -5 5 -7 8 -6 8 0 0 7 31 10 78 10 47 0 75 -4 72
-10 -3 -6 -13 -9 -23 -9 -21 2 -14 -9 8 -12 8 -1 21 6 28 16 13 19 31 21 55 7
7 -5 12 -4 12 2 0 12 27 10 48 -2 7 -5 12 -4 12 2 0 12 27 10 48 -2 7 -5 12
-4 12 2 0 12 27 10 48 -2 7 -5 12 -3 12 3 0 15 32 8 48 -10 11 -13 12 -13 10
0 -3 12 12 15 80 15 49 0 81 -4 80 -10 -2 -6 -11 -9 -21 -9 -21 2 -14 -9 8
-12 8 -1 21 6 28 16 13 19 31 21 55 7 7 -5 12 -4 12 2 0 12 27 10 48 -2 6 -5
12 -4 12 2 0 5 9 9 20 8 18 -1 24 -10 21 -29 0 -5 4 -8 9 -8 6 0 10 8 8 18 -4
24 34 23 50 -3 13 -20 13 -20 7 1 -5 18 -1 21 27 20 18 -1 36 -5 41 -11 4 -6
10 -6 15 2 8 13 29 13 50 0 7 -5 12 -4 12 2 0 12 27 10 48 -2 6 -5 12 -4 12 2
0 5 9 9 20 8 18 -1 24 -10 21 -29 0 -5 4 -8 9 -8 6 0 10 8 8 18 -4 24 34 23
50 -3 13 -20 13 -20 7 1 -5 18 -1 21 27 20 18 -1 36 -5 41 -11 4 -6 10 -6 15
2 8 13 29 13 50 0 7 -5 12 -3 12 3 0 13 32 9 43 -5 4 -7 10 -7 15 0 13 18 93
11 108 -10 8 -10 14 -14 14 -9 0 6 -5 15 -11 21 -9 9 -2 11 27 10 22 -1 42 -6
47 -12 4 -6 10 -6 15 2 8 13 29 13 50 0 7 -5 12 -4 12 2 0 12 27 10 48 -2 6
-5 12 -4 12 1 0 4 21 8 46 7 33 -1 51 -7 60 -20 8 -10 14 -14 14 -9 0 6 -5 15
-11 21 -9 9 -2 11 27 10 22 -1 42 -6 47 -12 4 -6 10 -6 15 2 8 13 29 13 50 0
7 -5 12 -4 12 2 0 12 27 10 48 -2 6 -5 12 -4 12 1 0 4 21 8 46 7 33 -1 51 -7
60 -20 8 -10 14 -14 14 -9 0 6 -5 15 -11 21 -9 9 -2 11 27 10 22 -1 42 -6 47
-12 4 -6 10 -6 15 2 8 13 29 13 50 0 7 -5 12 -4 12 2 0 12 27 10 48 -2 6 -5
12 -4 12 1 0 4 21 8 46 7 33 -1 51 -7 60 -20 8 -10 14 -14 14 -9 0 6 -5 15
-11 21 -9 9 -2 11 27 10 22 -1 42 -6 47 -12 4 -6 10 -6 15 2 8 13 29 13 50 0
7 -5 12 -3 12 3 0 13 32 9 43 -5 4 -6 10 -5 15 3 10 14 33 13 45 -3 4 -6 10
-5 15 3 12 17 34 12 50 -13 13 -20 13 -20 7 1 -5 18 -1 21 27 20 18 -1 36 -5
41 -11 4 -6 10 -6 15 2 8 13 29 13 50 0 7 -5 12 -4 12 2 0 12 27 10 48 -2 6
-5 12 -4 12 1 0 4 21 8 46 7 33 -1 51 -7 60 -20 8 -10 14 -14 14 -9 0 6 -5 15
-11 21 -9 9 -2 11 27 10 22 -1 42 -6 46 -12 5 -6 8 -6 8 2 0 12 17 12 38 0 7
-5 12 -3 12 3 0 7 6 10 13 7 6 -2 11 -10 9 -16 -1 -7 2 -10 8 -6 6 3 7 11 4
17 -4 6 3 5 16 -2 15 -8 20 -8 16 -1 -4 6 -2 11 3 11 6 0 11 -4 11 -10 0 -5 5
-10 11 -10 5 0 8 4 5 8 -6 11 34 9 52 -1 7 -5 12 -4 12 2 0 12 27 10 48 -2 7
-5 12 -3 12 3 0 13 32 9 42 -5 5 -7 8 -6 8 0 0 7 31 10 78 10 70 -1 77 -2 75
-20 -2 -18 -1 -17 9 2 11 22 30 25 56 10 7 -5 12 -4 12 2 0 12 27 10 48 -2 7
-5 12 -4 12 2 0 12 27 10 48 -2 7 -5 12 -3 12 3 0 13 32 9 43 -5 4 -6 10 -5
15 3 11 16 32 12 50 -8 11 -13 12 -13 10 0 -3 12 14 15 97 15 57 0 103 -4 108
-10 4 -6 10 -5 16 4 10 16 35 5 25 -11 -4 -7 -2 -8 5 -4 6 4 8 12 5 18 -4 6 3
5 16 -2 15 -8 20 -8 16 -1 -4 6 -2 11 3 11 6 0 11 -4 11 -10 0 -5 5 -10 11
-10 5 0 8 4 5 9 -8 12 37 8 47 -4 4 -6 10 -6 15 2 8 13 29 13 50 0 7 -5 12 -3
12 3 0 13 32 9 42 -5 5 -7 8 -6 8 0 0 7 31 10 78 10 70 -1 77 -2 75 -20 -2
-18 -1 -17 9 2 11 22 30 25 56 10 7 -5 12 -3 12 3 0 13 32 9 43 -5 4 -6 10 -6
15 2 8 13 29 13 50 0 7 -5 12 -4 12 2 0 12 27 10 48 -2 7 -5 12 -3 12 3 0 15
32 8 48 -10 11 -13 12 -13 10 0 -3 12 14 15 97 15 57 0 103 -4 108 -10 4 -6
10 -5 16 4 10 16 35 5 25 -11 -4 -7 -2 -8 5 -4 6 4 8 12 5 18 -4 6 3 5 16 -2
15 -8 20 -8 16 -1 -4 6 -2 11 3 11 6 0 11 -4 11 -10 0 -5 5 -10 11 -10 5 0 8
4 5 8 -6 11 34 9 52 -1 7 -5 12 -4 12 2 0 12 27 10 48 -2 6 -5 12 -4 12 2 0 5
9 9 20 8 11 -1 20 -6 20 -12 0 -7 3 -7 8 0 8 12 232 14 232 2 0 -4 8 -4 18 1
9 5 23 7 31 4 8 -2 11 0 8 5 -8 12 23 94 32 88 4 -2 8 8 9 22 1 13 8 39 16 56
19 42 30 81 25 87 -2 3 -1793 6 -3979 7 -2186 0 -3980 2 -3987 2 -7 1 -13 21
-15 48 l-3 48 -223 0 c-123 0 -225 -2 -227 -5z"/>
<path d="M2755 3291 c-3 -5 -2 -12 3 -15 5 -3 9 1 9 9 0 17 -3 19 -12 6z"/>
<path d="M2869 3283 c-13 -16 -12 -17 4 -4 9 7 17 15 17 17 0 8 -8 3 -21 -13z"/>
<path d="M2937 3293 c-10 -9 -9 -23 1 -23 5 0 9 7 9 15 0 17 -1 18 -10 8z"/>
<path d="M3379 3298 c-5 -18 -6 -38 -1 -34 7 8 12 36 6 36 -2 0 -4 -1 -5 -2z"/>
<path d="M3426 3285 c-11 -8 -15 -15 -9 -15 6 0 16 7 23 15 16 19 11 19 -14 0z"/>
<path d="M3715 3291 c-3 -5 -2 -12 3 -15 5 -3 9 1 9 9 0 17 -3 19 -12 6z"/>
<path d="M3829 3283 c-13 -16 -12 -17 4 -4 9 7 17 15 17 17 0 8 -8 3 -21 -13z"/>
<path d="M3897 3293 c-10 -9 -9 -23 1 -23 5 0 9 7 9 15 0 17 -1 18 -10 8z"/>
<path d="M4339 3298 c-5 -18 -6 -38 -1 -34 7 8 12 36 6 36 -2 0 -4 -1 -5 -2z"/>
<path d="M4386 3285 c-11 -8 -15 -15 -9 -15 6 0 16 7 23 15 16 19 11 19 -14 0z"/>
<path d="M4675 3291 c-3 -5 -2 -12 3 -15 5 -3 9 1 9 9 0 17 -3 19 -12 6z"/>
<path d="M4789 3283 c-13 -16 -12 -17 4 -4 9 7 17 15 17 17 0 8 -8 3 -21 -13z"/>
<path d="M4857 3293 c-10 -9 -9 -23 1 -23 5 0 9 7 9 15 0 17 -1 18 -10 8z"/>
<path d="M5159 3298 c-6 -20 -6 -39 0 -42 4 -3 7 6 7 20 0 20 -4 32 -7 22z"/>
<path d="M5209 3283 c-13 -16 -12 -17 4 -4 9 7 17 15 17 17 0 8 -8 3 -21 -13z"/>
<path d="M5479 3298 c-6 -20 -6 -39 0 -42 4 -3 7 6 7 20 0 20 -4 32 -7 22z"/>
<path d="M5535 3289 c-4 -6 -5 -12 -2 -15 2 -3 7 2 10 11 7 17 1 20 -8 4z"/>
<path d="M5799 3298 c-6 -20 -6 -39 0 -42 4 -3 7 6 7 20 0 20 -4 32 -7 22z"/>
<path d="M6119 3298 c-6 -20 -6 -39 0 -42 4 -3 7 6 7 20 0 20 -4 32 -7 22z"/>
<path d="M6175 3289 c-4 -6 -5 -12 -2 -15 2 -3 7 2 10 11 7 17 1 20 -8 4z"/>
<path d="M6439 3298 c-6 -20 -6 -39 0 -42 4 -3 7 6 7 20 0 20 -4 32 -7 22z"/>
<path d="M6495 3289 c-4 -6 -5 -12 -2 -15 2 -3 7 2 10 11 7 17 1 20 -8 4z"/>
<path d="M6759 3298 c-6 -20 -6 -39 0 -42 4 -3 7 6 7 20 0 20 -4 32 -7 22z"/>
<path d="M6815 3289 c-4 -6 -5 -12 -2 -15 2 -3 7 2 10 11 7 17 1 20 -8 4z"/>
<path d="M7079 3298 c-6 -20 -6 -39 0 -42 4 -3 7 6 7 20 0 20 -4 32 -7 22z"/>
<path d="M7399 3298 c-6 -20 -6 -39 0 -42 4 -3 7 6 7 20 0 20 -4 32 -7 22z"/>
<path d="M7449 3283 c-13 -16 -12 -17 4 -4 16 13 21 21 13 21 -2 0 -10 -8 -17
-17z"/>
<path d="M7859 3298 c-5 -18 -6 -38 -1 -34 7 8 12 36 6 36 -2 0 -4 -1 -5 -2z"/>
<path d="M7906 3285 c-11 -8 -15 -15 -9 -15 6 0 16 7 23 15 16 19 11 19 -14 0z"/>
<path d="M8195 3291 c-3 -5 -2 -12 3 -15 5 -3 9 1 9 9 0 17 -3 19 -12 6z"/>
<path d="M8309 3283 c-13 -16 -12 -17 4 -4 16 13 21 21 13 21 -2 0 -10 -8 -17
-17z"/>
<path d="M8866 3285 c-11 -8 -15 -15 -9 -15 6 0 16 7 23 15 16 19 11 19 -14 0z"/>
<path d="M9155 3291 c-3 -5 -2 -12 3 -15 5 -3 9 1 9 9 0 17 -3 19 -12 6z"/>
<path d="M9275 3289 c-4 -6 -5 -12 -2 -15 2 -3 7 2 10 11 7 17 1 20 -8 4z"/>
<path d="M9337 3293 c-10 -9 -9 -23 1 -23 5 0 9 7 9 15 0 17 -1 18 -10 8z"/>
<path d="M9826 3285 c-11 -8 -15 -15 -9 -15 6 0 16 7 23 15 16 19 11 19 -14 0z"/>
<path d="M2346 3282 c-3 -5 1 -9 9 -9 8 0 12 4 9 9 -3 4 -7 8 -9 8 -2 0 -6 -4
-9 -8z"/>
<path d="M2436 3278 c3 -5 10 -6 15 -3 13 9 11 12 -6 12 -8 0 -12 -4 -9 -9z"/>
<path d="M2516 3279 c4 -8 30 -6 38 2 3 3 -5 5 -19 5 -13 0 -22 -3 -19 -7z"/>
<path d="M2596 3278 c3 -5 10 -6 15 -3 13 9 11 12 -6 12 -8 0 -12 -4 -9 -9z"/>
<path d="M2676 3278 c3 -5 10 -6 15 -3 13 9 11 12 -6 12 -8 0 -12 -4 -9 -9z"/>
<path d="M3076 3278 c3 -5 10 -6 15 -3 13 9 11 12 -6 12 -8 0 -12 -4 -9 -9z"/>
<path d="M3156 3279 c4 -8 30 -6 38 2 3 3 -5 5 -19 5 -13 0 -22 -3 -19 -7z"/>
<path d="M3556 3279 c4 -8 30 -6 38 2 3 3 -5 5 -19 5 -13 0 -22 -3 -19 -7z"/>
<path d="M4036 3278 c3 -5 10 -6 15 -3 13 9 11 12 -6 12 -8 0 -12 -4 -9 -9z"/>
<path d="M4116 3278 c3 -5 10 -6 15 -3 13 9 11 12 -6 12 -8 0 -12 -4 -9 -9z"/>
<path d="M4516 3279 c4 -8 30 -6 38 2 3 3 -5 5 -19 5 -13 0 -22 -3 -19 -7z"/>
<path d="M4996 3278 c3 -5 10 -6 15 -3 13 9 11 12 -6 12 -8 0 -12 -4 -9 -9z"/>
<path d="M5330 3281 c0 -6 4 -13 10 -16 6 -3 7 1 4 9 -7 18 -14 21 -14 7z"/>
<path d="M5390 3275 c5 -7 6 -16 2 -21 -4 -5 -3 -5 2 -1 15 12 15 34 0 34 -9
0 -11 -4 -4 -12z"/>
<path d="M5650 3281 c0 -6 4 -13 10 -16 6 -3 7 1 4 9 -7 18 -14 21 -14 7z"/>
<path d="M5710 3275 c5 -7 6 -16 2 -21 -4 -5 -3 -5 2 -1 15 12 15 34 0 34 -9
0 -11 -4 -4 -12z"/>
<path d="M5924 3278 c10 -6 22 -6 26 -2 5 5 -3 10 -18 11 -22 1 -24 0 -8 -9z"/>
<path d="M6030 3275 c5 -7 6 -16 2 -21 -4 -5 -3 -5 2 -1 15 12 15 34 0 34 -9
0 -11 -4 -4 -12z"/>
<path d="M6244 3278 c10 -6 22 -6 26 -2 5 5 -3 10 -18 11 -22 1 -24 0 -8 -9z"/>
<path d="M6350 3275 c5 -7 6 -16 2 -21 -4 -5 -3 -5 2 -1 15 12 15 34 0 34 -9
0 -11 -4 -4 -12z"/>
<path d="M6564 3278 c10 -6 22 -6 26 -2 5 5 -3 10 -18 11 -22 1 -24 0 -8 -9z"/>
<path d="M6670 3275 c5 -7 6 -16 2 -21 -4 -5 -3 -5 2 -1 15 12 15 34 0 34 -9
0 -11 -4 -4 -12z"/>
<path d="M6884 3278 c10 -6 22 -6 26 -2 5 5 -3 10 -18 11 -22 1 -24 0 -8 -9z"/>
<path d="M6990 3275 c5 -7 6 -16 2 -21 -4 -5 -3 -5 2 -1 15 12 15 34 0 34 -9
0 -11 -4 -4 -12z"/>
<path d="M7250 3281 c0 -6 4 -13 10 -16 6 -3 7 1 4 9 -7 18 -14 21 -14 7z"/>
<path d="M7310 3275 c5 -7 6 -16 2 -21 -4 -5 -3 -5 2 -1 15 12 15 34 0 34 -9
0 -11 -4 -4 -12z"/>
<path d="M7524 3278 c10 -6 22 -6 26 -2 5 5 -3 10 -18 11 -22 1 -24 0 -8 -9z"/>
<path d="M7630 3275 c5 -7 6 -16 2 -21 -4 -5 -3 -5 2 -1 15 12 15 34 0 34 -9
0 -11 -4 -4 -12z"/>
<path d="M8036 3279 c4 -8 30 -6 38 2 3 3 -5 5 -19 5 -13 0 -22 -3 -19 -7z"/>
<path d="M8116 3278 c3 -5 10 -6 15 -3 13 9 11 12 -6 12 -8 0 -12 -4 -9 -9z"/>
<path d="M8516 3278 c3 -5 10 -6 15 -3 13 9 11 12 -6 12 -8 0 -12 -4 -9 -9z"/>
<path d="M8596 3278 c3 -5 10 -6 15 -3 13 9 11 12 -6 12 -8 0 -12 -4 -9 -9z"/>
<path d="M8813 3275 c0 -8 4 -12 9 -9 5 3 6 10 3 15 -9 13 -12 11 -12 -6z"/>
<path d="M8996 3278 c3 -5 10 -6 15 -3 13 9 11 12 -6 12 -8 0 -12 -4 -9 -9z"/>
<path d="M9076 3278 c3 -5 10 -6 15 -3 13 9 11 12 -6 12 -8 0 -12 -4 -9 -9z"/>
<path d="M9476 3278 c3 -5 10 -6 15 -3 13 9 11 12 -6 12 -8 0 -12 -4 -9 -9z"/>
<path d="M9556 3278 c3 -5 10 -6 15 -3 13 9 11 12 -6 12 -8 0 -12 -4 -9 -9z"/>
<path d="M9956 3279 c4 -8 30 -6 38 2 3 3 -5 5 -19 5 -13 0 -22 -3 -19 -7z"/>
<path d="M10036 3278 c3 -5 10 -6 15 -3 13 9 11 12 -6 12 -8 0 -12 -4 -9 -9z"/>
<path d="M10070 3279 c0 -5 5 -7 10 -4 6 3 10 8 10 11 0 2 -4 4 -10 4 -5 0
-10 -5 -10 -11z"/>
<path d="M5233 3265 c0 -8 4 -12 9 -9 5 3 6 10 3 15 -9 13 -12 11 -12 -6z"/>
<path d="M5553 3265 c0 -8 4 -12 9 -9 5 3 6 10 3 15 -9 13 -12 11 -12 -6z"/>
<path d="M5873 3265 c0 -8 4 -12 9 -9 5 3 6 10 3 15 -9 13 -12 11 -12 -6z"/>
<path d="M6513 3265 c0 -8 4 -12 9 -9 5 3 6 10 3 15 -9 13 -12 11 -12 -6z"/>
<path d="M6833 3265 c0 -8 4 -12 9 -9 5 3 6 10 3 15 -9 13 -12 11 -12 -6z"/>
<path d="M7473 3265 c0 -8 4 -12 9 -9 5 3 6 10 3 15 -9 13 -12 11 -12 -6z"/>
<path d="M9235 3271 c-3 -5 -2 -12 3 -15 5 -3 9 1 9 9 0 17 -3 19 -12 6z"/>
<path d="M2390 3260 c0 -5 5 -10 11 -10 5 0 7 5 4 10 -3 6 -8 10 -11 10 -2 0
-4 -4 -4 -10z"/>
<path d="M3030 3260 c0 -5 5 -10 11 -10 5 0 7 5 4 10 -3 6 -8 10 -11 10 -2 0
-4 -4 -4 -10z"/>
<path d="M3510 3260 c0 -5 5 -10 11 -10 5 0 7 5 4 10 -3 6 -8 10 -11 10 -2 0
-4 -4 -4 -10z"/>
<path d="M3540 3266 c0 -2 8 -10 18 -17 15 -13 16 -12 3 4 -13 16 -21 21 -21
13z"/>
<path d="M3990 3260 c0 -5 5 -10 11 -10 5 0 7 5 4 10 -3 6 -8 10 -11 10 -2 0
-4 -4 -4 -10z"/>
<path d="M4470 3260 c0 -5 5 -10 11 -10 5 0 7 5 4 10 -3 6 -8 10 -11 10 -2 0
-4 -4 -4 -10z"/>
<path d="M4500 3266 c0 -2 8 -10 18 -17 15 -13 16 -12 3 4 -13 16 -21 21 -21
13z"/>
<path d="M4950 3260 c0 -5 5 -10 11 -10 5 0 7 5 4 10 -3 6 -8 10 -11 10 -2 0
-4 -4 -4 -10z"/>
<path d="M5426 3262 c-2 -4 4 -8 14 -8 10 0 16 4 14 8 -3 4 -9 8 -14 8 -5 0
-11 -4 -14 -8z"/>
<path d="M5746 3262 c-2 -4 4 -8 14 -8 10 0 16 4 14 8 -3 4 -9 8 -14 8 -5 0
-11 -4 -14 -8z"/>
<path d="M6066 3262 c-2 -4 4 -8 14 -8 10 0 16 4 14 8 -3 4 -9 8 -14 8 -5 0
-11 -4 -14 -8z"/>
<path d="M6386 3262 c-2 -4 4 -8 14 -8 10 0 16 4 14 8 -3 4 -9 8 -14 8 -5 0
-11 -4 -14 -8z"/>
<path d="M6706 3262 c-2 -4 4 -8 14 -8 10 0 16 4 14 8 -3 4 -9 8 -14 8 -5 0
-11 -4 -14 -8z"/>
<path d="M7026 3262 c-2 -4 4 -8 14 -8 10 0 16 4 14 8 -3 4 -9 8 -14 8 -5 0
-11 -4 -14 -8z"/>
<path d="M7346 3262 c-2 -4 4 -8 14 -8 10 0 16 4 14 8 -3 4 -9 8 -14 8 -5 0
-11 -4 -14 -8z"/>
<path d="M7990 3260 c0 -5 5 -10 11 -10 5 0 7 5 4 10 -3 6 -8 10 -11 10 -2 0
-4 -4 -4 -10z"/>
<path d="M8470 3260 c0 -5 5 -10 11 -10 5 0 7 5 4 10 -3 6 -8 10 -11 10 -2 0
-4 -4 -4 -10z"/>
<path d="M8950 3260 c0 -5 5 -10 11 -10 5 0 7 5 4 10 -3 6 -8 10 -11 10 -2 0
-4 -4 -4 -10z"/>
<path d="M9190 3262 c0 -5 7 -9 15 -9 8 0 12 4 9 9 -3 4 -9 8 -15 8 -5 0 -9
-4 -9 -8z"/>
<path d="M9430 3260 c0 -5 5 -10 11 -10 5 0 7 5 4 10 -3 6 -8 10 -11 10 -2 0
-4 -4 -4 -10z"/>
<path d="M9910 3260 c0 -5 5 -10 11 -10 5 0 7 5 4 10 -3 6 -8 10 -11 10 -2 0
-4 -4 -4 -10z"/>
<path d="M2455 3240 c3 -5 8 -10 11 -10 2 0 4 5 4 10 0 6 -5 10 -11 10 -5 0
-7 -4 -4 -10z"/>
<path d="M2535 3240 c3 -5 8 -10 11 -10 2 0 4 5 4 10 0 6 -5 10 -11 10 -5 0
-7 -4 -4 -10z"/>
<path d="M2615 3240 c3 -5 8 -10 11 -10 2 0 4 5 4 10 0 6 -5 10 -11 10 -5 0
-7 -4 -4 -10z"/>
<path d="M2695 3240 c3 -5 8 -10 11 -10 2 0 4 5 4 10 0 6 -5 10 -11 10 -5 0
-7 -4 -4 -10z"/>
<path d="M2726 3242 c-3 -5 1 -9 9 -9 8 0 12 4 9 9 -3 4 -7 8 -9 8 -2 0 -6 -4
-9 -8z"/>
<path d="M2915 3241 c-3 -5 -2 -12 3 -15 5 -3 9 1 9 9 0 17 -3 19 -12 6z"/>
<path d="M2970 3240 c0 -5 5 -10 11 -10 5 0 7 5 4 10 -3 6 -8 10 -11 10 -2 0
-4 -4 -4 -10z"/>
<path d="M3095 3240 c3 -5 8 -10 11 -10 2 0 4 5 4 10 0 6 -5 10 -11 10 -5 0
-7 -4 -4 -10z"/>
<path d="M3175 3240 c3 -5 8 -10 11 -10 2 0 4 5 4 10 0 6 -5 10 -11 10 -5 0
-7 -4 -4 -10z"/>
<path d="M3395 3241 c-3 -5 -2 -12 3 -15 5 -3 9 1 9 9 0 17 -3 19 -12 6z"/>
<path d="M3450 3240 c0 -5 5 -10 11 -10 5 0 7 5 4 10 -3 6 -8 10 -11 10 -2 0
-4 -4 -4 -10z"/>
<path d="M3655 3240 c3 -5 8 -10 11 -10 2 0 4 5 4 10 0 6 -5 10 -11 10 -5 0
-7 -4 -4 -10z"/>
<path d="M3686 3242 c-3 -5 1 -9 9 -9 8 0 12 4 9 9 -3 4 -7 8 -9 8 -2 0 -6 -4
-9 -8z"/>
<path d="M3875 3241 c-3 -5 -2 -12 3 -15 5 -3 9 1 9 9 0 17 -3 19 -12 6z"/>
<path d="M3930 3240 c0 -5 5 -10 11 -10 5 0 7 5 4 10 -3 6 -8 10 -11 10 -2 0
-4 -4 -4 -10z"/>
<path d="M4055 3240 c3 -5 8 -10 11 -10 2 0 4 5 4 10 0 6 -5 10 -11 10 -5 0
-7 -4 -4 -10z"/>
<path d="M4135 3240 c3 -5 8 -10 11 -10 2 0 4 5 4 10 0 6 -5 10 -11 10 -5 0
-7 -4 -4 -10z"/>
<path d="M4355 3240 c-3 -5 -1 -10 4 -10 6 0 11 5 11 10 0 6 -2 10 -4 10 -3 0
-8 -4 -11 -10z"/>
<path d="M4390 3240 c0 -5 9 -8 20 -7 21 1 18 10 -5 13 -8 1 -15 -2 -15 -6z"/>
<path d="M4615 3240 c3 -5 8 -10 11 -10 2 0 4 5 4 10 0 6 -5 10 -11 10 -5 0
-7 -4 -4 -10z"/>
<path d="M4646 3242 c-3 -5 1 -9 9 -9 8 0 12 4 9 9 -3 4 -7 8 -9 8 -2 0 -6 -4
-9 -8z"/>
<path d="M4835 3241 c-3 -5 -2 -12 3 -15 5 -3 9 1 9 9 0 17 -3 19 -12 6z"/>
<path d="M4890 3240 c0 -5 5 -10 11 -10 5 0 7 5 4 10 -3 6 -8 10 -11 10 -2 0
-4 -4 -4 -10z"/>
<path d="M5015 3240 c3 -5 8 -10 11 -10 2 0 4 5 4 10 0 6 -5 10 -11 10 -5 0
-7 -4 -4 -10z"/>
<path d="M5095 3240 c3 -5 8 -10 11 -10 2 0 4 5 4 10 0 6 -5 10 -11 10 -5 0
-7 -4 -4 -10z"/>
<path d="M5310 3238 c0 -4 4 -8 9 -8 6 0 12 4 15 8 3 5 -1 9 -9 9 -8 0 -15 -4
-15 -9z"/>
<path d="M5630 3245 c0 -5 5 -17 10 -25 5 -8 10 -10 10 -5 0 6 -5 17 -10 25
-5 8 -10 11 -10 5z"/>
<path d="M5950 3238 c0 -4 4 -8 9 -8 6 0 12 4 15 8 3 5 -1 9 -9 9 -8 0 -15 -4
-15 -9z"/>
<path d="M6270 3245 c0 -5 5 -17 10 -25 5 -8 10 -10 10 -5 0 6 -5 17 -10 25
-5 8 -10 11 -10 5z"/>
<path d="M6590 3245 c0 -5 5 -17 10 -25 5 -8 10 -10 10 -5 0 6 -5 17 -10 25
-5 8 -10 11 -10 5z"/>
<path d="M6910 3238 c0 -4 4 -8 9 -8 6 0 12 4 15 8 3 5 -1 9 -9 9 -8 0 -15 -4
-15 -9z"/>
<path d="M7230 3245 c0 -5 5 -17 10 -25 5 -8 10 -10 10 -5 0 6 -5 17 -10 25
-5 8 -10 11 -10 5z"/>
<path d="M7550 3238 c0 -4 4 -8 9 -8 6 0 12 4 15 8 3 5 -1 9 -9 9 -8 0 -15 -4
-15 -9z"/>
<path d="M7875 3241 c-3 -5 -2 -12 3 -15 5 -3 9 1 9 9 0 17 -3 19 -12 6z"/>
<path d="M7930 3240 c0 -5 5 -10 11 -10 5 0 7 5 4 10 -3 6 -8 10 -11 10 -2 0
-4 -4 -4 -10z"/>
<path d="M8055 3240 c3 -5 8 -10 11 -10 2 0 4 5 4 10 0 6 -5 10 -11 10 -5 0
-7 -4 -4 -10z"/>
<path d="M8135 3240 c3 -5 8 -10 11 -10 2 0 4 5 4 10 0 6 -5 10 -11 10 -5 0
-7 -4 -4 -10z"/>
<path d="M8166 3242 c-3 -5 1 -9 9 -9 8 0 12 4 9 9 -3 4 -7 8 -9 8 -2 0 -6 -4
-9 -8z"/>
<path d="M8535 3240 c3 -5 8 -10 11 -10 2 0 4 5 4 10 0 6 -5 10 -11 10 -5 0
-7 -4 -4 -10z"/>
<path d="M8615 3240 c3 -5 8 -10 11 -10 2 0 4 5 4 10 0 6 -5 10 -11 10 -5 0
-7 -4 -4 -10z"/>
<path d="M8835 3241 c-3 -5 -2 -12 3 -15 5 -3 9 1 9 9 0 17 -3 19 -12 6z"/>
<path d="M8890 3240 c0 -5 5 -10 11 -10 5 0 7 5 4 10 -3 6 -8 10 -11 10 -2 0
-4 -4 -4 -10z"/>
<path d="M9015 3240 c3 -5 8 -10 11 -10 2 0 4 5 4 10 0 6 -5 10 -11 10 -5 0
-7 -4 -4 -10z"/>
<path d="M9095 3240 c3 -5 8 -10 11 -10 2 0 4 5 4 10 0 6 -5 10 -11 10 -5 0
-7 -4 -4 -10z"/>
<path d="M9126 3242 c-3 -5 1 -9 9 -9 8 0 12 4 9 9 -3 4 -7 8 -9 8 -2 0 -6 -4
-9 -8z"/>
<path d="M9315 3241 c-3 -5 -2 -12 3 -15 5 -3 9 1 9 9 0 17 -3 19 -12 6z"/>
<path d="M9370 3240 c0 -5 5 -10 11 -10 5 0 7 5 4 10 -3 6 -8 10 -11 10 -2 0
-4 -4 -4 -10z"/>
<path d="M9495 3240 c3 -5 8 -10 11 -10 2 0 4 5 4 10 0 6 -5 10 -11 10 -5 0
-7 -4 -4 -10z"/>
<path d="M9575 3240 c3 -5 8 -10 11 -10 2 0 4 5 4 10 0 6 -5 10 -11 10 -5 0
-7 -4 -4 -10z"/>
<path d="M9795 3241 c-3 -5 -2 -12 3 -15 5 -3 9 1 9 9 0 17 -3 19 -12 6z"/>
<path d="M9850 3240 c0 -5 5 -10 11 -10 5 0 7 5 4 10 -3 6 -8 10 -11 10 -2 0
-4 -4 -4 -10z"/>
<path d="M9975 3240 c3 -5 8 -10 11 -10 2 0 4 5 4 10 0 6 -5 10 -11 10 -5 0
-7 -4 -4 -10z"/>
<path d="M10055 3240 c3 -5 8 -10 11 -10 2 0 4 5 4 10 0 6 -5 10 -11 10 -5 0
-7 -4 -4 -10z"/>
<path d="M2335 3231 c-3 -5 -2 -12 3 -15 5 -3 9 1 9 9 0 17 -3 19 -12 6z"/>
<path d="M9435 3231 c-3 -5 -2 -12 3 -15 5 -3 9 1 9 9 0 17 -3 19 -12 6z"/>
<path d="M2395 3220 c3 -5 8 -10 11 -10 2 0 4 5 4 10 0 6 -5 10 -11 10 -5 0
-7 -4 -4 -10z"/>
<path d="M2815 3220 c-3 -5 -1 -10 4 -10 6 0 11 5 11 10 0 6 -2 10 -4 10 -3 0
-8 -4 -11 -10z"/>
<path d="M3035 3220 c3 -5 8 -10 11 -10 2 0 4 5 4 10 0 6 -5 10 -11 10 -5 0
-7 -4 -4 -10z"/>
<path d="M3515 3220 c3 -5 8 -10 11 -10 2 0 4 5 4 10 0 6 -5 10 -11 10 -5 0
-7 -4 -4 -10z"/>
<path d="M3775 3220 c-3 -5 -1 -10 4 -10 6 0 11 5 11 10 0 6 -2 10 -4 10 -3 0
-8 -4 -11 -10z"/>
<path d="M3995 3220 c3 -5 8 -10 11 -10 2 0 4 5 4 10 0 6 -5 10 -11 10 -5 0
-7 -4 -4 -10z"/>
<path d="M4475 3220 c3 -5 8 -10 11 -10 2 0 4 5 4 10 0 6 -5 10 -11 10 -5 0
-7 -4 -4 -10z"/>
<path d="M4735 3220 c-3 -5 -1 -10 4 -10 6 0 11 5 11 10 0 6 -2 10 -4 10 -3 0
-8 -4 -11 -10z"/>
<path d="M4955 3220 c3 -5 8 -10 11 -10 2 0 4 5 4 10 0 6 -5 10 -11 10 -5 0
-7 -4 -4 -10z"/>
<path d="M5136 3213 c-6 -14 -5 -15 5 -6 7 7 10 15 7 18 -3 3 -9 -2 -12 -12z"/>
<path d="M5455 3220 c-3 -5 -1 -10 4 -10 6 0 11 5 11 10 0 6 -2 10 -4 10 -3 0
-8 -4 -11 -10z"/>
<path d="M5776 3213 c-6 -14 -5 -15 5 -6 7 7 10 15 7 18 -3 3 -9 -2 -12 -12z"/>
<path d="M6095 3220 c-3 -5 -1 -10 4 -10 6 0 11 5 11 10 0 6 -2 10 -4 10 -3 0
-8 -4 -11 -10z"/>
<path d="M6415 3220 c-3 -5 -1 -10 4 -10 6 0 11 5 11 10 0 6 -2 10 -4 10 -3 0
-8 -4 -11 -10z"/>
<path d="M6735 3220 c-3 -5 -1 -10 4 -10 6 0 11 5 11 10 0 6 -2 10 -4 10 -3 0
-8 -4 -11 -10z"/>
<path d="M7056 3213 c-6 -14 -5 -15 5 -6 7 7 10 15 7 18 -3 3 -9 -2 -12 -12z"/>
<path d="M7375 3220 c-3 -5 -1 -10 4 -10 6 0 11 5 11 10 0 6 -2 10 -4 10 -3 0
-8 -4 -11 -10z"/>
<path d="M7995 3220 c3 -5 8 -10 11 -10 2 0 4 5 4 10 0 6 -5 10 -11 10 -5 0
-7 -4 -4 -10z"/>
<path d="M8255 3220 c-3 -5 -1 -10 4 -10 6 0 11 5 11 10 0 6 -2 10 -4 10 -3 0
-8 -4 -11 -10z"/>
<path d="M8475 3220 c3 -5 8 -10 11 -10 2 0 4 5 4 10 0 6 -5 10 -11 10 -5 0
-7 -4 -4 -10z"/>
<path d="M8955 3220 c3 -5 8 -10 11 -10 2 0 4 5 4 10 0 6 -5 10 -11 10 -5 0
-7 -4 -4 -10z"/>
<path d="M9216 3213 c-6 -14 -5 -15 5 -6 7 7 10 15 7 18 -3 3 -9 -2 -12 -12z"/>
<path d="M9695 3221 c-3 -5 -2 -12 3 -15 5 -3 9 1 9 9 0 17 -3 19 -12 6z"/>
<path d="M9915 3220 c3 -5 8 -10 11 -10 2 0 4 5 4 10 0 6 -5 10 -11 10 -5 0
-7 -4 -4 -10z"/>
<path d="M2066 3182 c-3 -5 1 -9 9 -9 8 0 12 4 9 9 -3 4 -7 8 -9 8 -2 0 -6 -4
-9 -8z"/>
<path d="M2106 3180 c5 -8 9 -18 9 -22 0 -3 3 -9 7 -13 3 -4 5 0 4 9 -1 9 -8
22 -16 29 -10 10 -11 9 -4 -3z"/>
<path d="M1920 3160 c-9 -6 -10 -10 -3 -10 6 0 15 5 18 10 8 12 4 12 -15 0z"/>
<path d="M2193 3155 c0 -8 4 -12 9 -9 5 3 6 10 3 15 -9 13 -12 11 -12 -6z"/>
<path d="M2236 3127 c3 -10 9 -15 12 -12 3 3 0 11 -7 18 -10 9 -11 8 -5 -6z"/>
<path d="M1996 3118 c3 -5 10 -6 15 -3 13 9 11 12 -6 12 -8 0 -12 -4 -9 -9z"/>
<path d="M954 2710 c-14 -5 -14 -7 0 -19 9 -7 16 -17 16 -22 0 -5 12 -27 26
-49 14 -21 23 -44 19 -50 -3 -6 -1 -9 6 -8 7 2 18 -7 24 -20 7 -12 21 -30 31
-38 11 -9 12 -12 4 -8 -8 4 -5 -4 8 -18 12 -13 22 -30 22 -37 0 -7 5 -9 13 -5
9 6 9 4 -1 -8 -10 -13 -10 -18 -1 -24 8 -4 9 -3 5 4 -4 7 -2 12 3 12 6 0 11
-7 11 -15 0 -8 5 -15 12 -15 6 0 9 -3 5 -6 -3 -4 4 -15 16 -25 12 -10 19 -18
15 -19 -4 0 3 -10 15 -23 28 -30 50 -62 49 -73 0 -5 8 -12 19 -16 10 -4 19
-14 19 -22 0 -7 7 -16 15 -20 8 -3 12 -12 9 -21 -5 -11 -2 -14 10 -9 12 5 15
2 10 -10 -4 -11 -2 -16 7 -14 8 2 13 -4 13 -14 -1 -11 4 -15 15 -11 9 4 13 3
9 -1 -3 -4 9 -24 27 -43 19 -20 31 -41 28 -46 -3 -6 -2 -7 4 -4 10 6 110 -101
106 -115 -2 -4 2 -8 7 -8 6 0 22 -11 35 -25 26 -25 33 -41 13 -29 -7 4 -8 3
-4 -5 4 -6 11 -9 16 -6 9 5 110 -93 110 -107 0 -5 7 -8 15 -8 14 0 19 -12 16
-32 0 -5 2 -7 7 -7 22 4 34 -3 29 -15 -6 -15 16 -40 26 -30 3 3 21 -9 39 -28
19 -18 55 -51 81 -72 26 -22 46 -45 43 -52 -3 -8 1 -11 9 -8 8 4 28 -8 46 -25
17 -17 33 -31 35 -31 13 0 83 -64 78 -72 -3 -5 -2 -8 3 -7 26 4 34 -2 28 -23
-4 -16 -3 -19 3 -10 8 12 13 12 31 1 11 -8 21 -17 21 -21 0 -5 5 -8 10 -8 6 0
18 -8 28 -18 10 -9 28 -23 40 -31 11 -8 18 -19 15 -25 -3 -6 0 -5 8 2 19 17
28 15 24 -6 -2 -11 3 -19 11 -19 10 0 11 4 3 13 -7 8 -7 14 1 19 14 9 32 -4
24 -17 -4 -7 -2 -8 5 -4 6 4 9 12 6 17 -4 5 -2 9 4 9 5 0 12 -6 14 -12 4 -10
6 -10 6 0 1 6 6 12 12 12 5 0 7 -6 3 -13 -6 -9 -4 -9 7 -1 18 14 52 14 61 0 5
-8 8 -7 8 2 0 6 5 12 11 12 5 0 7 -6 3 -12 -6 -10 -4 -10 7 -2 18 14 50 15 67
1 9 -7 16 -7 24 1 14 14 32 16 23 3 -3 -5 -1 -13 5 -16 6 -4 9 -1 8 7 -2 7 4
13 12 13 8 0 14 -6 12 -13 -1 -8 2 -11 8 -7 6 3 8 11 5 16 -8 13 9 11 22 -2 7
-7 17 -8 25 -3 19 13 81 13 96 1 9 -7 16 -7 24 1 14 14 32 16 23 3 -3 -5 -1
-13 5 -16 6 -4 9 -1 8 7 -2 7 4 13 12 13 8 0 14 -6 12 -13 -1 -8 2 -11 8 -7 6
3 8 11 5 16 -9 13 9 11 23 -3 8 -8 15 -8 24 -1 15 12 77 12 96 0 7 -5 18 -4
25 1 17 14 63 9 59 -7 -1 -7 2 -10 8 -6 6 3 8 9 6 13 -2 4 20 8 50 8 37 1 52
-2 47 -10 -4 -6 2 -4 12 4 17 13 18 13 10 0 -8 -13 -7 -13 8 -1 14 11 17 11
17 0 0 -9 3 -10 8 -3 8 12 114 15 107 4 -6 -10 15 -7 33 3 7 5 12 3 12 -5 0
-8 3 -9 8 -2 8 12 114 15 107 4 -6 -10 15 -7 33 3 7 5 12 3 12 -5 0 -8 3 -9 8
-2 8 12 114 15 107 4 -6 -10 15 -8 32 3 6 4 14 1 16 -5 4 -10 6 -10 6 0 1 6 6
12 12 12 5 0 8 -4 5 -8 -3 -5 1 -9 9 -9 8 0 12 3 10 7 -2 4 14 7 35 7 22 0 40
-4 40 -9 0 -4 5 -8 11 -8 5 0 7 5 4 10 -10 16 6 12 29 -8 16 -13 18 -13 8 -1
-10 14 -7 16 28 16 22 0 40 -4 40 -9 0 -4 5 -8 11 -8 5 0 7 5 4 10 -10 16 6
12 29 -8 16 -13 18 -14 8 -1 -11 14 -9 17 13 17 20 0 25 -5 21 -17 -4 -11 -1
-10 10 4 11 14 18 16 21 8 3 -7 9 -13 14 -13 6 0 8 4 5 8 -3 5 26 9 64 9 46 0
67 -4 63 -11 -3 -6 -3 -8 2 -4 4 4 15 2 24 -5 14 -10 14 -10 4 4 -11 14 -8 16
27 16 22 0 40 -4 40 -9 0 -4 5 -8 11 -8 5 0 8 4 5 8 -2 4 22 8 54 8 33 0 57
-3 54 -8 -3 -4 0 -8 5 -8 6 0 11 4 11 8 0 5 18 9 40 9 35 0 38 -2 27 -16 -10
-14 -10 -14 4 -4 9 7 20 9 24 5 5 -4 5 -2 2 4 -4 7 17 11 63 11 38 0 67 -4 64
-9 -3 -4 -1 -8 5 -8 5 0 11 6 14 13 3 8 10 6 21 -8 11 -14 14 -15 10 -4 -4 12
1 17 21 17 22 0 24 -3 13 -17 -10 -13 -8 -12 8 1 23 20 39 24 29 8 -3 -5 -1
-10 4 -10 6 0 11 4 11 8 0 5 25 9 55 9 30 0 52 -4 49 -9 -3 -4 0 -8 5 -8 6 0
11 4 11 8 0 5 18 9 40 9 35 0 38 -2 27 -16 -11 -14 -10 -14 6 -2 24 19 111 25
100 8 -4 -7 2 -5 12 3 17 13 18 13 10 0 -8 -13 -7 -13 8 -1 14 11 17 11 17 0
0 -9 3 -10 8 -3 8 12 114 15 107 4 -6 -10 15 -7 33 3 7 5 12 3 12 -5 0 -8 3
-9 8 -2 10 14 114 15 105 0 -4 -6 2 -4 12 4 17 13 18 13 10 0 -8 -13 -7 -13 8
-1 14 11 17 11 17 0 0 -9 3 -10 8 -3 8 12 114 15 107 4 -6 -10 15 -8 32 3 6 4
14 1 16 -5 4 -10 6 -10 6 0 1 15 33 16 49 0 8 -8 15 -8 24 -1 18 15 64 10 60
-6 -1 -7 2 -10 8 -6 6 3 8 11 5 16 -4 5 -1 9 4 9 6 0 11 -6 11 -12 0 -9 3 -10
8 -2 9 14 43 15 60 1 8 -6 16 -6 25 1 17 14 63 9 59 -7 -1 -7 2 -10 8 -6 6 3
8 11 5 16 -4 5 -1 9 4 9 6 0 11 -6 11 -12 0 -9 3 -10 8 -2 8 13 101 13 120 0
8 -5 18 -4 25 3 13 13 30 15 22 2 -3 -5 -1 -13 5 -16 6 -4 9 -1 8 7 -2 7 4 13
12 13 8 0 14 -6 12 -13 -1 -8 2 -11 8 -7 6 3 8 11 5 16 -9 13 9 11 23 -3 8 -8
15 -8 24 -1 15 12 77 12 96 0 7 -5 18 -4 25 1 17 14 63 9 59 -7 -1 -7 2 -10 8
-6 6 3 8 11 5 16 -4 5 -1 9 4 9 6 0 11 -6 11 -12 0 -9 3 -10 8 -2 8 13 101 13
121 0 10 -6 12 -6 7 2 -4 7 -3 12 3 12 5 0 12 -6 14 -12 4 -10 6 -10 6 0 1 6
6 12 12 12 5 0 8 -4 4 -9 -3 -5 -1 -13 5 -16 6 -4 9 -1 8 7 -2 7 4 13 12 13 8
0 14 -6 12 -13 -1 -8 2 -11 8 -7 6 3 8 11 5 16 -9 13 9 11 23 -3 8 -8 15 -8
24 -1 15 12 77 12 96 0 7 -5 18 -4 25 1 17 14 63 9 59 -7 -1 -7 2 -10 8 -6 6
3 8 9 6 13 -2 4 20 8 50 8 37 1 52 -2 47 -10 -4 -6 2 -4 12 4 17 13 18 13 10
0 -8 -13 -7 -13 8 -1 14 11 17 11 17 0 0 -9 3 -10 8 -3 8 12 114 15 107 4 -6
-10 15 -7 33 3 7 5 12 3 12 -5 0 -8 3 -9 8 -2 8 12 114 15 107 4 -6 -10 15 -7
33 3 7 5 12 3 12 -5 0 -8 3 -9 8 -2 8 12 114 15 107 4 -6 -10 15 -8 32 3 6 4
14 1 16 -5 4 -10 6 -10 6 0 1 6 6 12 12 12 5 0 8 -4 5 -8 -3 -5 1 -9 9 -9 8 0
12 3 10 7 -2 4 14 7 35 7 22 0 40 -4 40 -9 0 -4 5 -8 11 -8 5 0 7 4 4 10 -10
16 6 12 29 -7 16 -14 18 -14 8 -2 -10 14 -7 16 28 16 22 0 40 -4 40 -9 0 -4 5
-8 11 -8 5 0 8 4 5 8 -3 5 13 9 35 9 32 0 39 -3 34 -16 -4 -13 -2 -13 9 2 15
19 31 24 20 5 -5 -8 -3 -8 7 -2 18 12 119 14 119 3 0 -5 5 -9 11 -9 5 0 7 4 4
10 -10 16 6 12 29 -8 16 -13 18 -14 8 -1 -11 14 -9 17 13 17 20 0 25 -5 21
-17 -4 -11 -1 -10 10 4 11 14 18 16 21 8 3 -7 9 -13 14 -13 6 0 8 4 5 8 -2 4
22 8 54 8 33 0 57 -3 54 -8 -3 -4 -1 -8 5 -8 5 0 11 6 14 13 3 8 10 6 21 -8
11 -13 14 -15 11 -4 -5 12 2 16 30 16 19 0 35 -5 36 -11 0 -6 4 -3 8 7 4 10
10 18 14 18 3 0 21 13 39 29 18 17 38 28 45 26 8 -3 10 1 6 11 -4 10 -2 14 4
10 6 -4 14 0 17 9 3 8 10 12 16 9 5 -3 10 -1 10 5 0 7 10 20 23 30 17 14 25
16 36 7 12 -9 13 -9 7 1 -4 7 4 24 23 43 17 17 31 27 31 23 0 -3 9 5 21 20 11
14 26 26 32 26 7 0 23 14 36 30 25 32 47 40 37 14 -3 -9 -2 -12 4 -9 6 4 10
12 9 18 -3 28 2 39 17 33 8 -3 12 -2 9 4 -4 6 4 14 17 19 13 6 19 10 14 10 -5
1 1 10 14 21 12 11 26 17 31 14 5 -3 6 2 2 12 -5 13 -2 15 18 9 18 -5 20 -4 9
4 -12 9 -12 11 3 17 9 3 17 12 17 19 0 9 8 12 21 10 17 -4 19 -2 9 10 -13 16
-7 19 30 16 10 0 11 1 3 5 -18 8 -16 24 2 24 8 0 15 6 15 14 0 10 8 13 22 11
15 -3 18 -1 11 6 -8 8 -2 19 18 40 29 29 46 39 33 17 -4 -7 -3 -8 5 -4 6 4 9
12 6 17 -4 5 9 24 27 44 18 19 51 55 73 81 22 26 51 59 65 73 14 14 41 46 60
71 19 25 35 47 37 50 2 2 9 -2 14 -10 8 -11 9 -9 4 9 -5 16 -4 21 4 17 7 -5 8
-1 4 10 -5 14 -3 16 11 11 10 -4 15 -3 11 3 -4 6 0 17 7 25 24 27 34 40 53 70
20 31 31 45 64 82 10 12 17 24 14 27 -4 3 -1 6 5 6 7 0 12 7 12 15 0 8 5 15
10 15 6 0 10 7 10 16 0 8 4 13 9 10 5 -3 11 4 15 17 3 12 18 36 33 53 15 17
29 36 30 42 2 6 19 36 38 67 20 30 32 55 28 56 -32 4 -8907 3 -8919 -1z m856
-1070 c0 -5 -2 -10 -4 -10 -3 0 -8 5 -11 10 -3 6 -1 10 4 10 6 0 11 -4 11 -10z"/>
<path d="M1000 2520 c-9 -6 -10 -10 -3 -10 6 0 15 5 18 10 8 12 4 12 -15 0z"/>
<path d="M1076 2398 c3 -5 10 -6 15 -3 13 9 11 12 -6 12 -8 0 -12 -4 -9 -9z"/>
<path d="M1153 2345 c0 -8 4 -12 9 -9 5 3 6 10 3 15 -9 13 -12 11 -12 -6z"/>
<path d="M1195 2260 c3 -5 8 -10 11 -10 2 0 4 5 4 10 0 6 -5 10 -11 10 -5 0
-7 -4 -4 -10z"/>
<path d="M9566 2222 c-3 -5 1 -9 9 -9 8 0 12 4 9 9 -3 4 -7 8 -9 8 -2 0 -6 -4
-9 -8z"/>
<path d="M9506 2122 c-2 -4 4 -8 14 -8 10 0 16 4 14 8 -3 4 -9 8 -14 8 -5 0
-11 -4 -14 -8z"/>
<path d="M9416 2033 c-6 -14 -5 -15 5 -6 7 7 10 15 7 18 -3 3 -9 -2 -12 -12z"/>
<path d="M9310 1899 c0 -5 5 -7 10 -4 6 3 10 8 10 11 0 2 -4 4 -10 4 -5 0 -10
-5 -10 -11z"/>
<path d="M1595 1800 c3 -5 8 -10 11 -10 2 0 4 5 4 10 0 6 -5 10 -11 10 -5 0
-7 -4 -4 -10z"/>
<path d="M9193 1795 c0 -8 4 -12 9 -9 4 3 8 9 8 15 0 5 -4 9 -8 9 -5 0 -9 -7
-9 -15z"/>
<path d="M9230 1805 c0 -5 5 -17 10 -25 5 -8 10 -10 10 -5 0 6 -5 17 -10 25
-5 8 -10 11 -10 5z"/>
<path d="M8986 1582 c-2 -4 4 -8 14 -8 10 0 16 4 14 8 -3 4 -9 8 -14 8 -5 0
-11 -4 -14 -8z"/>
<path d="M8933 1525 c0 -8 4 -15 9 -15 4 0 8 4 8 9 0 6 -4 12 -8 15 -5 3 -9
-1 -9 -9z"/>
<path d="M1897 1515 c-4 -8 -3 -16 1 -19 4 -3 9 4 9 15 2 23 -3 25 -10 4z"/>
<path d="M8853 1465 c0 -8 4 -12 9 -9 5 3 6 10 3 15 -9 13 -12 11 -12 -6z"/>
<path d="M1996 1433 c-6 -14 -5 -15 5 -6 7 7 10 15 7 18 -3 3 -9 -2 -12 -12z"/>
<path d="M8850 1426 c0 -2 7 -7 16 -10 8 -3 12 -2 9 4 -6 10 -25 14 -25 6z"/>
<path d="M8773 1395 c0 -8 4 -12 9 -9 4 3 8 9 8 15 0 5 -4 9 -8 9 -5 0 -9 -7
-9 -15z"/>
<path d="M2094 1360 c0 -13 4 -16 10 -10 7 7 7 13 0 20 -6 6 -10 3 -10 -10z"/>
<path d="M8735 1371 c-3 -5 -2 -12 3 -15 5 -3 9 1 9 9 0 17 -3 19 -12 6z"/>
<path d="M8686 1302 c-3 -5 1 -9 9 -9 8 0 12 4 9 9 -3 4 -7 8 -9 8 -2 0 -6 -4
-9 -8z"/>
<path d="M2176 1262 c-3 -5 1 -9 9 -9 8 0 12 4 9 9 -3 4 -7 8 -9 8 -2 0 -6 -4
-9 -8z"/>
<path d="M2215 1240 c3 -5 8 -10 11 -10 2 0 4 5 4 10 0 6 -5 10 -11 10 -5 0
-7 -4 -4 -10z"/>
<path d="M8625 1239 c-3 -4 2 -6 10 -5 21 3 28 13 10 13 -9 0 -18 -4 -20 -8z"/>
<path d="M2267 1219 c7 -7 15 -10 18 -7 3 3 -2 9 -12 12 -14 6 -15 5 -6 -5z"/>
<path d="M8516 1202 c-3 -5 1 -9 9 -9 8 0 12 4 9 9 -3 4 -7 8 -9 8 -2 0 -6 -4
-9 -8z"/>
<path d="M3275 1170 c10 -11 20 -20 23 -20 3 0 -3 9 -13 20 -10 11 -20 20 -23
20 -3 0 3 -9 13 -20z"/>
<path d="M3354 1168 l-19 -23 23 19 c21 18 27 26 19 26 -2 0 -12 -10 -23 -22z"/>
<path d="M3514 1168 l-19 -23 23 19 c21 18 27 26 19 26 -2 0 -12 -10 -23 -22z"/>
<path d="M3679 1173 c-13 -16 -12 -17 4 -4 9 7 17 15 17 17 0 8 -8 3 -21 -13z"/>
<path d="M5180 1186 c0 -2 8 -10 18 -17 15 -13 16 -12 3 4 -13 16 -21 21 -21
13z"/>
<path d="M5274 1168 l-19 -23 23 19 c12 11 22 21 22 23 0 8 -8 2 -26 -19z"/>
<path d="M5515 1170 c10 -11 20 -20 23 -20 3 0 -3 9 -13 20 -10 11 -20 20 -23
20 -3 0 3 -9 13 -20z"/>
<path d="M5594 1168 l-19 -23 23 19 c12 11 22 21 22 23 0 8 -8 2 -26 -19z"/>
<path d="M5753 1183 c4 -3 1 -13 -6 -22 -11 -14 -10 -14 6 -2 20 15 22 31 5
31 -6 0 -8 -3 -5 -7z"/>
<path d="M5830 1182 c0 -5 7 -9 15 -9 8 0 12 4 9 9 -3 4 -9 8 -15 8 -5 0 -9
-4 -9 -8z"/>
<path d="M7115 1170 c10 -11 20 -20 23 -20 3 0 -3 9 -13 20 -10 11 -20 20 -23
20 -3 0 3 -9 13 -20z"/>
<path d="M7194 1168 l-19 -23 23 19 c12 11 22 21 22 23 0 8 -8 2 -26 -19z"/>
<path d="M7514 1168 l-19 -23 23 19 c12 11 22 21 22 23 0 8 -8 2 -26 -19z"/>
<path d="M2430 1176 c0 -2 8 -10 18 -17 15 -13 16 -12 3 4 -13 16 -21 21 -21
13z"/>
<path d="M3455 1169 c-4 -6 -5 -12 -2 -15 2 -3 7 2 10 11 7 17 1 20 -8 4z"/>
<path d="M3855 1169 c-4 -6 -5 -12 -2 -15 2 -3 7 2 10 11 7 17 1 20 -8 4z"/>
<path d="M7695 1169 c-4 -6 -5 -12 -2 -15 2 -3 7 2 10 11 7 17 1 20 -8 4z"/>
<path d="M2614 1162 c4 -3 14 -7 22 -8 9 -1 13 0 10 4 -4 3 -14 7 -22 8 -9 1
-13 0 -10 -4z"/>
<path d="M2706 1159 c4 -8 30 -6 38 2 3 3 -5 5 -19 5 -13 0 -22 -3 -19 -7z"/>
<path d="M2854 1162 c4 -3 14 -7 22 -8 9 -1 13 0 10 4 -4 3 -14 7 -22 8 -9 1
-13 0 -10 -4z"/>
<path d="M2955 1159 c-3 -4 2 -6 10 -5 21 3 28 13 10 13 -9 0 -18 -4 -20 -8z"/>
<path d="M3075 1160 c3 -5 8 -10 11 -10 2 0 4 5 4 10 0 6 -5 10 -11 10 -5 0
-7 -4 -4 -10z"/>
<path d="M3105 1160 c-3 -6 1 -7 9 -4 18 7 21 14 7 14 -6 0 -13 -4 -16 -10z"/>
<path d="M3180 1166 c0 -2 8 -10 18 -17 15 -13 16 -12 3 4 -13 16 -21 21 -21
13z"/>
<path d="M3879 1153 c-13 -16 -12 -17 4 -4 9 7 17 15 17 17 0 8 -8 3 -21 -13z"/>
<path d="M3916 1158 c3 -5 10 -6 15 -3 13 9 11 12 -6 12 -8 0 -12 -4 -9 -9z"/>
<path d="M3950 1160 c0 -5 5 -10 11 -10 5 0 7 5 4 10 -3 6 -8 10 -11 10 -2 0
-4 -4 -4 -10z"/>
<path d="M4054 1162 c4 -3 14 -7 22 -8 9 -1 13 0 10 4 -4 3 -14 7 -22 8 -9 1
-13 0 -10 -4z"/>
<path d="M4155 1159 c-3 -4 2 -6 10 -5 21 3 28 13 10 13 -9 0 -18 -4 -20 -8z"/>
<path d="M4296 1159 c4 -8 30 -6 38 2 3 3 -5 5 -19 5 -13 0 -22 -3 -19 -7z"/>
<path d="M4390 1166 c0 -2 7 -7 16 -10 8 -3 12 -2 9 4 -6 10 -25 14 -25 6z"/>
<path d="M4430 1159 c0 -5 5 -7 10 -4 6 3 10 8 10 11 0 2 -4 4 -10 4 -5 0 -10
-5 -10 -11z"/>
<path d="M4534 1162 c4 -3 14 -7 22 -8 9 -1 13 0 10 4 -4 3 -14 7 -22 8 -9 1
-13 0 -10 -4z"/>
<path d="M4626 1159 c4 -8 30 -6 38 2 3 3 -5 5 -19 5 -13 0 -22 -3 -19 -7z"/>
<path d="M4776 1159 c4 -8 30 -6 38 2 3 3 -5 5 -19 5 -13 0 -22 -3 -19 -7z"/>
<path d="M4876 1162 c-3 -5 1 -9 9 -9 8 0 12 4 9 9 -3 4 -7 8 -9 8 -2 0 -6 -4
-9 -8z"/>
<path d="M4910 1159 c0 -5 5 -7 10 -4 6 3 10 8 10 11 0 2 -4 4 -10 4 -5 0 -10
-5 -10 -11z"/>
<path d="M4995 1160 c3 -5 8 -10 11 -10 2 0 4 5 4 10 0 6 -5 10 -11 10 -5 0
-7 -4 -4 -10z"/>
<path d="M5025 1160 c-3 -6 1 -7 9 -4 18 7 21 14 7 14 -6 0 -13 -4 -16 -10z"/>
<path d="M5100 1166 c0 -2 8 -10 18 -17 15 -13 16 -12 3 4 -13 16 -21 21 -21
13z"/>
<path d="M5153 1155 c0 -8 4 -12 9 -9 5 3 6 10 3 15 -9 13 -12 11 -12 -6z"/>
<path d="M5985 1160 c-3 -6 1 -7 9 -4 18 7 21 14 7 14 -6 0 -13 -4 -16 -10z"/>
<path d="M6066 1158 c3 -5 10 -6 15 -3 13 9 11 12 -6 12 -8 0 -12 -4 -9 -9z"/>
<path d="M6214 1162 c4 -3 14 -7 22 -8 9 -1 13 0 10 4 -4 3 -14 7 -22 8 -9 1
-13 0 -10 -4z"/>
<path d="M6315 1159 c-3 -4 2 -6 10 -5 21 3 28 13 10 13 -9 0 -18 -4 -20 -8z"/>
<path d="M6435 1160 c3 -5 8 -10 11 -10 2 0 4 5 4 10 0 6 -5 10 -11 10 -5 0
-7 -4 -4 -10z"/>
<path d="M6465 1160 c-3 -6 1 -7 9 -4 18 7 21 14 7 14 -6 0 -13 -4 -16 -10z"/>
<path d="M6546 1159 c4 -8 30 -6 38 2 3 3 -5 5 -19 5 -13 0 -22 -3 -19 -7z"/>
<path d="M6630 1166 c0 -2 7 -7 16 -10 8 -3 12 -2 9 4 -6 10 -25 14 -25 6z"/>
<path d="M6696 1159 c4 -8 30 -6 38 2 3 3 -5 5 -19 5 -13 0 -22 -3 -19 -7z"/>
<path d="M6796 1162 c-3 -5 1 -9 9 -9 8 0 12 4 9 9 -3 4 -7 8 -9 8 -2 0 -6 -4
-9 -8z"/>
<path d="M6830 1159 c0 -5 5 -7 10 -4 6 3 10 8 10 11 0 2 -4 4 -10 4 -5 0 -10
-5 -10 -11z"/>
<path d="M6946 1162 c-3 -5 1 -9 9 -9 8 0 12 4 9 9 -3 4 -7 8 -9 8 -2 0 -6 -4
-9 -8z"/>
<path d="M7020 1166 c0 -2 8 -10 18 -17 15 -13 16 -12 3 4 -13 16 -21 21 -21
13z"/>
<path d="M7719 1153 c-13 -16 -12 -17 4 -4 9 7 17 15 17 17 0 8 -8 3 -21 -13z"/>
<path d="M7756 1158 c3 -5 10 -6 15 -3 13 9 11 12 -6 12 -8 0 -12 -4 -9 -9z"/>
<path d="M7790 1160 c0 -5 5 -10 11 -10 5 0 7 5 4 10 -3 6 -8 10 -11 10 -2 0
-4 -4 -4 -10z"/>
<path d="M7875 1160 c3 -5 8 -10 11 -10 2 0 4 5 4 10 0 6 -5 10 -11 10 -5 0
-7 -4 -4 -10z"/>
<path d="M7905 1160 c-3 -6 1 -7 9 -4 18 7 21 14 7 14 -6 0 -13 -4 -16 -10z"/>
<path d="M7986 1158 c3 -5 10 -6 15 -3 13 9 11 12 -6 12 -8 0 -12 -4 -9 -9z"/>
<path d="M8134 1162 c4 -3 14 -7 22 -8 9 -1 13 0 10 4 -4 3 -14 7 -22 8 -9 1
-13 0 -10 -4z"/>
<path d="M8235 1159 c-3 -4 2 -6 10 -5 21 3 28 13 10 13 -9 0 -18 -4 -20 -8z"/>
<path d="M8374 1162 c4 -3 14 -7 22 -8 9 -1 13 0 10 4 -4 3 -14 7 -22 8 -9 1
-13 0 -10 -4z"/>
<path d="M2330 1145 c0 -7 30 -13 34 -7 3 4 -4 9 -15 9 -10 1 -19 0 -19 -2z"/>
<path d="M2410 1139 c0 -5 5 -7 10 -4 6 3 10 8 10 11 0 2 -4 4 -10 4 -5 0 -10
-5 -10 -11z"/>
<path d="M5775 1140 c3 -5 8 -10 11 -10 2 0 4 5 4 10 0 6 -5 10 -11 10 -5 0
-7 -4 -4 -10z"/>
<path d="M5815 1140 c3 -5 8 -10 11 -10 2 0 4 5 4 10 0 6 -5 10 -11 10 -5 0
-7 -4 -4 -10z"/>
<path d="M2910 1136 c0 -2 8 -10 18 -17 15 -13 16 -12 3 4 -13 16 -21 21 -21
13z"/>
<path d="M4356 1127 c3 -10 9 -15 12 -12 3 3 0 11 -7 18 -10 9 -11 8 -5 -6z"/>
<path d="M4830 1136 c0 -2 8 -10 18 -17 15 -13 16 -12 3 4 -13 16 -21 21 -21
13z"/>
<path d="M5075 1131 c-3 -5 -2 -12 3 -15 5 -3 9 1 9 9 0 17 -3 19 -12 6z"/>
<path d="M6515 1131 c-3 -5 -2 -12 3 -15 5 -3 9 1 9 9 0 17 -3 19 -12 6z"/>
<path d="M6750 1136 c0 -2 8 -10 18 -17 15 -13 16 -12 3 4 -13 16 -21 21 -21
13z"/>
<path d="M8190 1136 c0 -2 8 -10 18 -17 15 -13 16 -12 3 4 -13 16 -21 21 -21
13z"/>
<path d="M8436 1127 c3 -10 9 -15 12 -12 3 3 0 11 -7 18 -10 9 -11 8 -5 -6z"/>
<path d="M2496 1122 c-3 -5 1 -9 9 -9 8 0 12 4 9 9 -3 4 -7 8 -9 8 -2 0 -6 -4
-9 -8z"/>
<path d="M4038 695 c-2 -11 -4 -84 -3 -162 0 -84 -3 -139 -9 -136 -5 4 -6 0 0
-8 5 -8 9 -36 10 -64 1 -27 2 -55 3 -61 1 -8 14 -10 37 -7 23 3 34 1 30 -5 -3
-5 2 -16 12 -23 15 -13 16 -12 3 4 -7 9 -11 18 -7 18 26 6 52 3 58 -6 5 -7 8
-7 8 1 0 12 49 12 69 -1 10 -5 12 -4 7 3 -5 8 1 12 15 12 19 0 20 -2 8 -17
-13 -17 -13 -17 5 -3 25 19 71 26 60 8 -6 -10 -4 -10 7 -3 8 6 41 11 75 10 54
0 62 2 71 22 6 13 7 21 3 18 -5 -3 -8 7 -7 22 2 24 7 28 36 31 22 2 31 0 26
-7 -10 -18 7 -12 22 7 14 16 14 16 9 -2 -5 -15 -4 -17 8 -7 8 7 42 11 84 10
38 -1 75 1 81 5 6 4 11 3 11 -3 0 -5 -6 -11 -12 -14 -7 -3 -3 -4 9 -4 12 1 19
5 17 9 -3 4 8 8 25 8 16 0 32 -6 34 -12 3 -8 6 -5 6 5 1 10 6 15 11 12 6 -4 7
-12 3 -18 -5 -8 -2 -8 9 1 9 7 36 11 67 9 28 -1 51 1 51 5 0 4 6 5 14 2 23 -9
226 -10 226 -1 0 5 5 5 12 1 6 -4 44 -7 85 -6 50 1 73 -2 73 -10 0 -7 7 -3 15
8 14 19 14 19 15 -1 0 -15 3 -17 9 -7 6 10 27 13 75 10 41 -2 66 0 66 7 0 7 3
7 8 0 4 -5 39 -10 77 -10 39 0 73 5 77 10 5 6 8 6 8 -1 0 -7 11 -9 25 -6 16 3
25 0 25 -9 0 -8 6 -5 16 7 15 18 15 18 10 0 -5 -15 -4 -17 7 -7 8 6 37 10 66
8 28 -1 51 1 51 5 0 4 6 5 14 2 23 -9 226 -10 226 -1 0 5 5 5 12 1 7 -4 27 -7
45 -6 21 2 33 -2 33 -10 0 -6 7 -3 16 8 15 18 15 18 10 0 -5 -15 -4 -17 7 -8
9 7 53 11 120 9 64 -1 109 2 111 8 3 6 5 6 5 -1 1 -7 18 -8 50 -4 34 4 48 3
44 -4 -4 -6 0 -5 9 2 9 7 24 15 34 17 11 3 45 11 76 19 31 8 59 11 62 8 3 -3
6 0 6 6 0 7 13 12 28 12 15 0 32 4 38 9 5 6 20 12 34 14 14 2 32 7 40 10 42
16 142 48 161 52 13 3 26 10 29 16 4 6 10 10 14 9 8 -2 152 50 186 67 14 7 30
13 37 13 6 0 15 5 18 11 5 7 -17 10 -66 9 -41 -1 -701 -1 -1466 -1 l-1393 1 0
48 0 47 -224 0 c-217 0 -225 0 -228 -20z"/>
<path d="M7206 462 c-3 -5 1 -9 9 -9 8 0 12 4 9 9 -3 4 -7 8 -9 8 -2 0 -6 -4
-9 -8z"/>
<path d="M7010 441 c0 -6 4 -13 10 -16 6 -3 7 1 4 9 -7 18 -14 21 -14 7z"/>
<path d="M7079 433 c-12 -16 -12 -17 2 -6 9 7 20 9 24 5 5 -4 5 -1 1 6 -9 16
-11 15 -27 -5z"/>
<path d="M7130 439 c0 -5 5 -7 10 -4 6 3 10 8 10 11 0 2 -4 4 -10 4 -5 0 -10
-5 -10 -11z"/>
<path d="M6973 405 c0 -8 4 -12 9 -9 5 3 6 10 3 15 -9 13 -12 11 -12 -6z"/>
<path d="M6999 393 c-13 -16 -12 -17 4 -4 9 7 17 15 17 17 0 8 -8 3 -21 -13z"/>
<path d="M6726 358 c3 -5 10 -6 15 -3 13 9 11 12 -6 12 -8 0 -12 -4 -9 -9z"/>
<path d="M6854 355 c3 -23 12 -26 13 -5 1 11 -2 20 -7 20 -4 0 -7 -7 -6 -15z"/>
<path d="M6886 362 c-3 -5 1 -9 9 -9 8 0 12 4 9 9 -3 4 -7 8 -9 8 -2 0 -6 -4
-9 -8z"/>
<path d="M6680 340 c-9 -6 -10 -10 -3 -10 6 0 15 5 18 10 8 12 4 12 -15 0z"/>
<path d="M4670 336 c0 -2 8 -10 18 -17 15 -13 16 -12 3 4 -13 16 -21 21 -21
13z"/>
<path d="M5075 320 c2 -27 10 -33 12 -10 1 11 -2 22 -6 24 -4 3 -7 -4 -6 -14z"/>
<path d="M6035 320 c2 -27 10 -33 12 -10 1 11 -2 22 -6 24 -4 3 -7 -4 -6 -14z"/>
<path d="M6737 333 c-10 -9 -9 -23 1 -23 5 0 9 7 9 15 0 17 -1 18 -10 8z"/>
<path d="M4715 320 c3 -5 8 -10 11 -10 2 0 4 5 4 10 0 6 -5 10 -11 10 -5 0 -7
-4 -4 -10z"/>
<path d="M4957 318 c-7 -5 0 -6 17 -4 16 3 31 7 33 10 8 8 -37 2 -50 -6z"/>
<path d="M5200 320 c-9 -6 -10 -10 -3 -10 6 0 15 5 18 10 8 12 4 12 -15 0z"/>
<path d="M5230 319 c0 -5 5 -7 10 -4 6 3 10 8 10 11 0 2 -4 4 -10 4 -5 0 -10
-5 -10 -11z"/>
<path d="M5364 322 c4 -3 14 -7 22 -8 9 -1 13 0 10 4 -4 3 -14 7 -22 8 -9 1
-13 0 -10 -4z"/>
<path d="M5576 313 c-6 -14 -5 -15 5 -6 7 7 10 15 7 18 -3 3 -9 -2 -12 -12z"/>
<path d="M5736 313 c-6 -14 -5 -15 5 -6 7 7 10 15 7 18 -3 3 -9 -2 -12 -12z"/>
<path d="M5917 318 c-7 -5 0 -6 17 -4 16 3 31 7 33 10 8 8 -37 2 -50 -6z"/>
<path d="M6113 311 c0 -11 5 -18 9 -15 4 3 5 11 1 19 -7 21 -12 19 -10 -4z"/>
<path d="M6193 324 c8 -9 47 -13 51 -6 2 4 -9 8 -25 8 -17 1 -28 0 -26 -2z"/>
<path d="M6375 321 c-3 -7 -1 -10 6 -9 7 2 13 -2 14 -9 0 -6 3 -14 7 -18 3 -4
5 0 4 9 -3 24 -22 40 -31 27z"/>
<path d="M6490 321 c0 -6 4 -13 10 -16 6 -3 7 1 4 9 -7 18 -14 21 -14 7z"/>
<path d="M6536 313 c-6 -14 -5 -15 5 -6 7 7 10 15 7 18 -3 3 -9 -2 -12 -12z"/>
<path d="M6619 313 c-13 -17 -13 -17 6 -3 11 8 22 16 24 17 2 2 0 3 -6 3 -6 0
-17 -8 -24 -17z"/>
<path d="M5479 315 c-1 -3 -2 -8 -3 -12 -1 -5 -5 -15 -10 -23 -7 -12 -6 -13 4
-3 13 12 23 43 14 43 -2 0 -5 -2 -5 -5z"/>
<path d="M6439 315 c-1 -3 -2 -8 -3 -12 -1 -5 -5 -15 -10 -23 -7 -12 -6 -13 4
-3 13 12 23 43 14 43 -2 0 -5 -2 -5 -5z"/>
<path d="M5633 303 c4 -3 1 -13 -6 -22 -11 -14 -10 -14 5 -2 16 12 16 31 1 31
-4 0 -3 -3 0 -7z"/>
<path d="M6145 300 c-3 -6 1 -7 9 -4 18 7 21 14 7 14 -6 0 -13 -4 -16 -10z"/>
<path d="M4536 282 c-3 -5 1 -9 9 -9 8 0 12 4 9 9 -3 4 -7 8 -9 8 -2 0 -6 -4
-9 -8z"/>
<path d="M4870 278 c0 -4 4 -8 9 -8 6 0 12 4 15 8 3 5 -1 9 -9 9 -8 0 -15 -4
-15 -9z"/>
<path d="M4916 278 c3 -5 10 -6 15 -3 13 9 11 12 -6 12 -8 0 -12 -4 -9 -9z"/>
<path d="M5160 280 c-9 -6 -10 -10 -3 -10 6 0 15 5 18 10 8 12 4 12 -15 0z"/>
<path d="M5215 280 c3 -5 8 -10 11 -10 2 0 4 5 4 10 0 6 -5 10 -11 10 -5 0 -7
-4 -4 -10z"/>
<path d="M5830 278 c0 -4 4 -8 9 -8 6 0 12 4 15 8 3 5 -1 9 -9 9 -8 0 -15 -4
-15 -9z"/>
<path d="M5876 278 c3 -5 10 -6 15 -3 13 9 11 12 -6 12 -8 0 -12 -4 -9 -9z"/>
<path d="M6310 278 c0 -4 4 -8 9 -8 6 0 12 4 15 8 3 5 -1 9 -9 9 -8 0 -15 -4
-15 -9z"/>
<path d="M6360 280 c-9 -6 -10 -10 -3 -10 6 0 15 5 18 10 8 12 4 12 -15 0z"/>
<path d="M6547 279 c7 -7 15 -10 18 -7 3 3 -2 9 -12 12 -14 6 -15 5 -6 -5z"/>
<path d="M4066 222 c-3 -5 1 -9 9 -9 8 0 15 4 15 9 0 4 -4 8 -9 8 -6 0 -12 -4
-15 -8z"/>
<path d="M4350 222 c0 -5 7 -9 15 -9 8 0 12 4 9 9 -3 4 -9 8 -15 8 -5 0 -9 -4
-9 -8z"/>
<path d="M4115 200 c3 -5 8 -10 11 -10 2 0 4 5 4 10 0 6 -5 10 -11 10 -5 0 -7
-4 -4 -10z"/>
<path d="M4415 191 c-3 -5 -2 -12 3 -15 5 -3 9 1 9 9 0 17 -3 19 -12 6z"/>
<path d="M4276 182 c-3 -5 1 -9 9 -9 8 0 12 4 9 9 -3 4 -7 8 -9 8 -2 0 -6 -4
-9 -8z"/>
<path d="M4330 185 c0 -7 30 -13 34 -7 3 4 -4 9 -15 9 -10 1 -19 0 -19 -2z"/>
</g>
</svg>
