<?xml version="1.0" standalone="no"?>
<!DOCTYPE svg PUBLIC "-//W3C//DTD SVG 20010904//EN"
 "http://www.w3.org/TR/2001/REC-SVG-20010904/DTD/svg10.dtd">
<svg version="1.0" xmlns="http://www.w3.org/2000/svg"
 width="310.000000pt" height="310.000000pt" viewBox="0 0 310.000000 310.000000"
 preserveAspectRatio="xMidYMid meet">
<metadata>
Created by potrace 1.14, written by Peter Selinger 2001-2017
</metadata>
<g transform="translate(0.000000,310.000000) scale(0.100000,-0.100000)"
fill="#000000" stroke="none">
<path d="M0 1550 l0 -1550 1550 0 1550 0 0 1550 0 1550 -1550 0 -1550 0 0
-1550z m1428 233 c64 -101 119 -182 122 -182 3 0 63 90 134 200 71 110 130
198 132 197 1 -2 35 -115 74 -253 39 -137 73 -252 75 -254 2 -2 79 110 171
249 91 138 170 248 174 243 6 -6 292 -448 324 -500 5 -10 -6 -13 -47 -13 l-55
0 -41 65 -40 65 -151 0 -151 0 -41 -65 -41 -66 -100 3 -100 3 -40 140 c-21 77
-42 144 -47 148 -4 5 -56 -64 -116 -152 -59 -89 -111 -161 -114 -161 -3 0 -55
72 -114 161 -60 88 -112 157 -116 152 -5 -4 -26 -71 -47 -148 l-40 -140 -100
-3 -100 -3 -41 66 -41 65 -151 0 -151 0 -40 -65 -41 -65 -55 0 c-55 0 -55 0
-40 23 8 12 85 129 172 261 86 131 161 234 165 230 4 -5 74 -112 155 -239 81
-126 153 -236 160 -243 9 -10 27 39 85 244 66 228 75 254 87 238 8 -11 67
-101 131 -201z m-910 -579 l25 -79 26 79 c37 114 51 111 49 -11 l-2 -98 -4 85
-4 85 -27 -79 c-15 -44 -32 -81 -37 -83 -5 -2 -22 32 -36 74 l-26 78 -1 -77
c-1 -45 -5 -78 -11 -78 -11 0 -14 172 -3 184 15 15 28 -4 51 -80z m354 -4 c31
-93 32 -100 19 -100 -5 0 -12 14 -16 30 -6 26 -11 30 -41 30 -30 0 -37 -4 -45
-30 -6 -16 -15 -30 -21 -30 -6 0 -8 6 -6 13 3 6 17 49 33 95 15 46 32 81 38
79 6 -2 23 -41 39 -87z m273 70 c20 -16 19 -49 -2 -72 -15 -17 -15 -21 0 -54
19 -40 20 -44 9 -44 -5 0 -17 18 -27 40 -14 30 -24 40 -42 40 -20 0 -23 -5
-23 -40 0 -22 -4 -40 -10 -40 -6 0 -10 39 -10 96 l0 97 45 -5 c25 -3 52 -11
60 -18z m183 -31 c-2 -22 -1 -39 2 -39 3 0 24 21 47 47 47 54 68 56 24 2 l-29
-35 29 -50 c30 -51 34 -64 22 -64 -5 0 -21 23 -37 51 l-28 51 -16 -24 c-9 -12
-15 -33 -14 -44 2 -12 -2 -25 -7 -29 -8 -4 -11 25 -11 90 0 67 3 94 11 89 6
-3 9 -24 7 -45z m342 41 c0 -5 -18 -10 -40 -10 -39 0 -40 -1 -40 -35 0 -32 2
-35 33 -37 l32 -1 -32 -4 c-30 -4 -33 -7 -33 -39 0 -34 0 -34 45 -34 25 0 45
-4 45 -10 0 -5 -25 -10 -55 -10 l-55 0 0 95 0 95 50 0 c28 0 50 -4 50 -10z
m250 0 c0 -5 -11 -10 -25 -10 -25 0 -25 -1 -25 -85 0 -50 -4 -85 -10 -85 -6 0
-10 35 -10 85 l0 85 -31 0 c-17 0 -28 4 -24 10 3 6 33 10 66 10 33 0 59 -4 59
-10z m160 -91 c0 -53 -4 -89 -10 -89 -6 0 -10 39 -10 96 0 61 4 93 10 89 6 -3
10 -46 10 -96z m221 24 l44 -78 6 80 5 80 2 -97 c1 -54 -2 -98 -6 -98 -5 0
-29 37 -55 83 l-47 82 0 -82 c0 -49 -4 -83 -10 -83 -6 0 -10 38 -10 95 0 71 3
95 13 95 7 0 33 -35 58 -77z m319 57 c20 -20 26 -40 12 -40 -4 0 -13 9 -20 20
-14 22 -54 27 -70 8 -32 -41 -25 -123 12 -139 17 -8 30 -8 45 0 27 15 28 51 1
51 -11 0 -20 5 -20 10 0 6 14 10 30 10 29 0 30 -2 30 -42 l0 -43 -46 -3 c-55
-4 -81 15 -90 64 -7 39 11 100 34 114 27 15 61 11 82 -10z"/>
<path d="M750 1758 c-25 -40 -46 -76 -48 -80 -2 -4 42 -8 97 -8 56 0 101 2
101 5 0 9 -93 155 -99 155 -3 -1 -26 -33 -51 -72z"/>
<path d="M2250 1758 c-25 -40 -46 -76 -48 -80 -2 -4 42 -8 97 -8 56 0 101 3
101 6 0 10 -93 154 -99 154 -3 -1 -26 -33 -51 -72z"/>
<path d="M820 1234 c-6 -16 -13 -35 -15 -41 -3 -9 6 -13 25 -13 28 0 28 0 18
38 -13 49 -16 50 -28 16z"/>
<path d="M1060 1235 c0 -30 3 -35 24 -35 39 0 56 11 56 35 0 24 -17 35 -56 35
-21 0 -24 -5 -24 -35z"/>
</g>
</svg>
