<svg width="158" height="135" viewBox="0 0 158 135" fill="currentColor" xmlns="http://www.w3.org/2000/svg">
<path d="M80.6432 7L29.2342 23.3595V96.4059L6.5 96.4516V98.7365L29.2342 98.6908V127H31.519V98.6908L132.052 98.4394V23.3595L80.6432 7ZM58.9372 52.7426H56.6523V45.888H102.349V48.1729H58.9372V52.7426ZM61.222 55.0274H79.5008V96.2917L61.222 96.3374V55.0274ZM100.064 96.246L81.7856 96.2917V55.0274H100.064V96.246ZM129.767 96.1775L102.349 96.246V52.7426H61.222V50.4577H104.634V43.6032H54.3675V55.0274H58.9372V96.3374L31.519 96.4059V25.0274L80.6432 9.39909L129.767 25.0274V96.1775Z" fill="white"/>
</svg>
