<svg width="151" height="135" viewBox="0 0 151 135" fill="currentColor" xmlns="http://www.w3.org/2000/svg">
<path d="M42.6698 127H40.5072V102.131H0.5V99.9681H40.5072V72.9362C40.5072 72.5686 40.464 71.9414 40.1612 71.7252C39.1664 71.0764 35.5982 72.7416 33.2627 73.8445C30.6892 75.0339 28.2455 76.18 26.4722 76.18C21.2821 76.18 16.7408 71.6387 16.7408 66.4486C16.7408 61.2584 21.2821 56.7171 26.4722 56.7171C28.2672 56.7171 30.6892 57.8416 33.2627 59.0526C35.6198 60.1555 39.1664 61.8207 40.1612 61.1719C40.464 60.9773 40.5072 60.3285 40.5072 59.9609V30.7664H69.7017C70.0693 30.7664 70.7181 30.7232 70.9127 30.4204C71.5398 29.4257 69.8963 25.8575 68.7934 23.5219C67.604 20.9485 66.4578 18.5048 66.4578 16.7315C66.4578 11.5414 70.9992 7 76.1893 7C81.3794 7 85.9208 11.5414 85.9208 16.7315C85.9208 18.5264 84.7963 20.9485 83.5852 23.5219C82.4823 25.8791 80.8388 29.4257 81.4659 30.4204C81.6606 30.7232 82.3093 30.7664 82.677 30.7664H111.871V102.131H42.6698V127ZM42.6698 99.9681H109.709V32.929H82.677C81.2497 32.929 80.2333 32.4749 79.6494 31.5666C78.3735 29.577 79.9522 26.1818 81.6173 22.592C82.677 20.3429 83.7582 18.0074 83.7582 16.7099C83.7582 13.1416 80.5144 9.14093 76.1893 9.14093C71.8642 9.14093 68.6204 13.1416 68.6204 16.7099C68.6204 18.0074 69.7017 20.3429 70.7613 22.592C72.4265 26.1818 74.0051 29.577 72.7292 31.5666C72.167 32.4749 71.1289 32.929 69.7017 32.929H42.6698V59.9609C42.6698 61.3882 42.2156 62.4046 41.3074 62.9885C39.2962 64.2644 35.9226 62.6857 32.3328 61.0205C30.0837 59.9609 27.7482 58.8796 26.4506 58.8796C22.8824 58.8796 18.8817 62.1234 18.8817 66.4486C18.8817 70.7737 22.8824 74.0175 26.4506 74.0175C27.7482 74.0175 30.0837 72.9362 32.3328 71.8765C35.9226 70.2114 39.3178 68.6327 41.3074 69.9086C42.2156 70.4709 42.6698 71.5089 42.6698 72.9362V99.9681Z" fill="white"/>
</svg>
