<svg width="172" height="135" viewBox="0 0 172 135" fill="currentColor" xmlns="http://www.w3.org/2000/svg">
<path d="M87.8557 127L87.8124 108.562H21.5V106.393H87.8124L87.769 87.9111H42.1074L42.4544 28.692L90.9143 7L139.721 28.6703V108.562H90.0033L90.0466 127H87.8557ZM89.9816 106.393H137.552V30.1019L90.9143 9.38612L44.6019 30.1019L44.2766 85.7419H87.769L87.6822 28.3015H80.3286L89.8297 12.4664L89.8514 26.1323H92.064L91.9989 12.423L101.522 28.3015H94.2549L94.5152 80.3189L94.4067 85.7419H101.63L91.9338 100.341L92.1941 87.9111H89.9816V106.393ZM94.3417 87.9111L94.2332 92.9219L97.5521 87.9111H94.3417ZM89.9599 85.7419H92.2158L92.3243 80.2972L92.064 28.3015H89.8514L89.9599 85.7419ZM94.2115 26.1323H97.6605L94.1681 20.3189L94.2115 26.1323ZM84.1464 26.1323H87.6605V20.2755L84.1464 26.1323Z" fill="white"/>
</svg>
