<svg width="166" height="135" viewBox="0 0 166 135" fill="currentColor" xmlns="http://www.w3.org/2000/svg">
<path d="M129.321 52.813C105.805 52.813 81.6789 9.07317 81.435 8.62602L80.5406 7L79.6463 8.62602C79.4024 9.07317 55.2764 52.813 31.7602 52.813H30.7439V109.724H15.5V111.756H30.7439V127H32.7764V111.756H40.2561L50.4187 103.626H55.2967L45.1341 111.756H60.5813L70.7439 103.626H75.6219L65.4593 111.756H80.9065L91.0691 103.626H95.9472L85.7846 111.756H118.142V58.9715C119.26 59.0935 121.049 59.439 122.207 60.374V111.756H130.337V52.813H129.321ZM71.3943 50.7805H65.3374C65.8659 42.8537 72.4919 36.5528 80.5406 36.5528C88.6098 36.5528 95.2358 42.8537 95.7439 50.7805H71.3943ZM87.5732 52.813C87.325 54.5029 86.4788 56.0477 85.1883 57.1666C83.8978 58.2856 82.2487 58.9044 80.5406 58.9106C76.9634 58.9106 73.9959 56.248 73.5081 52.813H87.5732ZM128.305 109.724H124.24V59.5L123.935 59.1951C121.638 56.8984 117.309 56.8577 117.126 56.8577H116.11V109.703H91.5772L101.74 101.573H90.3577L80.1951 109.703H71.252L81.4146 101.573H70.0325L59.8699 109.703H50.9268L61.0894 101.573H49.7073L39.5447 109.703H32.7764V54.8252C53.4472 53.8293 73.3659 23.2602 79.5244 12.9146V34.561C70.4797 35.0894 63.2642 42.6098 63.2642 51.7764V52.7927H71.4959C72.0041 57.3455 75.8455 60.9228 80.5406 60.9228C85.2358 60.9228 89.0772 57.3455 89.5854 52.7927H97.8171V51.7967C97.8171 42.6098 90.6016 35.1098 81.5569 34.5813V12.9146C87.7154 23.2398 107.634 53.8293 128.305 54.8252V109.724Z" fill="white"/>
</svg>
