<svg width="90" height="81" viewBox="0 0 90 81" fill="none" xmlns="http://www.w3.org/2000/svg">
<line x1="53.9845" y1="49.3186" x2="53.9845" y2="5.42479" stroke="white" stroke-width="1.5"/>
<line x1="43.719" y1="49.3186" x2="43.719" y2="7.54869" stroke="white" stroke-width="1.5"/>
<line x1="33.4535" y1="49.3186" x2="33.4535" y2="9.67259" stroke="white" stroke-width="1.5"/>
<line x1="23.188" y1="49.3186" x2="23.188" y2="11.7965" stroke="white" stroke-width="1.5"/>
<line x1="12.9225" y1="49.3186" x2="12.9225" y2="13.9204" stroke="white" stroke-width="1.5"/>
<line x1="2.65705" y1="49.3186" x2="2.65705" y2="16.0443" stroke="white" stroke-width="1.5"/>
<path d="M82.1001 58.1206H83.7346L86.857 63.1395H86.878V58.1206H88.4182V65.6018H86.7732L83.6613 60.5934H83.6403V65.6018H82.1001V58.1206Z" fill="white"/>
<path d="M76.3941 62.7099H78.3325L77.3895 59.9647H77.3686L76.3941 62.7099ZM76.5513 58.1206H78.2382L81.0358 65.6018H79.3279L78.7621 63.9358H75.9645L75.3778 65.6018H73.7223L76.5513 58.1206Z" fill="white"/>
<path d="M70.3009 59.5037H68.0587V58.1206H74.1882V59.5037H71.946V65.6018H70.3009V59.5037Z" fill="white"/>
<path d="M65.1362 58.1206H66.7812V65.6018H65.1362V58.1206Z" fill="white"/>
<path d="M58.506 58.1206H60.1511V64.2187H63.7974V65.6018H58.506V58.1206Z" fill="white"/>
<path d="M51.252 61.8925C51.252 62.2069 51.2869 62.5142 51.3568 62.8146C51.4336 63.108 51.5523 63.3734 51.713 63.6109C51.8737 63.8484 52.0832 64.0405 52.3417 64.1872C52.6001 64.3269 52.9145 64.3968 53.2847 64.3968C53.6549 64.3968 53.9692 64.3269 54.2277 64.1872C54.4862 64.0405 54.6957 63.8484 54.8564 63.6109C55.017 63.3734 55.1323 63.108 55.2021 62.8146C55.279 62.5142 55.3174 62.2069 55.3174 61.8925C55.3174 61.5642 55.279 61.2464 55.2021 60.9391C55.1323 60.6317 55.017 60.3593 54.8564 60.1218C54.6957 59.8773 54.4862 59.6852 54.2277 59.5455C53.9692 59.3988 53.6549 59.3255 53.2847 59.3255C52.9145 59.3255 52.6001 59.3988 52.3417 59.5455C52.0832 59.6852 51.8737 59.8773 51.713 60.1218C51.5523 60.3593 51.4336 60.6317 51.3568 60.9391C51.2869 61.2464 51.252 61.5642 51.252 61.8925ZM49.607 61.8925C49.607 61.3337 49.6908 60.8168 49.8584 60.3418C50.0261 59.8598 50.2671 59.4407 50.5814 59.0845C50.8957 58.7282 51.2799 58.4488 51.734 58.2462C52.195 58.0437 52.7119 57.9424 53.2847 57.9424C53.8645 57.9424 54.3814 58.0437 54.8354 58.2462C55.2895 58.4488 55.6736 58.7282 55.988 59.0845C56.3023 59.4407 56.5433 59.8598 56.711 60.3418C56.8786 60.8168 56.9624 61.3337 56.9624 61.8925C56.9624 62.4374 56.8786 62.9473 56.711 63.4223C56.5433 63.8903 56.3023 64.299 55.988 64.6482C55.6736 64.9975 55.2895 65.2734 54.8354 65.476C54.3814 65.6716 53.8645 65.7694 53.2847 65.7694C52.7119 65.7694 52.195 65.6716 51.734 65.476C51.2799 65.2734 50.8957 64.9975 50.5814 64.6482C50.2671 64.299 50.0261 63.8903 49.8584 63.4223C49.6908 62.9473 49.607 62.4374 49.607 61.8925Z" fill="white"/>
<path d="M44.169 61.6412H45.4473C45.6359 61.6412 45.8176 61.6272 45.9922 61.5993C46.1668 61.5713 46.3205 61.5189 46.4532 61.4421C46.5859 61.3583 46.6907 61.243 46.7675 61.0963C46.8514 60.9496 46.8933 60.7575 46.8933 60.52C46.8933 60.2825 46.8514 60.0904 46.7675 59.9438C46.6907 59.7971 46.5859 59.6853 46.4532 59.6085C46.3205 59.5246 46.1668 59.4688 45.9922 59.4408C45.8176 59.4129 45.6359 59.3989 45.4473 59.3989H44.169V61.6412ZM42.524 58.1206H45.8979C46.3659 58.1206 46.7641 58.1905 47.0924 58.3302C47.4207 58.4629 47.6861 58.641 47.8887 58.8645C48.0982 59.0881 48.2484 59.343 48.3392 59.6294C48.437 59.9158 48.4859 60.2127 48.4859 60.52C48.4859 60.8204 48.437 61.1173 48.3392 61.4107C48.2484 61.6971 48.0982 61.952 47.8887 62.1755C47.6861 62.3991 47.4207 62.5807 47.0924 62.7204C46.7641 62.8531 46.3659 62.9195 45.8979 62.9195H44.169V65.6018H42.524V58.1206Z" fill="white"/>
<path d="M35.27 61.8925C35.27 62.2069 35.3049 62.5142 35.3747 62.8146C35.4516 63.108 35.5703 63.3734 35.731 63.6109C35.8916 63.8484 36.1012 64.0405 36.3597 64.1872C36.6181 64.3269 36.9324 64.3968 37.3027 64.3968C37.6729 64.3968 37.9872 64.3269 38.2457 64.1872C38.5041 64.0405 38.7137 63.8484 38.8743 63.6109C39.035 63.3734 39.1503 63.108 39.2201 62.8146C39.2969 62.5142 39.3354 62.2069 39.3354 61.8925C39.3354 61.5642 39.2969 61.2464 39.2201 60.9391C39.1503 60.6317 39.035 60.3593 38.8743 60.1218C38.7137 59.8773 38.5041 59.6852 38.2457 59.5455C37.9872 59.3988 37.6729 59.3255 37.3027 59.3255C36.9324 59.3255 36.6181 59.3988 36.3597 59.5455C36.1012 59.6852 35.8916 59.8773 35.731 60.1218C35.5703 60.3593 35.4516 60.6317 35.3747 60.9391C35.3049 61.2464 35.27 61.5642 35.27 61.8925ZM33.6249 61.8925C33.6249 61.3337 33.7087 60.8168 33.8764 60.3418C34.044 59.8598 34.285 59.4407 34.5994 59.0845C34.9137 58.7282 35.2979 58.4488 35.7519 58.2462C36.213 58.0437 36.7299 57.9424 37.3027 57.9424C37.8824 57.9424 38.3993 58.0437 38.8534 58.2462C39.3074 58.4488 39.6916 58.7282 40.006 59.0845C40.3203 59.4407 40.5613 59.8598 40.7289 60.3418C40.8966 60.8168 40.9804 61.3337 40.9804 61.8925C40.9804 62.4374 40.8966 62.9473 40.7289 63.4223C40.5613 63.8903 40.3203 64.299 40.006 64.6482C39.6916 64.9975 39.3074 65.2734 38.8534 65.476C38.3993 65.6716 37.8824 65.7694 37.3027 65.7694C36.7299 65.7694 36.213 65.6716 35.7519 65.476C35.2979 65.2734 34.9137 64.9975 34.5994 64.6482C34.285 64.299 34.044 63.8903 33.8764 63.4223C33.7087 62.9473 33.6249 62.4374 33.6249 61.8925Z" fill="white"/>
<path d="M27.614 61.505H29.4162C29.7934 61.505 30.0763 61.4211 30.2649 61.2535C30.4535 61.0858 30.5478 60.8134 30.5478 60.4362C30.5478 60.073 30.4535 59.811 30.2649 59.6504C30.0763 59.4827 29.7934 59.3989 29.4162 59.3989H27.614V61.505ZM25.969 58.1206H30.0029C30.3382 58.1206 30.6386 58.1765 30.904 58.2883C31.1765 58.393 31.407 58.5397 31.5956 58.7283C31.7912 58.9169 31.9379 59.137 32.0356 59.3884C32.1404 59.6329 32.1928 59.8984 32.1928 60.1847C32.1928 60.6248 32.0985 61.0055 31.9099 61.3268C31.7283 61.6482 31.4279 61.8926 31.0088 62.0603V62.0812C31.2114 62.1371 31.379 62.2244 31.5117 62.3432C31.6445 62.455 31.7527 62.5912 31.8366 62.7518C31.9204 62.9055 31.9798 63.0766 32.0147 63.2652C32.0566 63.4538 32.0845 63.6424 32.0985 63.831C32.1055 63.9498 32.1125 64.0895 32.1195 64.2502C32.1265 64.4108 32.1369 64.575 32.1509 64.7426C32.1719 64.9103 32.1998 65.0709 32.2347 65.2246C32.2766 65.3713 32.336 65.497 32.4128 65.6018H30.7678C30.677 65.3643 30.6211 65.0814 30.6002 64.7531C30.5792 64.4248 30.5478 64.1105 30.5059 63.8101C30.45 63.4189 30.3312 63.1325 30.1496 62.9509C29.968 62.7693 29.6711 62.6785 29.259 62.6785H27.614V65.6018H25.969V58.1206Z" fill="white"/>
<path d="M20.7999 59.5037H18.5577V58.1206H24.6872V59.5037H22.445V65.6018H20.7999V59.5037Z" fill="white"/>
<path d="M11.9311 58.1206H17.5262V59.5037H13.5761V61.1068H17.2014V62.3851H13.5761V64.2187H17.6101V65.6018H11.9311V58.1206Z" fill="white"/>
<path d="M2.00613 58.1206H4.32174L6.07155 63.2652H6.09251L7.74801 58.1206H10.0636V65.6018H8.52337V60.3H8.50242L6.66879 65.6018H5.40097L3.56734 60.3524H3.54638V65.6018H2.00613V58.1206Z" fill="white"/>
<path d="M84.0975 76.0389C84.0975 76.2903 84.1429 76.5034 84.2337 76.678C84.3245 76.8526 84.4432 76.9958 84.5899 77.1076C84.7436 77.2124 84.9217 77.2927 85.1243 77.3486C85.3269 77.3975 85.5364 77.4219 85.753 77.4219C85.8997 77.4219 86.0568 77.4115 86.2245 77.3905C86.3921 77.3626 86.5493 77.3137 86.696 77.2438C86.8427 77.174 86.9649 77.0797 87.0627 76.9609C87.1605 76.8352 87.2094 76.678 87.2094 76.4894C87.2094 76.2868 87.143 76.1227 87.0103 75.997C86.8846 75.8712 86.7169 75.7664 86.5074 75.6826C86.2978 75.5988 86.0603 75.5254 85.7949 75.4626C85.5295 75.3997 85.2605 75.3299 84.9881 75.253C84.7087 75.1832 84.4363 75.0993 84.1708 75.0016C83.9054 74.8968 83.6679 74.7641 83.4583 74.6034C83.2488 74.4427 83.0776 74.2437 82.9449 74.0062C82.8192 73.7617 82.7563 73.4683 82.7563 73.126C82.7563 72.7418 82.8366 72.41 82.9973 72.1306C83.1649 71.8442 83.3815 71.6067 83.6469 71.4181C83.9124 71.2295 84.2127 71.0898 84.548 70.999C84.8833 70.9082 85.2186 70.8628 85.5539 70.8628C85.9451 70.8628 86.3188 70.9082 86.675 70.999C87.0383 71.0828 87.3596 71.2225 87.639 71.4181C87.9184 71.6137 88.1384 71.8652 88.2991 72.1725C88.4668 72.4729 88.5506 72.8396 88.5506 73.2727H86.9579C86.944 73.0492 86.8951 72.8641 86.8113 72.7174C86.7344 72.5707 86.6296 72.4554 86.4969 72.3716C86.3642 72.2878 86.2105 72.2284 86.0359 72.1935C85.8682 72.1586 85.6831 72.1411 85.4806 72.1411C85.3478 72.1411 85.2151 72.1551 85.0824 72.183C84.9497 72.2109 84.8274 72.2598 84.7157 72.3297C84.6109 72.3995 84.5236 72.4869 84.4537 72.5916C84.3839 72.6964 84.3489 72.8291 84.3489 72.9898C84.3489 73.1365 84.3769 73.2552 84.4328 73.346C84.4887 73.4369 84.5969 73.5207 84.7576 73.5975C84.9252 73.6744 85.1523 73.7512 85.4386 73.828C85.732 73.9049 86.1127 74.0027 86.5807 74.1214C86.7204 74.1494 86.9125 74.2017 87.157 74.2786C87.4085 74.3484 87.6565 74.4637 87.901 74.6244C88.1454 74.785 88.355 75.0016 88.5296 75.274C88.7112 75.5394 88.802 75.8817 88.802 76.3008C88.802 76.6431 88.7357 76.9609 88.603 77.2543C88.4702 77.5477 88.2712 77.8026 88.0057 78.0192C87.7473 78.2287 87.4225 78.3929 87.0313 78.5116C86.6471 78.6304 86.2 78.6898 85.6901 78.6898C85.278 78.6898 84.8763 78.6374 84.4852 78.5326C84.101 78.4348 83.7587 78.2776 83.4583 78.0611C83.165 77.8446 82.9309 77.5686 82.7563 77.2333C82.5817 76.898 82.4979 76.4999 82.5048 76.0389H84.0975Z" fill="white"/>
<path d="M74.3904 71.041H79.9856V72.4241H76.0354V74.0272H79.6607V75.3055H76.0354V77.1391H80.0694V78.5222H74.3904V71.041Z" fill="white"/>
<path d="M66.682 74.4254H68.4842C68.8614 74.4254 69.1443 74.3415 69.3329 74.1739C69.5215 74.0063 69.6158 73.7338 69.6158 73.3566C69.6158 72.9934 69.5215 72.7314 69.3329 72.5708C69.1443 72.4031 68.8614 72.3193 68.4842 72.3193H66.682V74.4254ZM65.037 71.041H69.071C69.4063 71.041 69.7066 71.0969 69.9721 71.2087C70.2445 71.3134 70.475 71.4601 70.6636 71.6487C70.8592 71.8373 71.0059 72.0574 71.1037 72.3088C71.2085 72.5533 71.2609 72.8188 71.2609 73.1052C71.2609 73.5452 71.1666 73.9259 70.978 74.2472C70.7963 74.5686 70.496 74.8131 70.0769 74.9807V75.0017C70.2794 75.0575 70.4471 75.1449 70.5798 75.2636C70.7125 75.3754 70.8208 75.5116 70.9046 75.6722C70.9884 75.8259 71.0478 75.9971 71.0827 76.1857C71.1246 76.3743 71.1526 76.5629 71.1666 76.7515C71.1735 76.8702 71.1805 77.0099 71.1875 77.1706C71.1945 77.3312 71.205 77.4954 71.219 77.663C71.2399 77.8307 71.2678 77.9913 71.3028 78.145C71.3447 78.2917 71.4041 78.4174 71.4809 78.5222H69.8359C69.7451 78.2847 69.6892 78.0018 69.6682 77.6735C69.6473 77.3452 69.6158 77.0309 69.5739 76.7305C69.518 76.3393 69.3993 76.0529 69.2177 75.8713C69.0361 75.6897 68.7392 75.5989 68.3271 75.5989H66.682V78.5222H65.037V71.041Z" fill="white"/>
<path d="M61.8286 75.6932C61.8286 76.7061 61.5457 77.4605 60.9798 77.9564C60.414 78.4454 59.6317 78.6899 58.6328 78.6899C57.6199 78.6899 56.8341 78.4454 56.2753 77.9564C55.7234 77.4674 55.4475 76.713 55.4475 75.6932V71.041H57.0926V75.6932C57.0926 75.8958 57.11 76.0948 57.1449 76.2904C57.1799 76.486 57.2532 76.6607 57.365 76.8143C57.4767 76.961 57.6304 77.0833 57.826 77.1811C58.0286 77.2719 58.2975 77.3173 58.6328 77.3173C59.2196 77.3173 59.6247 77.188 59.8482 76.9296C60.0718 76.6641 60.1835 76.252 60.1835 75.6932V71.041H61.8286V75.6932Z" fill="white"/>
<path d="M48.9373 72.4241H46.6951V71.041H52.8246V72.4241H50.5824V78.5222H48.9373V72.4241Z" fill="white"/>
<path d="M42.7113 73.5556C42.6833 73.367 42.6205 73.1959 42.5227 73.0422C42.4249 72.8815 42.3026 72.7418 42.1559 72.6231C42.0092 72.5043 41.8416 72.4135 41.653 72.3507C41.4714 72.2808 41.2793 72.2459 41.0767 72.2459C40.7065 72.2459 40.3922 72.3192 40.1337 72.4659C39.8753 72.6056 39.6657 72.7977 39.505 73.0422C39.3444 73.2797 39.2256 73.5521 39.1488 73.8595C39.0789 74.1668 39.044 74.4846 39.044 74.813C39.044 75.1273 39.0789 75.4346 39.1488 75.735C39.2256 76.0284 39.3444 76.2938 39.505 76.5313C39.6657 76.7688 39.8753 76.9609 40.1337 77.1076C40.3922 77.2473 40.7065 77.3172 41.0767 77.3172C41.5797 77.3172 41.9708 77.1635 42.2502 76.8561C42.5366 76.5488 42.7113 76.1436 42.7741 75.6407H44.3668C44.3249 76.1087 44.2166 76.5313 44.042 76.9085C43.8673 77.2857 43.6368 77.6071 43.3504 77.8725C43.064 78.1379 42.7287 78.3405 42.3445 78.4802C41.9604 78.6199 41.5377 78.6898 41.0767 78.6898C40.5039 78.6898 39.987 78.592 39.526 78.3964C39.0719 78.1938 38.6878 77.9179 38.3734 77.5686C38.0591 77.2194 37.8181 76.8107 37.6505 76.3427C37.4828 75.8677 37.399 75.3578 37.399 74.813C37.399 74.2541 37.4828 73.7372 37.6505 73.2622C37.8181 72.7802 38.0591 72.3611 38.3734 72.0049C38.6878 71.6486 39.0719 71.3692 39.526 71.1667C39.987 70.9641 40.5039 70.8628 41.0767 70.8628C41.4888 70.8628 41.8765 70.9222 42.2398 71.0409C42.61 71.1597 42.9383 71.3343 43.2247 71.5648C43.5181 71.7883 43.7591 72.0677 43.9477 72.403C44.1363 72.7383 44.255 73.1225 44.3039 73.5556H42.7113Z" fill="white"/>
<path d="M34.5154 75.6932C34.5154 76.7061 34.2325 77.4605 33.6667 77.9564C33.1008 78.4454 32.3185 78.6899 31.3196 78.6899C30.3067 78.6899 29.5209 78.4454 28.9621 77.9564C28.4102 77.4674 28.1343 76.713 28.1343 75.6932V71.041H29.7794V75.6932C29.7794 75.8958 29.7968 76.0948 29.8317 76.2904C29.8667 76.486 29.94 76.6607 30.0518 76.8143C30.1635 76.961 30.3172 77.0833 30.5128 77.1811C30.7154 77.2719 30.9843 77.3173 31.3196 77.3173C31.9064 77.3173 32.3115 77.188 32.535 76.9296C32.7586 76.6641 32.8703 76.252 32.8703 75.6932V71.041H34.5154V75.6932Z" fill="white"/>
<path d="M20.4574 74.4254H22.2596C22.6368 74.4254 22.9197 74.3415 23.1083 74.1739C23.2969 74.0063 23.3912 73.7338 23.3912 73.3566C23.3912 72.9934 23.2969 72.7314 23.1083 72.5708C22.9197 72.4031 22.6368 72.3193 22.2596 72.3193H20.4574V74.4254ZM18.8124 71.041H22.8464C23.1816 71.041 23.482 71.0969 23.7475 71.2087C24.0199 71.3134 24.2504 71.4601 24.439 71.6487C24.6346 71.8373 24.7813 72.0574 24.8791 72.3088C24.9838 72.5533 25.0362 72.8188 25.0362 73.1052C25.0362 73.5452 24.9419 73.9259 24.7533 74.2472C24.5717 74.5686 24.2713 74.8131 23.8522 74.9807V75.0017C24.0548 75.0575 24.2224 75.1449 24.3552 75.2636C24.4879 75.3754 24.5962 75.5116 24.68 75.6722C24.7638 75.8259 24.8232 75.9971 24.8581 76.1857C24.9 76.3743 24.928 76.5629 24.9419 76.7515C24.9489 76.8702 24.9559 77.0099 24.9629 77.1706C24.9699 77.3312 24.9804 77.4954 24.9943 77.663C25.0153 77.8307 25.0432 77.9913 25.0781 78.145C25.1201 78.2917 25.1794 78.4174 25.2563 78.5222H23.6112C23.5204 78.2847 23.4646 78.0018 23.4436 77.6735C23.4226 77.3452 23.3912 77.0309 23.3493 76.7305C23.2934 76.3393 23.1747 76.0529 22.993 75.8713C22.8114 75.6897 22.5146 75.5989 22.1024 75.5989H20.4574V78.5222H18.8124V71.041Z" fill="white"/>
<path d="M12.2707 72.4241H10.0285V71.041H16.158V72.4241H13.9158V78.5222H12.2707V72.4241Z" fill="white"/>
<path d="M3.14017 76.0389C3.14017 76.2903 3.18558 76.5034 3.27639 76.678C3.3672 76.8526 3.48594 76.9958 3.63263 77.1076C3.78631 77.2124 3.96443 77.2927 4.16701 77.3486C4.36958 77.3975 4.57914 77.4219 4.79568 77.4219C4.94237 77.4219 5.09954 77.4115 5.26718 77.3905C5.43483 77.3626 5.592 77.3137 5.73869 77.2438C5.88538 77.174 6.00762 77.0797 6.10541 76.9609C6.20321 76.8352 6.2521 76.678 6.2521 76.4894C6.2521 76.2868 6.18574 76.1227 6.05302 75.997C5.92729 75.8712 5.75964 75.7664 5.55009 75.6826C5.34053 75.5988 5.10303 75.5254 4.83759 75.4626C4.57215 75.3997 4.30322 75.3299 4.03079 75.253C3.75138 75.1832 3.47896 75.0993 3.21352 75.0016C2.94808 74.8968 2.71058 74.7641 2.50102 74.6034C2.29147 74.4427 2.12033 74.2437 1.98761 74.0062C1.86187 73.7617 1.79901 73.4683 1.79901 73.126C1.79901 72.7418 1.87934 72.41 2.04 72.1306C2.20764 71.8442 2.42419 71.6067 2.68963 71.4181C2.95507 71.2295 3.25543 71.0898 3.59072 70.999C3.92602 70.9082 4.26131 70.8628 4.5966 70.8628C4.98777 70.8628 5.36148 70.9082 5.71773 70.999C6.08097 71.0828 6.40229 71.2225 6.6817 71.4181C6.96111 71.6137 7.18114 71.8652 7.3418 72.1725C7.50945 72.4729 7.59327 72.8396 7.59327 73.2727H6.00064C5.98666 73.0492 5.93777 72.8641 5.85394 72.7174C5.77711 72.5707 5.67233 72.4554 5.53961 72.3716C5.40689 72.2878 5.25321 72.2284 5.07858 72.1935C4.91094 72.1586 4.72583 72.1411 4.52325 72.1411C4.39053 72.1411 4.25781 72.1551 4.1251 72.183C3.99238 72.2109 3.87013 72.2598 3.75837 72.3297C3.65359 72.3995 3.56628 72.4869 3.49642 72.5916C3.42657 72.6964 3.39164 72.8291 3.39164 72.9898C3.39164 73.1365 3.41958 73.2552 3.47547 73.346C3.53135 73.4369 3.63962 73.5207 3.80028 73.5975C3.96793 73.6744 4.19495 73.7512 4.48134 73.828C4.77472 73.9049 5.15542 74.0027 5.62343 74.1214C5.76314 74.1494 5.95523 74.2017 6.19971 74.2786C6.45118 74.3484 6.69916 74.4637 6.94364 74.6244C7.18813 74.785 7.39769 75.0016 7.57232 75.274C7.75393 75.5394 7.84474 75.8817 7.84474 76.3008C7.84474 76.6431 7.77838 76.9609 7.64566 77.2543C7.51294 77.5477 7.31386 77.8026 7.04842 78.0192C6.78997 78.2287 6.46515 78.3929 6.07398 78.5116C5.68979 78.6304 5.24274 78.6898 4.73281 78.6898C4.32068 78.6898 3.91903 78.6374 3.52786 78.5326C3.14367 78.4348 2.80139 78.2776 2.50102 78.0611C2.20764 77.8446 1.97364 77.5686 1.79901 77.2333C1.62438 76.898 1.54055 76.4999 1.54754 76.0389H3.14017Z" fill="white"/>
<path d="M65.354 49.3185V3.47778L86.5929 8.43354V49.3185" stroke="white" stroke-width="3"/>
<path d="M75.9734 5.95557V49.3184" stroke="white" stroke-width="3"/>
<line y1="-1.5" x2="63.3618" y2="-1.5" transform="matrix(0.972082 -0.234641 -0.234641 -0.972082 0.575195 15.0671)" stroke="transparent" stroke-width="3"/>
</svg>
