<svg width="1328" height="617" viewBox="0 0 1328 617" fill="none" xmlns="http://www.w3.org/2000/svg">
<path d="M76.8785 132.608H141.903L138.191 149.504H93.3905L88.9105 170.624H128.079L124.751 186.24H85.7105L77.6465 224H57.6785L76.8785 132.608ZM152.626 132.608H172.85L157.234 207.104H201.394L197.81 224H133.553L152.626 132.608ZM226.126 132.608H295.886L292.43 149.504H242.766L238.67 169.088H284.622L281.294 184.704H235.342L230.606 207.104H281.038L277.454 224H207.053L226.126 132.608ZM325.453 175.872L304.077 132.608H325.965L338.893 162.816L362.317 132.608H386.125L348.109 176.768L370.765 224H348.621L334.285 191.36L308.173 224H283.98L325.453 175.872ZM397.003 132.608H417.228L397.9 224H377.803L397.003 132.608ZM446.399 169.6H469.183C472.852 169.6 476.009 168.619 478.655 166.656C481.385 164.608 482.751 161.579 482.751 157.568C482.751 153.984 481.769 151.552 479.807 150.272C477.929 148.907 475.369 148.224 472.127 148.224H450.879L446.399 169.6ZM434.751 132.608H473.151C477.759 132.608 481.897 132.907 485.567 133.504C489.236 134.101 492.351 135.211 494.911 136.832C497.471 138.368 499.433 140.544 500.799 143.36C502.164 146.091 502.847 149.632 502.847 153.984C502.847 156.544 502.463 159.061 501.695 161.536C500.927 163.925 499.775 166.101 498.239 168.064C496.788 169.941 494.996 171.52 492.863 172.8C490.815 174.08 488.425 174.891 485.695 175.232V175.488C490.047 176.683 493.375 178.987 495.679 182.4C498.068 185.728 499.263 189.611 499.263 194.048C499.263 198.997 498.281 203.349 496.319 207.104C494.441 210.859 491.881 213.973 488.639 216.448C485.396 218.923 481.684 220.8 477.503 222.08C473.321 223.36 468.927 224 464.319 224H415.678L434.751 132.608ZM438.207 208.384H463.423C468.031 208.384 471.785 207.147 474.687 204.672C477.673 202.197 479.167 198.528 479.167 193.664C479.167 191.275 478.655 189.397 477.631 188.032C476.692 186.667 475.455 185.643 473.919 184.96C472.383 184.192 470.676 183.723 468.799 183.552C466.921 183.381 465.087 183.296 463.295 183.296H443.583L438.207 208.384ZM527.253 132.608H547.478L528.15 224H508.053L527.253 132.608ZM565.001 132.608H585.225L569.609 207.104H613.769L610.185 224H545.928L565.001 132.608ZM638.628 132.608H658.853L639.525 224H619.428L638.628 132.608ZM693.272 149.504H664.6L668.184 132.608H744.472L740.888 149.504H713.496L697.88 224H677.656L693.272 149.504ZM765.634 188.544L743.746 132.608H764.354L778.05 171.52L806.465 132.608H830.146L785.602 189.44L778.562 224H758.338L765.634 188.544Z" fill="white"/>
<path d="M726.544 281.169L658 281.169L658 277.521L726.544 277.521L726.544 281.169ZM716.656 293.646L726.544 293.646L726.544 297.294L716.656 297.294L716.656 293.646ZM658 293.646L707.344 293.646L707.344 297.294L658 297.294L658 293.646ZM707.344 349.707L660.592 349.707C657.84 349.707 655.184 349.387 652.624 348.747C650 348.107 647.696 346.987 645.712 345.387C643.728 343.851 642.16 341.707 641.008 338.955C639.792 336.203 639.184 332.715 639.184 328.491C639.184 325.867 639.472 323.403 640.048 321.099C640.56 318.795 641.424 316.779 642.64 315.051C643.792 313.323 645.36 311.915 647.344 310.827C649.264 309.803 651.664 309.227 654.544 309.099L654.544 312.747C652.368 312.939 650.512 313.483 648.976 314.379C647.44 315.275 646.192 316.427 645.232 317.835C644.208 319.307 643.472 320.939 643.024 322.731C642.576 324.523 642.352 326.443 642.352 328.491C642.352 331.883 642.864 334.699 643.888 336.939C644.912 339.243 646.256 341.067 647.92 342.411C649.52 343.755 651.376 344.683 653.488 345.195C655.536 345.771 657.616 346.059 659.728 346.059L671.056 346.059L671.056 345.867C667.408 344.139 664.624 341.771 662.704 338.763C660.784 335.819 659.824 332.235 659.824 328.011C659.824 324.363 660.432 321.195 661.648 318.507C662.928 315.883 664.656 313.675 666.832 311.883C669.072 310.155 671.664 308.843 674.608 307.947C677.552 307.115 680.752 306.699 684.208 306.699C687.472 306.699 690.576 307.147 693.52 308.043C696.464 309.003 699.024 310.379 701.2 312.171C703.44 313.963 705.2 316.171 706.48 318.795C707.824 321.483 708.496 324.555 708.496 328.011C708.496 331.915 707.504 335.499 705.52 338.763C703.536 342.091 700.72 344.459 697.072 345.867L697.072 346.059L707.344 346.059L707.344 349.707ZM705.328 328.011C705.328 325.003 704.72 322.379 703.504 320.139C702.288 317.963 700.688 316.139 698.704 314.667C696.72 313.259 694.448 312.171 691.888 311.403C689.392 310.699 686.832 310.347 684.208 310.347C681.328 310.347 678.576 310.699 675.952 311.403C673.392 312.171 671.152 313.291 669.232 314.763C667.312 316.299 665.776 318.155 664.624 320.331C663.536 322.571 662.992 325.131 662.992 328.011C662.992 331.019 663.568 333.643 664.72 335.883C665.872 338.123 667.44 339.979 669.424 341.451C671.408 342.987 673.648 344.107 676.144 344.811C678.704 345.579 681.392 345.963 684.208 345.963C686.96 345.963 689.616 345.579 692.176 344.811C694.736 344.107 696.976 342.987 698.896 341.451C700.88 339.979 702.448 338.123 703.6 335.883C704.752 333.643 705.328 331.019 705.328 328.011ZM726.544 364.118L696.784 364.118L696.784 364.31C698.64 364.95 700.272 365.846 701.68 366.998C703.152 368.214 704.4 369.59 705.424 371.126C706.448 372.726 707.216 374.454 707.728 376.31C708.24 378.166 708.496 380.054 708.496 381.974C708.496 384.854 708.144 387.286 707.44 389.27C706.736 391.318 705.808 392.982 704.656 394.262C703.504 395.542 702.192 396.534 700.72 397.238C699.312 398.006 697.872 398.55 696.4 398.87C694.928 399.19 693.488 399.382 692.08 399.446C690.736 399.51 689.552 399.542 688.528 399.542L658 399.542L658 395.894L689.2 395.894C690.416 395.894 691.952 395.798 693.808 395.606C695.664 395.414 697.424 394.838 699.088 393.878C700.816 392.982 702.288 391.574 703.504 389.654C704.72 387.798 705.328 385.206 705.328 381.878C705.328 379.062 704.816 376.566 703.792 374.39C702.768 372.214 701.328 370.358 699.472 368.822C697.68 367.286 695.504 366.102 692.944 365.27C690.448 364.502 687.696 364.118 684.688 364.118L658 364.118L658 360.47L726.544 360.47L726.544 364.118ZM704.176 428.395L704.176 417.643L669.712 417.643C667.728 417.643 666.16 417.867 665.008 418.315C663.856 418.763 662.96 419.435 662.32 420.331C661.744 421.291 661.392 422.411 661.264 423.691C661.136 425.035 661.104 426.571 661.168 428.299L658 428.299C657.872 426.443 657.872 424.619 658 422.827C658.192 421.099 658.672 419.563 659.44 418.219C660.272 416.875 661.488 415.787 663.088 414.955C664.688 414.187 666.896 413.867 669.712 413.995L704.176 413.995L704.176 404.875L707.344 404.875L707.344 413.995L722.704 413.995L722.704 417.643L707.344 417.643L707.344 428.395L704.176 428.395Z" fill="white"/>
<path d="M757.335 283.2H788.735V338H846.535V283.2H877.935V426H846.535V364.4H788.735V426H757.335V283.2ZM1026.78 372C1026.78 391.333 1021.38 405.733 1010.58 415.2C999.777 424.533 984.844 429.2 965.777 429.2C946.444 429.2 931.444 424.533 920.777 415.2C910.244 405.867 904.977 391.467 904.977 372V283.2H936.377V372C936.377 375.867 936.711 379.667 937.377 383.4C938.044 387.133 939.444 390.467 941.577 393.4C943.711 396.2 946.644 398.533 950.377 400.4C954.244 402.133 959.377 403 965.777 403C976.977 403 984.711 400.533 988.977 395.6C993.244 390.533 995.377 382.667 995.377 372V283.2H1026.78V372ZM1157.02 409.8C1151.42 417 1145.22 422.067 1138.42 425C1131.62 427.8 1124.75 429.2 1117.82 429.2C1106.89 429.2 1097.02 427.333 1088.22 423.6C1079.55 419.733 1072.22 414.467 1066.22 407.8C1060.22 401.133 1055.62 393.333 1052.42 384.4C1049.22 375.333 1047.62 365.6 1047.62 355.2C1047.62 344.533 1049.22 334.667 1052.42 325.6C1055.62 316.4 1060.22 308.4 1066.22 301.6C1072.22 294.8 1079.55 289.467 1088.22 285.6C1097.02 281.733 1106.89 279.8 1117.82 279.8C1125.15 279.8 1132.22 280.933 1139.02 283.2C1145.95 285.333 1152.15 288.533 1157.62 292.8C1163.22 297.067 1167.82 302.333 1171.42 308.6C1175.02 314.867 1177.22 322.067 1178.02 330.2H1148.02C1146.15 322.2 1142.55 316.2 1137.22 312.2C1131.89 308.2 1125.42 306.2 1117.82 306.2C1110.75 306.2 1104.75 307.6 1099.82 310.4C1094.89 313.067 1090.89 316.733 1087.82 321.4C1084.75 325.933 1082.49 331.133 1081.02 337C1079.69 342.867 1079.02 348.933 1079.02 355.2C1079.02 361.2 1079.69 367.067 1081.02 372.8C1082.49 378.4 1084.75 383.467 1087.82 388C1090.89 392.533 1094.89 396.2 1099.82 399C1104.75 401.667 1110.75 403 1117.82 403C1128.22 403 1136.22 400.4 1141.82 395.2C1147.55 389.867 1150.89 382.2 1151.82 372.2H1120.22V348.8H1180.22V426H1160.22L1157.02 409.8ZM1205.58 283.2H1312.38V309.6H1236.98V340.2H1306.18V364.6H1236.98V399.6H1313.98V426H1205.58V283.2Z" fill="white"/>
<path d="M467.541 49.088C467.669 46.9547 468.202 45.184 469.141 43.776C470.079 42.368 471.274 41.2373 472.725 40.384C474.175 39.5307 475.797 38.9333 477.589 38.592C479.423 38.208 481.258 38.016 483.093 38.016C484.757 38.016 486.442 38.144 488.149 38.4C489.855 38.6133 491.413 39.0613 492.821 39.744C494.229 40.4267 495.381 41.3867 496.277 42.624C497.173 43.8187 497.621 45.4187 497.621 47.424V64.64C497.621 66.1333 497.706 67.5627 497.877 68.928C498.047 70.2933 498.346 71.3173 498.773 72H489.557C489.386 71.488 489.237 70.976 489.109 70.464C489.023 69.9093 488.959 69.3547 488.917 68.8C487.466 70.2933 485.759 71.3387 483.797 71.936C481.834 72.5333 479.829 72.832 477.781 72.832C476.202 72.832 474.73 72.64 473.365 72.256C471.999 71.872 470.805 71.2747 469.781 70.464C468.757 69.6533 467.946 68.6293 467.349 67.392C466.794 66.1547 466.517 64.6827 466.517 62.976C466.517 61.0987 466.837 59.5627 467.477 58.368C468.159 57.1307 469.013 56.1493 470.037 55.424C471.103 54.6987 472.298 54.1653 473.621 53.824C474.986 53.44 476.351 53.1413 477.717 52.928C479.082 52.7147 480.426 52.544 481.749 52.416C483.071 52.288 484.245 52.096 485.269 51.84C486.293 51.584 487.103 51.2213 487.701 50.752C488.298 50.24 488.575 49.5147 488.533 48.576C488.533 47.5947 488.362 46.8267 488.021 46.272C487.722 45.6747 487.295 45.2267 486.741 44.928C486.229 44.5867 485.61 44.3733 484.885 44.288C484.202 44.16 483.455 44.096 482.645 44.096C480.853 44.096 479.445 44.48 478.421 45.248C477.397 46.016 476.799 47.296 476.629 49.088H467.541ZM488.533 55.808C488.149 56.1493 487.658 56.4267 487.061 56.64C486.506 56.8107 485.887 56.96 485.205 57.088C484.565 57.216 483.882 57.3227 483.157 57.408C482.431 57.4933 481.706 57.6 480.981 57.728C480.298 57.856 479.615 58.0267 478.933 58.24C478.293 58.4533 477.717 58.752 477.205 59.136C476.735 59.4773 476.351 59.9253 476.053 60.48C475.754 61.0347 475.605 61.7387 475.605 62.592C475.605 63.4027 475.754 64.0853 476.053 64.64C476.351 65.1947 476.757 65.6427 477.269 65.984C477.781 66.2827 478.378 66.496 479.061 66.624C479.743 66.752 480.447 66.816 481.173 66.816C482.965 66.816 484.351 66.5173 485.333 65.92C486.314 65.3227 487.039 64.6187 487.509 63.808C487.978 62.9547 488.255 62.1013 488.341 61.248C488.469 60.3947 488.533 59.712 488.533 59.2V55.808ZM504.931 26.304H514.019V72H504.931V26.304ZM552.215 72H543.575V67.392H543.383C542.231 69.312 540.737 70.6987 538.903 71.552C537.068 72.4053 535.191 72.832 533.271 72.832C530.839 72.832 528.833 72.512 527.255 71.872C525.719 71.232 524.503 70.336 523.607 69.184C522.711 67.9893 522.071 66.56 521.687 64.896C521.345 63.1893 521.175 61.312 521.175 59.264V38.912H530.263V57.6C530.263 60.3307 530.689 62.3787 531.543 63.744C532.396 65.0667 533.911 65.728 536.087 65.728C538.561 65.728 540.353 65.0027 541.463 63.552C542.572 62.0587 543.127 59.6267 543.127 56.256V38.912H552.215V72ZM559.368 38.912H567.944V43.392H568.072C569.267 41.6853 570.696 40.3627 572.36 39.424C574.067 38.4853 576.008 38.016 578.184 38.016C580.275 38.016 582.174 38.4213 583.88 39.232C585.63 40.0427 586.952 41.472 587.848 43.52C588.83 42.0693 590.152 40.7893 591.816 39.68C593.523 38.5707 595.528 38.016 597.832 38.016C599.582 38.016 601.203 38.2293 602.696 38.656C604.19 39.0827 605.47 39.7653 606.536 40.704C607.603 41.6427 608.435 42.88 609.032 44.416C609.63 45.9093 609.928 47.7227 609.928 49.856V72H600.84V53.248C600.84 52.1387 600.798 51.0933 600.712 50.112C600.627 49.1307 600.392 48.2773 600.008 47.552C599.624 46.8267 599.048 46.2507 598.28 45.824C597.555 45.3973 596.552 45.184 595.272 45.184C593.992 45.184 592.947 45.44 592.136 45.952C591.368 46.4213 590.75 47.0613 590.28 47.872C589.854 48.64 589.555 49.536 589.384 50.56C589.256 51.5413 589.192 52.544 589.192 53.568V72H580.104V53.44C580.104 52.4587 580.083 51.4987 580.04 50.56C579.998 49.5787 579.806 48.6827 579.464 47.872C579.166 47.0613 578.632 46.4213 577.864 45.952C577.139 45.44 576.051 45.184 574.6 45.184C574.174 45.184 573.598 45.2907 572.872 45.504C572.19 45.6747 571.507 46.0373 570.824 46.592C570.184 47.104 569.63 47.872 569.16 48.896C568.691 49.8773 568.456 51.1787 568.456 52.8V72H559.368V38.912ZM626.456 33.792H617.368V26.304H626.456V33.792ZM617.368 38.912H626.456V72H617.368V38.912ZM633.612 38.912H642.252V43.52H642.444C643.596 41.6 645.09 40.2133 646.924 39.36C648.759 38.464 650.636 38.016 652.556 38.016C654.988 38.016 656.972 38.3573 658.508 39.04C660.087 39.68 661.324 40.5973 662.22 41.792C663.116 42.944 663.735 44.3733 664.076 46.08C664.46 47.744 664.652 49.6 664.652 51.648V72H655.564V53.312C655.564 50.5813 655.138 48.5547 654.284 47.232C653.431 45.8667 651.916 45.184 649.74 45.184C647.266 45.184 645.474 45.9307 644.364 47.424C643.255 48.8747 642.7 51.2853 642.7 54.656V72H633.612V38.912ZM680.894 33.792H671.806V26.304H680.894V33.792ZM671.806 38.912H680.894V72H671.806V38.912ZM719.09 72H710.45V67.392H710.258C709.106 69.312 707.612 70.6987 705.778 71.552C703.943 72.4053 702.066 72.832 700.146 72.832C697.714 72.832 695.708 72.512 694.13 71.872C692.594 71.232 691.378 70.336 690.482 69.184C689.586 67.9893 688.946 66.56 688.562 64.896C688.22 63.1893 688.05 61.312 688.05 59.264V38.912H697.138V57.6C697.138 60.3307 697.564 62.3787 698.418 63.744C699.271 65.0667 700.786 65.728 702.962 65.728C705.436 65.728 707.228 65.0027 708.338 63.552C709.447 62.0587 710.002 59.6267 710.002 56.256V38.912H719.09V72ZM726.243 38.912H734.819V43.392H734.947C736.142 41.6853 737.571 40.3627 739.235 39.424C740.942 38.4853 742.883 38.016 745.059 38.016C747.15 38.016 749.049 38.4213 750.755 39.232C752.505 40.0427 753.827 41.472 754.723 43.52C755.705 42.0693 757.027 40.7893 758.691 39.68C760.398 38.5707 762.403 38.016 764.707 38.016C766.457 38.016 768.078 38.2293 769.571 38.656C771.065 39.0827 772.345 39.7653 773.411 40.704C774.478 41.6427 775.31 42.88 775.907 44.416C776.505 45.9093 776.803 47.7227 776.803 49.856V72H767.715V53.248C767.715 52.1387 767.673 51.0933 767.587 50.112C767.502 49.1307 767.267 48.2773 766.883 47.552C766.499 46.8267 765.923 46.2507 765.155 45.824C764.43 45.3973 763.427 45.184 762.147 45.184C760.867 45.184 759.822 45.44 759.011 45.952C758.243 46.4213 757.625 47.0613 757.155 47.872C756.729 48.64 756.43 49.536 756.259 50.56C756.131 51.5413 756.067 52.544 756.067 53.568V72H746.979V53.44C746.979 52.4587 746.958 51.4987 746.915 50.56C746.873 49.5787 746.681 48.6827 746.339 47.872C746.041 47.0613 745.507 46.4213 744.739 45.952C744.014 45.44 742.926 45.184 741.475 45.184C741.049 45.184 740.473 45.2907 739.747 45.504C739.065 45.6747 738.382 46.0373 737.699 46.592C737.059 47.104 736.505 47.872 736.035 48.896C735.566 49.8773 735.331 51.1787 735.331 52.8V72H726.243V38.912Z" fill="white"/>
<path d="M866.956 479.792H857.868V472.304H866.956V479.792ZM857.868 484.912H866.956V518H857.868V484.912ZM874.112 484.912H882.752V489.52H882.944C884.096 487.6 885.59 486.213 887.424 485.36C889.259 484.464 891.136 484.016 893.056 484.016C895.488 484.016 897.472 484.357 899.008 485.04C900.587 485.68 901.824 486.597 902.72 487.792C903.616 488.944 904.235 490.373 904.576 492.08C904.96 493.744 905.152 495.6 905.152 497.648V518H896.064V499.312C896.064 496.581 895.638 494.555 894.784 493.232C893.931 491.867 892.416 491.184 890.24 491.184C887.766 491.184 885.974 491.931 884.864 493.424C883.755 494.875 883.2 497.285 883.2 500.656V518H874.112V484.912ZM923.57 484.912H930.226V490.992H923.57V507.376C923.57 508.912 923.826 509.936 924.338 510.448C924.85 510.96 925.874 511.216 927.41 511.216C927.922 511.216 928.412 511.195 928.882 511.152C929.351 511.109 929.799 511.045 930.226 510.96V518C929.458 518.128 928.604 518.213 927.666 518.256C926.727 518.299 925.81 518.32 924.914 518.32C923.506 518.32 922.162 518.213 920.882 518C919.644 517.829 918.535 517.467 917.554 516.912C916.615 516.357 915.868 515.568 915.314 514.544C914.759 513.52 914.482 512.176 914.482 510.512V490.992H908.978V484.912H914.482V474.992H923.57V484.912ZM956.822 497.904C956.395 495.6 955.627 493.851 954.518 492.656C953.451 491.461 951.808 490.864 949.59 490.864C948.139 490.864 946.923 491.12 945.942 491.632C945.003 492.101 944.235 492.699 943.638 493.424C943.083 494.149 942.678 494.917 942.422 495.728C942.208 496.539 942.08 497.264 942.038 497.904H956.822ZM942.038 503.664C942.166 506.608 942.912 508.741 944.278 510.064C945.643 511.387 947.606 512.048 950.166 512.048C952 512.048 953.579 511.6 954.902 510.704C956.224 509.765 957.035 508.784 957.334 507.76H965.334C964.054 511.728 962.091 514.565 959.446 516.272C956.8 517.979 953.6 518.832 949.846 518.832C947.243 518.832 944.896 518.427 942.806 517.616C940.715 516.763 938.944 515.568 937.494 514.032C936.043 512.496 934.912 510.661 934.102 508.528C933.334 506.395 932.95 504.048 932.95 501.488C932.95 499.013 933.355 496.709 934.166 494.576C934.976 492.443 936.128 490.608 937.622 489.072C939.115 487.493 940.886 486.256 942.934 485.36C945.024 484.464 947.328 484.016 949.846 484.016C952.662 484.016 955.115 484.571 957.206 485.68C959.296 486.747 961.003 488.197 962.326 490.032C963.691 491.867 964.672 493.957 965.27 496.304C965.867 498.651 966.08 501.104 965.91 503.664H942.038ZM971.3 484.912H979.94V491.056H980.068C980.494 490.032 981.07 489.093 981.796 488.24C982.521 487.344 983.353 486.597 984.292 486C985.23 485.36 986.233 484.869 987.3 484.528C988.366 484.187 989.476 484.016 990.628 484.016C991.225 484.016 991.886 484.123 992.612 484.336V492.784C992.185 492.699 991.673 492.635 991.076 492.592C990.478 492.507 989.902 492.464 989.348 492.464C987.684 492.464 986.276 492.741 985.124 493.296C983.972 493.851 983.033 494.619 982.308 495.6C981.625 496.539 981.134 497.648 980.836 498.928C980.537 500.208 980.388 501.595 980.388 503.088V518H971.3V484.912ZM997.3 484.912H1005.94V489.52H1006.13C1007.28 487.6 1008.78 486.213 1010.61 485.36C1012.45 484.464 1014.32 484.016 1016.24 484.016C1018.68 484.016 1020.66 484.357 1022.2 485.04C1023.77 485.68 1025.01 486.597 1025.91 487.792C1026.8 488.944 1027.42 490.373 1027.76 492.08C1028.15 493.744 1028.34 495.6 1028.34 497.648V518H1019.25V499.312C1019.25 496.581 1018.83 494.555 1017.97 493.232C1017.12 491.867 1015.6 491.184 1013.43 491.184C1010.95 491.184 1009.16 491.931 1008.05 493.424C1006.94 494.875 1006.39 497.285 1006.39 500.656V518H997.3V484.912ZM1034.85 495.088C1034.98 492.955 1035.51 491.184 1036.45 489.776C1037.39 488.368 1038.59 487.237 1040.04 486.384C1041.49 485.531 1043.11 484.933 1044.9 484.592C1046.74 484.208 1048.57 484.016 1050.41 484.016C1052.07 484.016 1053.75 484.144 1055.46 484.4C1057.17 484.613 1058.73 485.061 1060.13 485.744C1061.54 486.427 1062.69 487.387 1063.59 488.624C1064.49 489.819 1064.93 491.419 1064.93 493.424V510.64C1064.93 512.133 1065.02 513.563 1065.19 514.928C1065.36 516.293 1065.66 517.317 1066.09 518H1056.87C1056.7 517.488 1056.55 516.976 1056.42 516.464C1056.34 515.909 1056.27 515.355 1056.23 514.8C1054.78 516.293 1053.07 517.339 1051.11 517.936C1049.15 518.533 1047.14 518.832 1045.09 518.832C1043.51 518.832 1042.04 518.64 1040.68 518.256C1039.31 517.872 1038.12 517.275 1037.09 516.464C1036.07 515.653 1035.26 514.629 1034.66 513.392C1034.11 512.155 1033.83 510.683 1033.83 508.976C1033.83 507.099 1034.15 505.563 1034.79 504.368C1035.47 503.131 1036.33 502.149 1037.35 501.424C1038.42 500.699 1039.61 500.165 1040.93 499.824C1042.3 499.44 1043.66 499.141 1045.03 498.928C1046.39 498.715 1047.74 498.544 1049.06 498.416C1050.38 498.288 1051.56 498.096 1052.58 497.84C1053.61 497.584 1054.42 497.221 1055.01 496.752C1055.61 496.24 1055.89 495.515 1055.85 494.576C1055.85 493.595 1055.67 492.827 1055.33 492.272C1055.03 491.675 1054.61 491.227 1054.05 490.928C1053.54 490.587 1052.92 490.373 1052.2 490.288C1051.51 490.16 1050.77 490.096 1049.96 490.096C1048.17 490.096 1046.76 490.48 1045.73 491.248C1044.71 492.016 1044.11 493.296 1043.94 495.088H1034.85ZM1055.85 501.808C1055.46 502.149 1054.97 502.427 1054.37 502.64C1053.82 502.811 1053.2 502.96 1052.52 503.088C1051.88 503.216 1051.19 503.323 1050.47 503.408C1049.74 503.493 1049.02 503.6 1048.29 503.728C1047.61 503.856 1046.93 504.027 1046.25 504.24C1045.61 504.453 1045.03 504.752 1044.52 505.136C1044.05 505.477 1043.66 505.925 1043.37 506.48C1043.07 507.035 1042.92 507.739 1042.92 508.592C1042.92 509.403 1043.07 510.085 1043.37 510.64C1043.66 511.195 1044.07 511.643 1044.58 511.984C1045.09 512.283 1045.69 512.496 1046.37 512.624C1047.06 512.752 1047.76 512.816 1048.49 512.816C1050.28 512.816 1051.66 512.517 1052.65 511.92C1053.63 511.323 1054.35 510.619 1054.82 509.808C1055.29 508.955 1055.57 508.101 1055.65 507.248C1055.78 506.395 1055.85 505.712 1055.85 505.2V501.808ZM1083.51 484.912H1090.16V490.992H1083.51V507.376C1083.51 508.912 1083.76 509.936 1084.28 510.448C1084.79 510.96 1085.81 511.216 1087.35 511.216C1087.86 511.216 1088.35 511.195 1088.82 511.152C1089.29 511.109 1089.74 511.045 1090.16 510.96V518C1089.4 518.128 1088.54 518.213 1087.6 518.256C1086.66 518.299 1085.75 518.32 1084.85 518.32C1083.44 518.32 1082.1 518.213 1080.82 518C1079.58 517.829 1078.47 517.467 1077.49 516.912C1076.55 516.357 1075.81 515.568 1075.25 514.544C1074.7 513.52 1074.42 512.176 1074.42 510.512V490.992H1068.92V484.912H1074.42V474.992H1083.51V484.912ZM1103.83 479.792H1094.74V472.304H1103.83V479.792ZM1094.74 484.912H1103.83V518H1094.74V484.912ZM1119.05 501.488C1119.05 502.811 1119.18 504.112 1119.44 505.392C1119.69 506.629 1120.12 507.76 1120.72 508.784C1121.36 509.765 1122.19 510.555 1123.21 511.152C1124.24 511.749 1125.52 512.048 1127.05 512.048C1128.59 512.048 1129.87 511.749 1130.89 511.152C1131.96 510.555 1132.79 509.765 1133.39 508.784C1134.03 507.76 1134.48 506.629 1134.73 505.392C1134.99 504.112 1135.12 502.811 1135.12 501.488C1135.12 500.165 1134.99 498.864 1134.73 497.584C1134.48 496.304 1134.03 495.173 1133.39 494.192C1132.79 493.211 1131.96 492.421 1130.89 491.824C1129.87 491.184 1128.59 490.864 1127.05 490.864C1125.52 490.864 1124.24 491.184 1123.21 491.824C1122.19 492.421 1121.36 493.211 1120.72 494.192C1120.12 495.173 1119.69 496.304 1119.44 497.584C1119.18 498.864 1119.05 500.165 1119.05 501.488ZM1109.96 501.488C1109.96 498.843 1110.37 496.453 1111.18 494.32C1111.99 492.144 1113.14 490.309 1114.64 488.816C1116.13 487.28 1117.92 486.107 1120.01 485.296C1122.1 484.443 1124.45 484.016 1127.05 484.016C1129.65 484.016 1132 484.443 1134.09 485.296C1136.22 486.107 1138.04 487.28 1139.53 488.816C1141.02 490.309 1142.18 492.144 1142.99 494.32C1143.8 496.453 1144.2 498.843 1144.2 501.488C1144.2 504.133 1143.8 506.523 1142.99 508.656C1142.18 510.789 1141.02 512.624 1139.53 514.16C1138.04 515.653 1136.22 516.805 1134.09 517.616C1132 518.427 1129.65 518.832 1127.05 518.832C1124.45 518.832 1122.1 518.427 1120.01 517.616C1117.92 516.805 1116.13 515.653 1114.64 514.16C1113.14 512.624 1111.99 510.789 1111.18 508.656C1110.37 506.523 1109.96 504.133 1109.96 501.488ZM1150.11 484.912H1158.75V489.52H1158.94C1160.1 487.6 1161.59 486.213 1163.42 485.36C1165.26 484.464 1167.14 484.016 1169.06 484.016C1171.49 484.016 1173.47 484.357 1175.01 485.04C1176.59 485.68 1177.82 486.597 1178.72 487.792C1179.62 488.944 1180.23 490.373 1180.58 492.08C1180.96 493.744 1181.15 495.6 1181.15 497.648V518H1172.06V499.312C1172.06 496.581 1171.64 494.555 1170.78 493.232C1169.93 491.867 1168.42 491.184 1166.24 491.184C1163.77 491.184 1161.97 491.931 1160.86 493.424C1159.75 494.875 1159.2 497.285 1159.2 500.656V518H1150.11V484.912ZM1187.67 495.088C1187.79 492.955 1188.33 491.184 1189.27 489.776C1190.2 488.368 1191.4 487.237 1192.85 486.384C1194.3 485.531 1195.92 484.933 1197.71 484.592C1199.55 484.208 1201.38 484.016 1203.22 484.016C1204.88 484.016 1206.57 484.144 1208.27 484.4C1209.98 484.613 1211.54 485.061 1212.95 485.744C1214.35 486.427 1215.51 487.387 1216.4 488.624C1217.3 489.819 1217.75 491.419 1217.75 493.424V510.64C1217.75 512.133 1217.83 513.563 1218 514.928C1218.17 516.293 1218.47 517.317 1218.9 518H1209.68C1209.51 517.488 1209.36 516.976 1209.23 516.464C1209.15 515.909 1209.08 515.355 1209.04 514.8C1207.59 516.293 1205.88 517.339 1203.92 517.936C1201.96 518.533 1199.95 518.832 1197.91 518.832C1196.33 518.832 1194.86 518.64 1193.49 518.256C1192.12 517.872 1190.93 517.275 1189.91 516.464C1188.88 515.653 1188.07 514.629 1187.47 513.392C1186.92 512.155 1186.64 510.683 1186.64 508.976C1186.64 507.099 1186.96 505.563 1187.6 504.368C1188.28 503.131 1189.14 502.149 1190.16 501.424C1191.23 500.699 1192.42 500.165 1193.75 499.824C1195.11 499.44 1196.48 499.141 1197.84 498.928C1199.21 498.715 1200.55 498.544 1201.87 498.416C1203.2 498.288 1204.37 498.096 1205.39 497.84C1206.42 497.584 1207.23 497.221 1207.83 496.752C1208.42 496.24 1208.7 495.515 1208.66 494.576C1208.66 493.595 1208.49 492.827 1208.15 492.272C1207.85 491.675 1207.42 491.227 1206.87 490.928C1206.35 490.587 1205.74 490.373 1205.01 490.288C1204.33 490.16 1203.58 490.096 1202.77 490.096C1200.98 490.096 1199.57 490.48 1198.55 491.248C1197.52 492.016 1196.92 493.296 1196.75 495.088H1187.67ZM1208.66 501.808C1208.27 502.149 1207.78 502.427 1207.19 502.64C1206.63 502.811 1206.01 502.96 1205.33 503.088C1204.69 503.216 1204.01 503.323 1203.28 503.408C1202.56 503.493 1201.83 503.6 1201.11 503.728C1200.42 503.856 1199.74 504.027 1199.06 504.24C1198.42 504.453 1197.84 504.752 1197.33 505.136C1196.86 505.477 1196.48 505.925 1196.18 506.48C1195.88 507.035 1195.73 507.739 1195.73 508.592C1195.73 509.403 1195.88 510.085 1196.18 510.64C1196.48 511.195 1196.88 511.643 1197.39 511.984C1197.91 512.283 1198.5 512.496 1199.19 512.624C1199.87 512.752 1200.57 512.816 1201.3 512.816C1203.09 512.816 1204.48 512.517 1205.46 511.92C1206.44 511.323 1207.16 510.619 1207.63 509.808C1208.1 508.955 1208.38 508.101 1208.47 507.248C1208.59 506.395 1208.66 505.712 1208.66 505.2V501.808ZM1225.06 472.304H1234.14V518H1225.06V472.304Z" fill="white"/>
<path d="M873.8 29.4723C872.267 29.4723 870.933 29.7723 869.8 30.3723C868.733 31.0389 867.833 31.8723 867.1 32.8723C866.433 33.8723 865.933 35.0056 865.6 36.2723C865.267 37.6056 865.1 38.9723 865.1 40.3723C865.1 41.3723 865.2 42.4056 865.4 43.4723C865.667 44.6056 866.033 45.6056 866.5 46.4723C867.033 47.4056 867.7 48.1723 868.5 48.7723C869.367 49.3723 870.433 49.6723 871.7 49.6723C873.833 49.6723 875.433 48.2389 876.5 45.3723C877.567 42.5723 878.633 38.6389 879.7 33.5723C880.167 31.5056 880.7 29.4723 881.3 27.4723C881.967 25.5389 882.8 23.8056 883.8 22.2723C884.867 20.7389 886.167 19.5056 887.7 18.5723C889.3 17.6389 891.233 17.1723 893.5 17.1723C896.833 17.1723 899.567 17.8056 901.7 19.0723C903.833 20.4056 905.5 22.1389 906.7 24.2723C907.967 26.4056 908.833 28.8056 909.3 31.4723C909.833 34.1389 910.1 36.8723 910.1 39.6723C910.1 42.4723 909.833 45.1723 909.3 47.7723C908.767 50.4389 907.867 52.8056 906.6 54.8723C905.333 56.9389 903.633 58.6389 901.5 59.9723C899.433 61.3723 896.8 62.2056 893.6 62.4723L893.6 48.9723C896.333 48.7723 898.167 47.7389 899.1 45.8723C900.1 44.0056 900.6 41.8056 900.6 39.2723C900.6 38.4723 900.533 37.6056 900.4 36.6723C900.333 35.7389 900.133 34.8723 899.8 34.0723C899.467 33.3389 898.967 32.7056 898.3 32.1723C897.7 31.6389 896.867 31.3723 895.8 31.3723C894.533 31.3723 893.5 31.8389 892.7 32.7723C891.9 33.7056 891.233 34.9056 890.7 36.3723C890.233 37.9056 889.8 39.6389 889.4 41.5723C889 43.5056 888.567 45.4723 888.1 47.4723C887.633 49.5389 887.067 51.5389 886.4 53.4723C885.733 55.4723 884.833 57.2389 883.7 58.7723C882.633 60.3056 881.267 61.5389 879.6 62.4723C878 63.4056 876 63.8723 873.6 63.8723C870.2 63.8723 867.333 63.1723 865 61.7723C862.733 60.4389 860.9 58.6723 859.5 56.4723C858.1 54.2723 857.133 51.7389 856.6 48.8723C856 46.0723 855.7 43.2056 855.7 40.2723C855.7 37.2723 856 34.3389 856.6 31.4723C857.2 28.6056 858.2 26.0389 859.6 23.7723C861 21.5723 862.833 19.7389 865.1 18.2723C867.433 16.8723 870.333 16.1056 873.8 15.9723L873.8 29.4723ZM892.8 76.5832C896.133 76.7832 898.9 77.6165 901.1 79.0832C903.3 80.5499 905.067 82.4165 906.4 84.6832C907.733 86.9499 908.667 89.4832 909.2 92.2832C909.8 95.1499 910.1 98.0165 910.1 100.883C910.1 103.483 909.9 106.117 909.5 108.783C909.167 111.45 908.467 113.883 907.4 116.083C906.333 118.283 904.833 120.083 902.9 121.483C901.033 122.883 898.533 123.583 895.4 123.583L868.5 123.583C866.167 123.583 863.933 123.717 861.8 123.983C859.667 124.25 858.067 124.717 857 125.383L857 110.983C857.8 110.717 858.6 110.483 859.4 110.283C860.267 110.15 861.133 110.05 862 109.983C859.667 107.717 858.033 105.05 857.1 101.983C856.167 98.9165 855.7 95.7832 855.7 92.5832C855.7 90.1165 856 87.8165 856.6 85.6832C857.2 83.5499 858.133 81.6832 859.4 80.0832C860.667 78.4832 862.267 77.2165 864.2 76.2832C866.133 75.4165 868.433 74.9832 871.1 74.9832C874.033 74.9832 876.433 75.4832 878.3 76.4832C880.233 77.5499 881.767 78.8832 882.9 80.4832C884.033 82.1499 884.867 84.0165 885.4 86.0832C886 88.2165 886.467 90.3499 886.8 92.4832C887.133 94.6165 887.4 96.7165 887.6 98.7832C887.8 100.85 888.1 102.683 888.5 104.283C888.9 105.883 889.467 107.15 890.2 108.083C891 109.017 892.133 109.45 893.6 109.383C895.133 109.383 896.333 109.117 897.2 108.583C898.133 108.117 898.833 107.45 899.3 106.583C899.833 105.783 900.167 104.817 900.3 103.683C900.5 102.617 900.6 101.45 900.6 100.183C900.6 97.3832 900 95.1832 898.8 93.5832C897.6 91.9832 895.6 91.0499 892.8 90.7832L892.8 76.5832ZM882.3 109.383C881.767 108.783 881.333 108.017 881 107.083C880.733 106.217 880.5 105.25 880.3 104.183C880.1 103.183 879.933 102.117 879.8 100.983C879.667 99.8499 879.5 98.7165 879.3 97.5832C879.1 96.5165 878.833 95.4499 878.5 94.3832C878.167 93.3832 877.7 92.4832 877.1 91.6832C876.567 90.9499 875.867 90.3499 875 89.8832C874.133 89.4165 873.033 89.1832 871.7 89.1832C870.433 89.1832 869.367 89.4165 868.5 89.8832C867.633 90.3499 866.933 90.9832 866.4 91.7832C865.933 92.5832 865.6 93.5165 865.4 94.5832C865.2 95.6499 865.1 96.7499 865.1 97.8832C865.1 100.683 865.567 102.85 866.5 104.383C867.433 105.917 868.533 107.05 869.8 107.783C871.133 108.517 872.467 108.95 873.8 109.083C875.133 109.283 876.2 109.383 877 109.383L882.3 109.383ZM899.2 142.705L899.2 134.205L908.7 134.205L908.7 142.705L912.7 142.705C917.3 142.705 921.067 144.138 924 147.005C926.933 149.872 928.4 154.205 928.4 160.005C928.4 161.272 928.333 162.538 928.2 163.805C928.133 165.072 928.067 166.305 928 167.505L917.4 167.505C917.6 165.838 917.7 164.105 917.7 162.305C917.7 160.372 917.233 158.972 916.3 158.105C915.433 157.305 913.933 156.905 911.8 156.905L908.7 156.905L908.7 166.705L899.2 166.705L899.2 156.905L857 156.905L857 142.705L899.2 142.705ZM888.4 212.706C892 212.039 894.733 210.839 896.6 209.106C898.467 207.439 899.4 204.873 899.4 201.406C899.4 199.139 899 197.239 898.2 195.706C897.467 194.239 896.533 193.039 895.4 192.106C894.267 191.239 893.067 190.606 891.8 190.206C890.533 189.873 889.4 189.673 888.4 189.606L888.4 212.706ZM879.4 189.606C874.8 189.806 871.467 190.973 869.4 193.106C867.333 195.239 866.3 198.306 866.3 202.306C866.3 205.173 867 207.639 868.4 209.706C869.867 211.773 871.4 213.039 873 213.506L873 226.006C866.8 224.006 862.367 220.939 859.7 216.806C857.033 212.673 855.7 207.673 855.7 201.806C855.7 197.739 856.333 194.073 857.6 190.806C858.933 187.539 860.8 184.773 863.2 182.506C865.6 180.239 868.467 178.473 871.8 177.206C875.133 176.006 878.8 175.406 882.8 175.406C886.667 175.406 890.267 176.039 893.6 177.306C896.933 178.573 899.8 180.373 902.2 182.706C904.667 185.039 906.6 187.806 908 191.006C909.4 194.273 910.1 197.873 910.1 201.806C910.1 206.206 909.233 210.039 907.5 213.306C905.833 216.573 903.567 219.239 900.7 221.306C897.833 223.439 894.567 224.973 890.9 225.906C887.233 226.839 883.4 227.173 879.4 226.906L879.4 189.606Z" fill="white"/>
<mask id="path-7-outside-1_107_486" maskUnits="userSpaceOnUse" x="1" y="287" width="618" height="74" fill="black">
<rect fill="white" x="1" y="287" width="618" height="74"/>
<path d="M28.6698 331.16H45.3198L37.2198 307.58H37.0398L28.6698 331.16ZM30.0198 291.74H44.5098L68.5398 356H53.8698L49.0098 341.69H24.9798L19.9398 356H5.71977L30.0198 291.74ZM84.5394 303.62H65.2794V291.74H117.929V303.62H98.6694V356H84.5394V303.62ZM144.059 303.62H124.799V291.74H177.449V303.62H158.189V356H144.059V303.62ZM203.488 320.81H218.968C222.208 320.81 224.638 320.09 226.258 318.65C227.878 317.21 228.688 314.87 228.688 311.63C228.688 308.51 227.878 306.26 226.258 304.88C224.638 303.44 222.208 302.72 218.968 302.72H203.488V320.81ZM189.358 291.74H224.008C226.888 291.74 229.468 292.22 231.748 293.18C234.088 294.08 236.068 295.34 237.688 296.96C239.368 298.58 240.628 300.47 241.468 302.63C242.368 304.73 242.818 307.01 242.818 309.47C242.818 313.25 242.008 316.52 240.388 319.28C238.828 322.04 236.248 324.14 232.648 325.58V325.76C234.388 326.24 235.828 326.99 236.968 328.01C238.108 328.97 239.038 330.14 239.758 331.52C240.478 332.84 240.988 334.31 241.288 335.93C241.648 337.55 241.888 339.17 242.008 340.79C242.068 341.81 242.128 343.01 242.188 344.39C242.248 345.77 242.338 347.18 242.458 348.62C242.638 350.06 242.878 351.44 243.178 352.76C243.538 354.02 244.048 355.1 244.708 356H230.578C229.798 353.96 229.318 351.53 229.138 348.71C228.958 345.89 228.688 343.19 228.328 340.61C227.848 337.25 226.828 334.79 225.268 333.23C223.708 331.67 221.158 330.89 217.618 330.89H203.488V356H189.358V291.74ZM275.01 331.16H291.66L283.56 307.58H283.38L275.01 331.16ZM276.36 291.74H290.85L314.88 356H300.21L295.35 341.69H271.32L266.28 356H252.06L276.36 291.74ZM367.761 313.34C367.521 311.72 366.981 310.25 366.141 308.93C365.301 307.55 364.251 306.35 362.991 305.33C361.731 304.31 360.291 303.53 358.671 302.99C357.111 302.39 355.461 302.09 353.721 302.09C350.541 302.09 347.841 302.72 345.621 303.98C343.401 305.18 341.601 306.83 340.221 308.93C338.841 310.97 337.821 313.31 337.161 315.95C336.561 318.59 336.261 321.32 336.261 324.14C336.261 326.84 336.561 329.48 337.161 332.06C337.821 334.58 338.841 336.86 340.221 338.9C341.601 340.94 343.401 342.59 345.621 343.85C347.841 345.05 350.541 345.65 353.721 345.65C358.041 345.65 361.401 344.33 363.801 341.69C366.261 339.05 367.761 335.57 368.301 331.25H381.981C381.621 335.27 380.691 338.9 379.191 342.14C377.691 345.38 375.711 348.14 373.251 350.42C370.791 352.7 367.911 354.44 364.611 355.64C361.311 356.84 357.681 357.44 353.721 357.44C348.801 357.44 344.361 356.6 340.401 354.92C336.501 353.18 333.201 350.81 330.501 347.81C327.801 344.81 325.731 341.3 324.291 337.28C322.851 333.2 322.131 328.82 322.131 324.14C322.131 319.34 322.851 314.9 324.291 310.82C325.731 306.68 327.801 303.08 330.501 300.02C333.201 296.96 336.501 294.56 340.401 292.82C344.361 291.08 348.801 290.21 353.721 290.21C357.261 290.21 360.591 290.72 363.711 291.74C366.891 292.76 369.711 294.26 372.171 296.24C374.691 298.16 376.761 300.56 378.381 303.44C380.001 306.32 381.021 309.62 381.441 313.34H367.761ZM410.35 303.62H391.09V291.74H443.74V303.62H424.48V356H410.35V303.62ZM455.649 291.74H469.779V356H455.649V291.74ZM498.032 324.14C498.032 326.84 498.332 329.48 498.932 332.06C499.592 334.58 500.612 336.86 501.992 338.9C503.372 340.94 505.172 342.59 507.392 343.85C509.612 345.05 512.312 345.65 515.492 345.65C518.672 345.65 521.372 345.05 523.592 343.85C525.812 342.59 527.612 340.94 528.992 338.9C530.372 336.86 531.362 334.58 531.962 332.06C532.622 329.48 532.952 326.84 532.952 324.14C532.952 321.32 532.622 318.59 531.962 315.95C531.362 313.31 530.372 310.97 528.992 308.93C527.612 306.83 525.812 305.18 523.592 303.98C521.372 302.72 518.672 302.09 515.492 302.09C512.312 302.09 509.612 302.72 507.392 303.98C505.172 305.18 503.372 306.83 501.992 308.93C500.612 310.97 499.592 313.31 498.932 315.95C498.332 318.59 498.032 321.32 498.032 324.14ZM483.902 324.14C483.902 319.34 484.622 314.9 486.062 310.82C487.502 306.68 489.572 303.08 492.272 300.02C494.972 296.96 498.272 294.56 502.172 292.82C506.132 291.08 510.572 290.21 515.492 290.21C520.472 290.21 524.912 291.08 528.812 292.82C532.712 294.56 536.012 296.96 538.712 300.02C541.412 303.08 543.482 306.68 544.922 310.82C546.362 314.9 547.082 319.34 547.082 324.14C547.082 328.82 546.362 333.2 544.922 337.28C543.482 341.3 541.412 344.81 538.712 347.81C536.012 350.81 532.712 353.18 528.812 354.92C524.912 356.6 520.472 357.44 515.492 357.44C510.572 357.44 506.132 356.6 502.172 354.92C498.272 353.18 494.972 350.81 492.272 347.81C489.572 344.81 487.502 341.3 486.062 337.28C484.622 333.2 483.902 328.82 483.902 324.14ZM561.241 291.74H575.281L602.101 334.85H602.281V291.74H615.511V356H601.381L574.651 312.98H574.471V356H561.241V291.74Z"/>
</mask>
<path d="M28.6698 331.16L25.8426 330.156L24.4215 334.16H28.6698V331.16ZM45.3198 331.16V334.16H49.5224L48.157 330.185L45.3198 331.16ZM37.2198 307.58L40.057 306.605L39.3613 304.58H37.2198V307.58ZM37.0398 307.58V304.58H34.9213L34.2126 306.576L37.0398 307.58ZM30.0198 291.74V288.74H27.9469L27.2137 290.679L30.0198 291.74ZM44.5098 291.74L47.3197 290.689L46.5908 288.74H44.5098V291.74ZM68.5398 356V359H72.8645L71.3497 354.949L68.5398 356ZM53.8698 356L51.0291 356.965L51.7203 359H53.8698V356ZM49.0098 341.69L51.8504 340.725L51.1592 338.69H49.0098V341.69ZM24.9798 341.69V338.69H22.8557L22.1501 340.693L24.9798 341.69ZM19.9398 356V359H22.0638L22.7694 356.997L19.9398 356ZM5.71977 356L2.9137 354.939L1.37798 359H5.71977V356ZM28.6698 334.16H45.3198V328.16H28.6698V334.16ZM48.157 330.185L40.057 306.605L34.3825 308.555L42.4825 332.135L48.157 330.185ZM37.2198 304.58H37.0398V310.58H37.2198V304.58ZM34.2126 306.576L25.8426 330.156L31.4969 332.164L39.8669 308.584L34.2126 306.576ZM30.0198 294.74H44.5098V288.74H30.0198V294.74ZM41.6998 292.791L65.7298 357.051L71.3497 354.949L47.3197 290.689L41.6998 292.791ZM68.5398 353H53.8698V359H68.5398V353ZM56.7104 355.035L51.8504 340.725L46.1691 342.655L51.0291 356.965L56.7104 355.035ZM49.0098 338.69H24.9798V344.69H49.0098V338.69ZM22.1501 340.693L17.1101 355.003L22.7694 356.997L27.8094 342.687L22.1501 340.693ZM19.9398 353H5.71977V359H19.9398V353ZM8.52584 357.061L32.8258 292.801L27.2137 290.679L2.9137 354.939L8.52584 357.061ZM84.5394 303.62H87.5394V300.62H84.5394V303.62ZM65.2794 303.62H62.2794V306.62H65.2794V303.62ZM65.2794 291.74V288.74H62.2794V291.74H65.2794ZM117.929 291.74H120.929V288.74H117.929V291.74ZM117.929 303.62V306.62H120.929V303.62H117.929ZM98.6694 303.62V300.62H95.6694V303.62H98.6694ZM98.6694 356V359H101.669V356H98.6694ZM84.5394 356H81.5394V359H84.5394V356ZM84.5394 300.62H65.2794V306.62H84.5394V300.62ZM68.2794 303.62V291.74H62.2794V303.62H68.2794ZM65.2794 294.74H117.929V288.74H65.2794V294.74ZM114.929 291.74V303.62H120.929V291.74H114.929ZM117.929 300.62H98.6694V306.62H117.929V300.62ZM95.6694 303.62V356H101.669V303.62H95.6694ZM98.6694 353H84.5394V359H98.6694V353ZM87.5394 356V303.62H81.5394V356H87.5394ZM144.059 303.62H147.059V300.62H144.059V303.62ZM124.799 303.62H121.799V306.62H124.799V303.62ZM124.799 291.74V288.74H121.799V291.74H124.799ZM177.449 291.74H180.449V288.74H177.449V291.74ZM177.449 303.62V306.62H180.449V303.62H177.449ZM158.189 303.62V300.62H155.189V303.62H158.189ZM158.189 356V359H161.189V356H158.189ZM144.059 356H141.059V359H144.059V356ZM144.059 300.62H124.799V306.62H144.059V300.62ZM127.799 303.62V291.74H121.799V303.62H127.799ZM124.799 294.74H177.449V288.74H124.799V294.74ZM174.449 291.74V303.62H180.449V291.74H174.449ZM177.449 300.62H158.189V306.62H177.449V300.62ZM155.189 303.62V356H161.189V303.62H155.189ZM158.189 353H144.059V359H158.189V353ZM147.059 356V303.62H141.059V356H147.059ZM203.488 320.81H200.488V323.81H203.488V320.81ZM226.258 304.88L224.265 307.122L224.289 307.143L224.313 307.164L226.258 304.88ZM203.488 302.72V299.72H200.488V302.72H203.488ZM189.358 291.74V288.74H186.358V291.74H189.358ZM231.748 293.18L230.584 295.945L230.628 295.963L230.672 295.98L231.748 293.18ZM237.688 296.96L235.567 299.081L235.586 299.101L235.606 299.12L237.688 296.96ZM241.468 302.63L238.672 303.717L238.691 303.765L238.711 303.812L241.468 302.63ZM240.388 319.28L237.801 317.761L237.789 317.783L237.777 317.804L240.388 319.28ZM232.648 325.58L231.534 322.795L229.648 323.549V325.58H232.648ZM232.648 325.76H229.648V328.044L231.851 328.652L232.648 325.76ZM236.968 328.01L234.968 330.246L235.002 330.276L235.036 330.305L236.968 328.01ZM239.758 331.52L237.099 332.908L237.111 332.932L237.125 332.957L239.758 331.52ZM241.288 335.93L238.339 336.476L238.348 336.529L238.36 336.581L241.288 335.93ZM242.008 340.79L245.003 340.614L245.002 340.591L245 340.568L242.008 340.79ZM242.458 348.62L239.469 348.869L239.474 348.931L239.482 348.992L242.458 348.62ZM243.178 352.76L240.253 353.425L240.271 353.505L240.294 353.584L243.178 352.76ZM244.708 356V359H250.629L247.128 354.226L244.708 356ZM230.578 356L227.776 357.071L228.514 359H230.578V356ZM229.138 348.71L232.132 348.519L232.132 348.519L229.138 348.71ZM228.328 340.61L231.3 340.195L231.298 340.186L228.328 340.61ZM225.268 333.23L227.39 331.109L227.39 331.109L225.268 333.23ZM203.488 330.89V327.89H200.488V330.89H203.488ZM203.488 356V359H206.488V356H203.488ZM189.358 356H186.358V359H189.358V356ZM203.488 323.81H218.968V317.81H203.488V323.81ZM218.968 323.81C222.59 323.81 225.866 323.013 228.252 320.892L224.265 316.408C223.411 317.167 221.827 317.81 218.968 317.81V323.81ZM228.252 320.892C230.774 318.65 231.688 315.299 231.688 311.63H225.688C225.688 314.441 224.983 315.77 224.265 316.408L228.252 320.892ZM231.688 311.63C231.688 308.05 230.757 304.771 228.204 302.596L224.313 307.164C225 307.749 225.688 308.97 225.688 311.63H231.688ZM228.252 302.638C225.866 300.517 222.59 299.72 218.968 299.72V305.72C221.827 305.72 223.411 306.363 224.265 307.122L228.252 302.638ZM218.968 299.72H203.488V305.72H218.968V299.72ZM200.488 302.72V320.81H206.488V302.72H200.488ZM189.358 294.74H224.008V288.74H189.358V294.74ZM224.008 294.74C226.553 294.74 228.728 295.163 230.584 295.945L232.913 290.415C230.209 289.277 227.223 288.74 224.008 288.74V294.74ZM230.672 295.98C232.657 296.744 234.271 297.785 235.567 299.081L239.81 294.839C237.866 292.895 235.52 291.416 232.825 290.38L230.672 295.98ZM235.606 299.12C236.976 300.44 237.991 301.965 238.672 303.717L244.264 301.543C243.266 298.975 241.761 296.72 239.771 294.8L235.606 299.12ZM238.711 303.812C239.439 305.51 239.818 307.385 239.818 309.47H245.818C245.818 306.635 245.298 303.95 244.226 301.448L238.711 303.812ZM239.818 309.47C239.818 312.814 239.106 315.539 237.801 317.761L242.976 320.799C244.911 317.501 245.818 313.686 245.818 309.47H239.818ZM237.777 317.804C236.622 319.846 234.646 321.55 231.534 322.795L233.763 328.365C237.851 326.73 241.035 324.234 243 320.756L237.777 317.804ZM229.648 325.58V325.76H235.648V325.58H229.648ZM231.851 328.652C233.224 329.031 234.23 329.585 234.968 330.246L238.969 325.774C237.427 324.395 235.553 323.449 233.446 322.868L231.851 328.652ZM235.036 330.305C235.864 331.002 236.551 331.859 237.099 332.908L242.418 330.132C241.525 328.421 240.353 326.938 238.901 325.715L235.036 330.305ZM237.125 332.957C237.679 333.973 238.091 335.138 238.339 336.476L244.238 335.384C243.886 333.482 243.278 331.707 242.392 330.083L237.125 332.957ZM238.36 336.581C238.689 338.062 238.908 339.539 239.017 341.012L245 340.568C244.869 338.801 244.608 337.038 244.217 335.279L238.36 336.581ZM239.014 340.966C239.072 341.967 239.132 343.151 239.191 344.52L245.186 344.26C245.125 342.869 245.064 341.653 245.003 340.614L239.014 340.966ZM239.191 344.52C239.253 345.942 239.346 347.391 239.469 348.869L245.448 348.371C245.331 346.969 245.244 345.598 245.186 344.26L239.191 344.52ZM239.482 348.992C239.673 350.524 239.93 352.002 240.253 353.425L246.104 352.095C245.827 350.878 245.604 349.596 245.435 348.248L239.482 348.992ZM240.294 353.584C240.735 355.128 241.386 356.542 242.289 357.774L247.128 354.226C246.711 353.658 246.342 352.912 246.063 351.936L240.294 353.584ZM244.708 353H230.578V359H244.708V353ZM233.381 354.929C232.735 353.239 232.298 351.121 232.132 348.519L226.145 348.901C226.338 351.939 226.862 354.681 227.776 357.071L233.381 354.929ZM232.132 348.519C231.948 345.63 231.671 342.856 231.3 340.195L225.357 341.025C225.706 343.524 225.969 346.15 226.145 348.901L232.132 348.519ZM231.298 340.186C230.773 336.509 229.597 333.316 227.39 331.109L223.147 335.351C224.06 336.264 224.924 337.991 225.359 341.034L231.298 340.186ZM227.39 331.109C225.008 328.727 221.492 327.89 217.618 327.89V333.89C220.825 333.89 222.409 334.613 223.147 335.351L227.39 331.109ZM217.618 327.89H203.488V333.89H217.618V327.89ZM200.488 330.89V356H206.488V330.89H200.488ZM203.488 353H189.358V359H203.488V353ZM192.358 356V291.74H186.358V356H192.358ZM275.01 331.16L272.182 330.156L270.761 334.16H275.01V331.16ZM291.66 331.16V334.16H295.862L294.497 330.185L291.66 331.16ZM283.56 307.58L286.397 306.605L285.701 304.58H283.56V307.58ZM283.38 307.58V304.58H281.261L280.552 306.576L283.38 307.58ZM276.36 291.74V288.74H274.287L273.554 290.679L276.36 291.74ZM290.85 291.74L293.66 290.689L292.931 288.74H290.85V291.74ZM314.88 356V359H319.204L317.69 354.949L314.88 356ZM300.21 356L297.369 356.965L298.06 359H300.21V356ZM295.35 341.69L298.19 340.725L297.499 338.69H295.35V341.69ZM271.32 341.69V338.69H269.196L268.49 340.693L271.32 341.69ZM266.28 356V359H268.404L269.109 356.997L266.28 356ZM252.06 356L249.254 354.939L247.718 359H252.06V356ZM275.01 334.16H291.66V328.16H275.01V334.16ZM294.497 330.185L286.397 306.605L280.722 308.555L288.822 332.135L294.497 330.185ZM283.56 304.58H283.38V310.58H283.56V304.58ZM280.552 306.576L272.182 330.156L277.837 332.164L286.207 308.584L280.552 306.576ZM276.36 294.74H290.85V288.74H276.36V294.74ZM288.04 292.791L312.07 357.051L317.69 354.949L293.66 290.689L288.04 292.791ZM314.88 353H300.21V359H314.88V353ZM303.05 355.035L298.19 340.725L292.509 342.655L297.369 356.965L303.05 355.035ZM295.35 338.69H271.32V344.69H295.35V338.69ZM268.49 340.693L263.45 355.003L269.109 356.997L274.149 342.687L268.49 340.693ZM266.28 353H252.06V359H266.28V353ZM254.866 357.061L279.166 292.801L273.554 290.679L249.254 354.939L254.866 357.061ZM367.761 313.34L364.793 313.78L365.173 316.34H367.761V313.34ZM366.141 308.93L363.578 310.49L363.594 310.515L363.61 310.541L366.141 308.93ZM358.671 302.99L357.594 305.79L357.658 305.814L357.722 305.836L358.671 302.99ZM345.621 303.98L347.047 306.619L347.075 306.604L347.102 306.589L345.621 303.98ZM340.221 308.93L342.706 310.611L342.717 310.594L342.728 310.578L340.221 308.93ZM337.161 315.95L334.251 315.222L334.243 315.254L334.236 315.285L337.161 315.95ZM337.161 332.06L334.239 332.74L334.248 332.78L334.259 332.82L337.161 332.06ZM340.221 338.9L337.736 340.581L337.736 340.581L340.221 338.9ZM345.621 343.85L344.14 346.459L344.167 346.474L344.194 346.489L345.621 343.85ZM363.801 341.69L361.606 339.645L361.594 339.658L361.581 339.672L363.801 341.69ZM368.301 331.25V328.25H365.653L365.324 330.878L368.301 331.25ZM381.981 331.25L384.969 331.518L385.262 328.25H381.981V331.25ZM379.191 342.14L381.913 343.4L381.913 343.4L379.191 342.14ZM373.251 350.42L371.212 348.22L371.212 348.22L373.251 350.42ZM364.611 355.64L365.636 358.459L365.636 358.459L364.611 355.64ZM340.401 354.92L339.179 357.66L339.204 357.671L339.229 357.682L340.401 354.92ZM330.501 347.81L332.731 345.803L332.731 345.803L330.501 347.81ZM324.291 337.28L321.462 338.278L321.467 338.292L324.291 337.28ZM324.291 310.82L327.12 311.818L327.124 311.806L324.291 310.82ZM330.501 300.02L332.75 302.005L332.75 302.005L330.501 300.02ZM340.401 292.82L339.194 290.073L339.186 290.077L339.179 290.08L340.401 292.82ZM363.711 291.74L362.779 294.591L362.787 294.594L362.795 294.597L363.711 291.74ZM372.171 296.24L370.29 298.577L370.321 298.602L370.353 298.626L372.171 296.24ZM378.381 303.44L380.996 301.969L380.996 301.969L378.381 303.44ZM381.441 313.34V316.34H384.799L384.422 313.003L381.441 313.34ZM370.729 312.9C370.43 310.884 369.749 309.011 368.672 307.319L363.61 310.541C364.213 311.489 364.612 312.556 364.793 313.78L370.729 312.9ZM368.704 307.37C367.684 305.695 366.405 304.234 364.879 302.998L361.103 307.662C362.097 308.466 362.918 309.405 363.578 310.49L368.704 307.37ZM364.879 302.998C363.324 301.74 361.562 300.792 359.62 300.144L357.722 305.836C359.019 306.268 360.138 306.88 361.103 307.662L364.879 302.998ZM359.748 300.19C357.83 299.452 355.814 299.09 353.721 299.09V305.09C355.108 305.09 356.392 305.328 357.594 305.79L359.748 300.19ZM353.721 299.09C350.148 299.09 346.91 299.799 344.14 301.371L347.102 306.589C348.772 305.641 350.934 305.09 353.721 305.09V299.09ZM344.194 301.341C341.54 302.776 339.368 304.766 337.714 307.282L342.728 310.578C343.834 308.894 345.262 307.584 347.047 306.619L344.194 301.341ZM337.736 307.249C336.14 309.608 334.987 312.278 334.251 315.222L340.071 316.678C340.655 314.342 341.542 312.332 342.706 310.611L337.736 307.249ZM334.236 315.285C333.584 318.152 333.261 321.106 333.261 324.14H339.261C339.261 321.534 339.538 319.028 340.086 316.615L334.236 315.285ZM333.261 324.14C333.261 327.064 333.586 329.932 334.239 332.74L340.083 331.38C339.536 329.028 339.261 326.616 339.261 324.14H333.261ZM334.259 332.82C335 335.649 336.155 338.244 337.736 340.581L342.706 337.219C341.527 335.476 340.642 333.511 340.063 331.3L334.259 332.82ZM337.736 340.581C339.384 343.018 341.534 344.98 344.14 346.459L347.102 341.241C345.268 340.2 343.817 338.862 342.706 337.219L337.736 340.581ZM344.194 346.489C346.952 347.98 350.17 348.65 353.721 348.65V342.65C350.912 342.65 348.73 342.12 347.047 341.211L344.194 346.489ZM353.721 348.65C358.693 348.65 362.934 347.103 366.021 343.708L361.581 339.672C359.868 341.557 357.389 342.65 353.721 342.65V348.65ZM365.996 343.735C368.969 340.545 370.676 336.436 371.278 331.622L365.324 330.878C364.846 334.704 363.553 337.555 361.606 339.645L365.996 343.735ZM368.301 334.25H381.981V328.25H368.301V334.25ZM378.993 330.982C378.66 334.703 377.806 337.991 376.469 340.88L381.913 343.4C383.576 339.809 384.582 335.837 384.969 331.518L378.993 330.982ZM376.469 340.88C375.122 343.788 373.367 346.222 371.212 348.22L375.29 352.62C378.055 350.058 380.26 346.972 381.913 343.4L376.469 340.88ZM371.212 348.22C369.059 350.215 366.528 351.751 363.586 352.821L365.636 358.459C369.294 357.129 372.523 355.185 375.29 352.62L371.212 348.22ZM363.586 352.821C360.653 353.887 357.376 354.44 353.721 354.44V360.44C357.986 360.44 361.968 359.793 365.636 358.459L363.586 352.821ZM353.721 354.44C349.146 354.44 345.112 353.66 341.573 352.158L339.229 357.682C343.609 359.54 348.456 360.44 353.721 360.44V354.44ZM341.623 352.18C338.084 350.601 335.134 348.473 332.731 345.803L328.271 349.817C331.268 353.147 334.918 355.759 339.179 357.66L341.623 352.18ZM332.731 345.803C330.307 343.11 328.431 339.943 327.115 336.268L321.467 338.292C323.03 342.657 325.295 346.51 328.271 349.817L332.731 345.803ZM327.12 336.282C325.802 332.547 325.131 328.508 325.131 324.14H319.131C319.131 329.132 319.9 333.853 321.462 338.278L327.12 336.282ZM325.131 324.14C325.131 319.643 325.805 315.545 327.12 311.818L321.462 309.822C319.897 314.255 319.131 319.037 319.131 324.14H325.131ZM327.124 311.806C328.446 308.006 330.327 304.752 332.75 302.005L328.251 298.035C325.275 301.408 323.016 305.354 321.457 309.834L327.124 311.806ZM332.75 302.005C335.153 299.282 338.097 297.133 341.623 295.56L339.179 290.08C334.905 291.987 331.249 294.638 328.251 298.035L332.75 302.005ZM341.608 295.567C345.138 294.015 349.159 293.21 353.721 293.21V287.21C348.442 287.21 343.583 288.145 339.194 290.073L341.608 295.567ZM353.721 293.21C356.969 293.21 359.982 293.677 362.779 294.591L364.643 288.889C361.199 287.763 357.553 287.21 353.721 287.21V293.21ZM362.795 294.597C365.644 295.511 368.133 296.841 370.29 298.577L374.052 293.903C371.289 291.679 368.138 290.009 364.627 288.883L362.795 294.597ZM370.353 298.626C372.534 300.288 374.338 302.371 375.766 304.911L380.996 301.969C379.184 298.749 376.848 296.032 373.989 293.854L370.353 298.626ZM375.766 304.911C377.165 307.397 378.079 310.303 378.46 313.677L384.422 313.003C383.963 308.937 382.837 305.243 380.996 301.969L375.766 304.911ZM381.441 310.34H367.761V316.34H381.441V310.34ZM410.35 303.62H413.35V300.62H410.35V303.62ZM391.09 303.62H388.09V306.62H391.09V303.62ZM391.09 291.74V288.74H388.09V291.74H391.09ZM443.74 291.74H446.74V288.74H443.74V291.74ZM443.74 303.62V306.62H446.74V303.62H443.74ZM424.48 303.62V300.62H421.48V303.62H424.48ZM424.48 356V359H427.48V356H424.48ZM410.35 356H407.35V359H410.35V356ZM410.35 300.62H391.09V306.62H410.35V300.62ZM394.09 303.62V291.74H388.09V303.62H394.09ZM391.09 294.74H443.74V288.74H391.09V294.74ZM440.74 291.74V303.62H446.74V291.74H440.74ZM443.74 300.62H424.48V306.62H443.74V300.62ZM421.48 303.62V356H427.48V303.62H421.48ZM424.48 353H410.35V359H424.48V353ZM413.35 356V303.62H407.35V356H413.35ZM455.649 291.74V288.74H452.649V291.74H455.649ZM469.779 291.74H472.779V288.74H469.779V291.74ZM469.779 356V359H472.779V356H469.779ZM455.649 356H452.649V359H455.649V356ZM455.649 294.74H469.779V288.74H455.649V294.74ZM466.779 291.74V356H472.779V291.74H466.779ZM469.779 353H455.649V359H469.779V353ZM458.649 356V291.74H452.649V356H458.649ZM498.932 332.06L496.01 332.74L496.02 332.78L496.03 332.82L498.932 332.06ZM501.992 338.9L499.508 340.581L499.508 340.581L501.992 338.9ZM507.392 343.85L505.912 346.459L505.939 346.474L505.966 346.489L507.392 343.85ZM523.592 343.85L525.019 346.489L525.046 346.474L525.073 346.459L523.592 343.85ZM528.992 338.9L526.508 337.219L526.508 337.219L528.992 338.9ZM531.962 332.06L529.056 331.317L529.05 331.341L529.044 331.365L531.962 332.06ZM531.962 315.95L529.037 316.615L529.044 316.646L529.052 316.678L531.962 315.95ZM528.992 308.93L526.485 310.578L526.496 310.594L526.508 310.611L528.992 308.93ZM523.592 303.98L522.112 306.589L522.139 306.604L522.166 306.619L523.592 303.98ZM507.392 303.98L508.819 306.619L508.846 306.604L508.873 306.589L507.392 303.98ZM501.992 308.93L504.477 310.611L504.489 310.594L504.5 310.578L501.992 308.93ZM498.932 315.95L496.022 315.222L496.014 315.254L496.007 315.285L498.932 315.95ZM486.062 310.82L488.891 311.818L488.896 311.806L486.062 310.82ZM492.272 300.02L494.522 302.005L494.522 302.005L492.272 300.02ZM502.172 292.82L500.966 290.073L500.958 290.077L500.95 290.08L502.172 292.82ZM528.812 292.82L527.59 295.56L527.59 295.56L528.812 292.82ZM538.712 300.02L536.463 302.005L536.463 302.005L538.712 300.02ZM544.922 310.82L542.089 311.806L542.093 311.818L544.922 310.82ZM544.922 337.28L547.747 338.292L547.751 338.278L544.922 337.28ZM538.712 347.81L536.483 345.803L536.483 345.803L538.712 347.81ZM528.812 354.92L529.999 357.675L530.017 357.668L530.035 357.66L528.812 354.92ZM502.172 354.92L500.95 357.66L500.975 357.671L501.001 357.682L502.172 354.92ZM492.272 347.81L494.502 345.803L494.502 345.803L492.272 347.81ZM486.062 337.28L483.233 338.278L483.238 338.292L486.062 337.28ZM495.032 324.14C495.032 327.064 495.358 329.932 496.01 332.74L501.854 331.38C501.307 329.028 501.032 326.616 501.032 324.14H495.032ZM496.03 332.82C496.771 335.649 497.927 338.244 499.508 340.581L504.477 337.219C503.298 335.476 502.414 333.511 501.835 331.3L496.03 332.82ZM499.508 340.581C501.156 343.018 503.305 344.98 505.912 346.459L508.873 341.241C507.04 340.2 505.589 338.862 504.477 337.219L499.508 340.581ZM505.966 346.489C508.724 347.98 511.941 348.65 515.492 348.65V342.65C512.684 342.65 510.501 342.12 508.819 341.211L505.966 346.489ZM515.492 348.65C519.044 348.65 522.261 347.98 525.019 346.489L522.166 341.211C520.484 342.12 518.301 342.65 515.492 342.65V348.65ZM525.073 346.459C527.68 344.98 529.829 343.018 531.477 340.581L526.508 337.219C525.396 338.862 523.945 340.2 522.112 341.241L525.073 346.459ZM531.477 340.581C533.07 338.226 534.201 335.609 534.881 332.755L529.044 331.365C528.523 333.551 527.674 335.494 526.508 337.219L531.477 340.581ZM534.869 332.803C535.592 329.977 535.952 327.087 535.952 324.14H529.952C529.952 326.593 529.653 328.983 529.056 331.317L534.869 332.803ZM535.952 324.14C535.952 321.084 535.594 318.109 534.873 315.222L529.052 316.678C529.65 319.071 529.952 321.556 529.952 324.14H535.952ZM534.888 315.285C534.213 312.318 533.086 309.627 531.477 307.249L526.508 310.611C527.659 312.313 528.511 314.302 529.037 316.615L534.888 315.285ZM531.5 307.282C529.846 304.766 527.674 302.776 525.019 301.341L522.166 306.619C523.951 307.584 525.379 308.894 526.485 310.578L531.5 307.282ZM525.073 301.371C522.304 299.799 519.066 299.09 515.492 299.09V305.09C518.279 305.09 520.441 305.641 522.112 306.589L525.073 301.371ZM515.492 299.09C511.919 299.09 508.681 299.799 505.912 301.371L508.873 306.589C510.544 305.641 512.706 305.09 515.492 305.09V299.09ZM505.966 301.341C503.311 302.776 501.139 304.766 499.485 307.282L504.5 310.578C505.606 308.894 507.034 307.584 508.819 306.619L505.966 301.341ZM499.508 307.249C497.912 309.608 496.758 312.278 496.022 315.222L501.843 316.678C502.427 314.342 503.313 312.332 504.477 310.611L499.508 307.249ZM496.007 315.285C495.355 318.152 495.032 321.106 495.032 324.14H501.032C501.032 321.534 501.309 319.028 501.858 316.615L496.007 315.285ZM486.902 324.14C486.902 319.643 487.576 315.545 488.891 311.818L483.233 309.822C481.669 314.255 480.902 319.037 480.902 324.14H486.902ZM488.896 311.806C490.218 308.006 492.098 304.752 494.522 302.005L490.023 298.035C487.047 301.408 484.787 305.354 483.229 309.834L488.896 311.806ZM494.522 302.005C496.924 299.282 499.869 297.133 503.395 295.56L500.95 290.08C496.676 291.987 493.021 294.638 490.023 298.035L494.522 302.005ZM503.379 295.567C506.91 294.015 510.931 293.21 515.492 293.21V287.21C510.214 287.21 505.355 288.145 500.966 290.073L503.379 295.567ZM515.492 293.21C520.121 293.21 524.133 294.017 527.59 295.56L530.035 290.08C525.691 288.143 520.824 287.21 515.492 287.21V293.21ZM527.59 295.56C531.116 297.133 534.061 299.282 536.463 302.005L540.962 298.035C537.964 294.638 534.309 291.987 530.035 290.08L527.59 295.56ZM536.463 302.005C538.887 304.752 540.767 308.006 542.089 311.806L547.756 309.834C546.198 305.354 543.938 301.408 540.962 298.035L536.463 302.005ZM542.093 311.818C543.409 315.545 544.082 319.643 544.082 324.14H550.082C550.082 319.037 549.316 314.255 547.751 309.822L542.093 311.818ZM544.082 324.14C544.082 328.508 543.411 332.547 542.093 336.282L547.751 338.278C549.313 333.853 550.082 329.132 550.082 324.14H544.082ZM542.098 336.268C540.782 339.943 538.907 343.11 536.483 345.803L540.942 349.817C543.918 346.51 546.183 342.657 547.747 338.292L542.098 336.268ZM536.483 345.803C534.08 348.473 531.129 350.601 527.59 352.18L530.035 357.66C534.295 355.759 537.945 353.147 540.942 349.817L536.483 345.803ZM527.626 352.165C524.159 353.658 520.134 354.44 515.492 354.44V360.44C520.811 360.44 525.665 359.542 529.999 357.675L527.626 352.165ZM515.492 354.44C510.917 354.44 506.884 353.66 503.344 352.158L501.001 357.682C505.381 359.54 510.227 360.44 515.492 360.44V354.44ZM503.395 352.18C499.855 350.601 496.905 348.473 494.502 345.803L490.043 349.817C493.04 353.147 496.689 355.759 500.95 357.66L503.395 352.18ZM494.502 345.803C492.078 343.11 490.203 339.943 488.887 336.268L483.238 338.292C484.802 342.657 487.067 346.51 490.043 349.817L494.502 345.803ZM488.891 336.282C487.573 332.547 486.902 328.508 486.902 324.14H480.902C480.902 329.132 481.671 333.853 483.233 338.278L488.891 336.282ZM561.241 291.74V288.74H558.241V291.74H561.241ZM575.281 291.74L577.829 290.155L576.948 288.74H575.281V291.74ZM602.101 334.85L599.554 336.435L600.434 337.85H602.101V334.85ZM602.281 334.85V337.85H605.281V334.85H602.281ZM602.281 291.74V288.74H599.281V291.74H602.281ZM615.511 291.74H618.511V288.74H615.511V291.74ZM615.511 356V359H618.511V356H615.511ZM601.381 356L598.833 357.583L599.713 359H601.381V356ZM574.651 312.98L577.199 311.397L576.319 309.98H574.651V312.98ZM574.471 312.98V309.98H571.471V312.98H574.471ZM574.471 356V359H577.471V356H574.471ZM561.241 356H558.241V359H561.241V356ZM561.241 294.74H575.281V288.74H561.241V294.74ZM572.734 293.325L599.554 336.435L604.649 333.265L577.829 290.155L572.734 293.325ZM602.101 337.85H602.281V331.85H602.101V337.85ZM605.281 334.85V291.74H599.281V334.85H605.281ZM602.281 294.74H615.511V288.74H602.281V294.74ZM612.511 291.74V356H618.511V291.74H612.511ZM615.511 353H601.381V359H615.511V353ZM603.929 354.417L577.199 311.397L572.103 314.563L598.833 357.583L603.929 354.417ZM574.651 309.98H574.471V315.98H574.651V309.98ZM571.471 312.98V356H577.471V312.98H571.471ZM574.471 353H561.241V359H574.471V353ZM564.241 356V291.74H558.241V356H564.241Z" fill="white" mask="url(#path-7-outside-1_107_486)"/>
<path d="M144.273 64.64H144.145C143.719 65.92 143.1 67.072 142.289 68.096C141.479 69.12 140.519 69.9733 139.409 70.656C138.343 71.3387 137.169 71.8507 135.889 72.192C134.609 72.576 133.308 72.768 131.985 72.768C129.511 72.768 127.356 72.32 125.521 71.424C123.687 70.528 122.151 69.312 120.913 67.776C119.719 66.24 118.823 64.4267 118.225 62.336C117.628 60.2027 117.329 57.92 117.329 55.488C117.329 53.2267 117.607 51.072 118.161 49.024C118.716 46.9333 119.569 45.0987 120.721 43.52C121.873 41.9413 123.345 40.6827 125.137 39.744C126.929 38.8053 129.063 38.336 131.537 38.336C134.481 38.336 136.977 38.9973 139.025 40.32C141.073 41.6 142.78 43.5413 144.145 46.144H144.273V39.104H146.705V83.776H144.273V64.64ZM131.985 70.656C134.076 70.656 135.889 70.2293 137.425 69.376C139.004 68.5227 140.284 67.392 141.265 65.984C142.247 64.5333 142.972 62.912 143.441 61.12C143.953 59.2853 144.209 57.408 144.209 55.488C144.209 53.6107 143.953 51.776 143.441 49.984C142.972 48.1493 142.225 46.528 141.201 45.12C140.22 43.712 138.961 42.5813 137.425 41.728C135.932 40.8747 134.14 40.448 132.049 40.448C129.916 40.448 128.081 40.8747 126.545 41.728C125.009 42.5387 123.729 43.648 122.705 45.056C121.724 46.464 120.977 48.0853 120.465 49.92C119.996 51.712 119.761 53.568 119.761 55.488C119.761 57.4933 119.975 59.4133 120.401 61.248C120.871 63.04 121.596 64.64 122.577 66.048C123.601 67.456 124.881 68.5867 126.417 69.44C127.953 70.2507 129.809 70.656 131.985 70.656ZM180.476 72H178.044V64.96H177.916C177.489 66.1973 176.87 67.3067 176.06 68.288C175.292 69.2267 174.374 70.0373 173.308 70.72C172.284 71.4027 171.153 71.9147 169.916 72.256C168.678 72.5973 167.42 72.768 166.14 72.768C164.22 72.768 162.577 72.5333 161.212 72.064C159.889 71.5947 158.801 70.976 157.948 70.208C157.094 69.44 156.412 68.5867 155.9 67.648C155.43 66.6667 155.089 65.6853 154.876 64.704C154.662 63.7227 154.534 62.784 154.492 61.888C154.449 60.9493 154.428 60.1387 154.428 59.456V39.104H156.86V59.904C156.86 60.7573 156.924 61.8027 157.052 63.04C157.18 64.2347 157.542 65.408 158.14 66.56C158.78 67.6693 159.718 68.6293 160.956 69.44C162.193 70.2507 163.942 70.656 166.204 70.656C168.038 70.656 169.681 70.3147 171.132 69.632C172.625 68.9493 173.884 68.0107 174.908 66.816C175.932 65.5787 176.7 64.128 177.212 62.464C177.766 60.7573 178.044 58.9013 178.044 56.896V39.104H180.476V72ZM188.191 32.896V26.304H190.623V32.896H188.191ZM188.191 72V39.104H190.623V72H188.191ZM223.133 49.28C223.005 47.8293 222.621 46.5493 221.981 45.44C221.384 44.3307 220.595 43.4133 219.613 42.688C218.632 41.9627 217.48 41.408 216.157 41.024C214.877 40.64 213.491 40.448 211.997 40.448C209.949 40.448 208.136 40.8747 206.557 41.728C204.979 42.5387 203.656 43.648 202.589 45.056C201.523 46.4213 200.712 48 200.157 49.792C199.603 51.5413 199.325 53.3547 199.325 55.232C199.325 57.4507 199.581 59.4987 200.093 61.376C200.605 63.2533 201.395 64.896 202.461 66.304C203.528 67.6693 204.851 68.736 206.429 69.504C208.008 70.272 209.864 70.656 211.997 70.656C213.533 70.656 214.941 70.4 216.221 69.888C217.544 69.376 218.696 68.672 219.677 67.776C220.701 66.88 221.533 65.8133 222.173 64.576C222.813 63.296 223.24 61.9093 223.453 60.416H225.885C225.629 62.3787 225.096 64.128 224.285 65.664C223.475 67.2 222.451 68.5013 221.213 69.568C219.976 70.592 218.568 71.3813 216.989 71.936C215.411 72.4907 213.747 72.768 211.997 72.768C209.309 72.768 207.005 72.2987 205.085 71.36C203.208 70.3787 201.651 69.0773 200.413 67.456C199.219 65.8347 198.323 63.9787 197.725 61.888C197.171 59.7547 196.893 57.536 196.893 55.232C196.893 52.928 197.213 50.752 197.853 48.704C198.536 46.656 199.517 44.864 200.797 43.328C202.077 41.792 203.656 40.576 205.533 39.68C207.411 38.784 209.565 38.336 211.997 38.336C213.789 38.336 215.453 38.5707 216.989 39.04C218.568 39.4667 219.955 40.128 221.149 41.024C222.387 41.92 223.389 43.072 224.157 44.48C224.925 45.8453 225.395 47.4453 225.565 49.28H223.133ZM231.681 26.304H234.113V56.576L254.401 39.104H257.921L243.521 51.392L258.945 72H255.617L241.601 53.248L234.113 59.584V72H231.681V26.304ZM280.142 61.056C280.228 62.592 280.569 63.9573 281.166 65.152C281.764 66.304 282.532 67.3067 283.47 68.16C284.452 68.9707 285.582 69.5893 286.862 70.016C288.142 70.4427 289.529 70.656 291.022 70.656C292.089 70.656 293.22 70.5707 294.414 70.4C295.652 70.1867 296.782 69.824 297.806 69.312C298.873 68.8 299.748 68.096 300.43 67.2C301.113 66.2613 301.454 65.088 301.454 63.68C301.454 61.8453 300.9 60.4587 299.79 59.52C298.681 58.5813 297.273 57.856 295.566 57.344C293.902 56.832 292.089 56.4267 290.126 56.128C288.206 55.7867 286.393 55.296 284.686 54.656C283.022 54.016 281.636 53.12 280.526 51.968C279.417 50.7733 278.862 49.0453 278.862 46.784C278.862 45.1627 279.225 43.8187 279.95 42.752C280.676 41.6427 281.593 40.768 282.702 40.128C283.854 39.488 285.134 39.04 286.542 38.784C287.95 38.4853 289.358 38.336 290.766 38.336C292.473 38.336 294.073 38.528 295.566 38.912C297.06 39.296 298.34 39.9147 299.406 40.768C300.516 41.6213 301.369 42.7093 301.966 44.032C302.606 45.3547 302.926 46.9547 302.926 48.832H300.494C300.494 47.3387 300.238 46.0587 299.726 44.992C299.257 43.9253 298.574 43.072 297.678 42.432C296.825 41.7493 295.801 41.2587 294.606 40.96C293.412 40.6187 292.132 40.448 290.766 40.448C289.657 40.448 288.526 40.5547 287.374 40.768C286.265 40.9813 285.262 41.344 284.366 41.856C283.47 42.368 282.724 43.0293 282.126 43.84C281.572 44.6507 281.294 45.632 281.294 46.784C281.294 48.1067 281.614 49.1733 282.254 49.984C282.894 50.7947 283.726 51.456 284.75 51.968C285.817 52.4373 286.99 52.8213 288.27 53.12C289.593 53.4187 290.916 53.7173 292.238 54.016C293.86 54.3147 295.374 54.6773 296.782 55.104C298.233 55.488 299.47 56.0427 300.494 56.768C301.561 57.4507 302.393 58.3467 302.99 59.456C303.588 60.5653 303.886 61.9733 303.886 63.68C303.886 65.472 303.481 66.944 302.67 68.096C301.86 69.248 300.836 70.1867 299.598 70.912C298.361 71.5947 296.974 72.064 295.438 72.32C293.945 72.6187 292.473 72.768 291.022 72.768C289.145 72.768 287.396 72.512 285.774 72C284.196 71.5307 282.809 70.8053 281.614 69.824C280.42 68.8 279.481 67.5627 278.798 66.112C278.116 64.6613 277.753 62.976 277.71 61.056H280.142ZM310.763 55.872V56.256C310.763 58.176 311.019 60.0107 311.531 61.76C312.043 63.5093 312.789 65.0453 313.771 66.368C314.795 67.6907 316.053 68.736 317.547 69.504C319.083 70.272 320.853 70.656 322.859 70.656C326.144 70.656 328.747 69.8027 330.667 68.096C332.587 66.3467 333.909 63.936 334.635 60.864H337.067C336.341 64.704 334.763 67.648 332.331 69.696C329.941 71.744 326.763 72.768 322.795 72.768C320.363 72.768 318.229 72.3413 316.395 71.488C314.603 70.592 313.088 69.3973 311.851 67.904C310.656 66.368 309.76 64.576 309.163 62.528C308.565 60.4373 308.267 58.1973 308.267 55.808C308.267 53.504 308.565 51.3067 309.163 49.216C309.803 47.0827 310.741 45.2267 311.979 43.648C313.216 42.0267 314.752 40.7467 316.587 39.808C318.464 38.8267 320.661 38.336 323.179 38.336C325.483 38.336 327.509 38.7627 329.259 39.616C331.051 40.4693 332.544 41.6427 333.739 43.136C334.933 44.5867 335.829 46.2933 336.427 48.256C337.067 50.176 337.387 52.2453 337.387 54.464C337.387 54.6773 337.365 54.9333 337.323 55.232C337.323 55.488 337.323 55.7013 337.323 55.872H310.763ZM334.891 53.76C334.805 51.968 334.507 50.2827 333.995 48.704C333.483 47.0827 332.715 45.6747 331.691 44.48C330.709 43.2427 329.493 42.2613 328.043 41.536C326.635 40.8107 325.013 40.448 323.179 40.448C321.216 40.448 319.488 40.832 317.995 41.6C316.501 42.3253 315.243 43.3067 314.219 44.544C313.195 45.7387 312.405 47.1467 311.851 48.768C311.296 50.3893 310.955 52.0533 310.827 53.76H334.891ZM355.086 41.216H347.918V64.192C347.918 65.5147 348.068 66.56 348.366 67.328C348.665 68.096 349.113 68.6933 349.71 69.12C350.35 69.504 351.097 69.7387 351.95 69.824C352.846 69.9093 353.87 69.9307 355.022 69.888V72C353.785 72.0853 352.569 72.0853 351.374 72C350.222 71.872 349.198 71.552 348.302 71.04C347.406 70.4853 346.681 69.6747 346.126 68.608C345.614 67.5413 345.401 66.0693 345.486 64.192V41.216H339.406V39.104H345.486V28.864H347.918V39.104H355.086V41.216ZM385.601 72H383.169V64.96H383.041C382.614 66.1973 381.995 67.3067 381.185 68.288C380.417 69.2267 379.499 70.0373 378.433 70.72C377.409 71.4027 376.278 71.9147 375.041 72.256C373.803 72.5973 372.545 72.768 371.265 72.768C369.345 72.768 367.702 72.5333 366.337 72.064C365.014 71.5947 363.926 70.976 363.073 70.208C362.219 69.44 361.537 68.5867 361.025 67.648C360.555 66.6667 360.214 65.6853 360.001 64.704C359.787 63.7227 359.659 62.784 359.617 61.888C359.574 60.9493 359.553 60.1387 359.553 59.456V39.104H361.985V59.904C361.985 60.7573 362.049 61.8027 362.177 63.04C362.305 64.2347 362.667 65.408 363.265 66.56C363.905 67.6693 364.843 68.6293 366.081 69.44C367.318 70.2507 369.067 70.656 371.329 70.656C373.163 70.656 374.806 70.3147 376.257 69.632C377.75 68.9493 379.009 68.0107 380.033 66.816C381.057 65.5787 381.825 64.128 382.337 62.464C382.891 60.7573 383.169 58.9013 383.169 56.896V39.104H385.601V72ZM395.748 46.656H395.876C396.132 45.8453 396.559 44.9493 397.156 43.968C397.754 42.9867 398.543 42.0907 399.524 41.28C400.506 40.4267 401.679 39.7227 403.044 39.168C404.452 38.6133 406.052 38.336 407.844 38.336C410.362 38.336 412.538 38.8053 414.372 39.744C416.25 40.6827 417.786 41.9413 418.98 43.52C420.218 45.0987 421.135 46.9333 421.732 49.024C422.33 51.1147 422.628 53.312 422.628 55.616C422.628 58.1333 422.33 60.4373 421.732 62.528C421.135 64.6187 420.218 66.432 418.98 67.968C417.786 69.4613 416.25 70.6347 414.372 71.488C412.538 72.3413 410.362 72.768 407.844 72.768C405.114 72.768 402.682 72.1707 400.548 70.976C398.415 69.7813 396.858 67.84 395.876 65.152H395.748V83.776H393.316V39.104H395.748V46.656ZM407.844 70.656C409.978 70.656 411.812 70.2507 413.348 69.44C414.927 68.6293 416.207 67.5413 417.188 66.176C418.212 64.8107 418.959 63.232 419.428 61.44C419.94 59.6053 420.196 57.664 420.196 55.616C420.196 53.7387 419.962 51.904 419.492 50.112C419.023 48.2773 418.298 46.656 417.316 45.248C416.335 43.7973 415.055 42.6453 413.476 41.792C411.94 40.896 410.063 40.448 407.844 40.448C405.668 40.448 403.812 40.8747 402.276 41.728C400.74 42.5813 399.482 43.712 398.5 45.12C397.562 46.528 396.879 48.1493 396.452 49.984C396.026 51.776 395.812 53.6533 395.812 55.616C395.812 57.5787 396.004 59.4773 396.388 61.312C396.772 63.104 397.412 64.704 398.308 66.112C399.247 67.4773 400.484 68.5867 402.02 69.44C403.599 70.2507 405.54 70.656 407.844 70.656Z" fill="white"/>
<path d="M953.641 195.568H962.089V199.216H962.217C963.199 197.595 964.287 196.443 965.481 195.76C966.719 195.035 968.233 194.672 970.025 194.672C973.652 194.672 976.319 196.101 978.025 198.96C979.732 201.776 980.585 206.384 980.585 212.784C980.585 219.184 979.732 223.771 978.025 226.544C976.319 229.317 973.652 230.704 970.025 230.704C968.361 230.704 966.932 230.405 965.737 229.808C964.585 229.168 963.54 228.165 962.601 226.8H962.473V241.072H953.641V195.568ZM962.473 212.784C962.473 216.539 962.751 219.376 963.305 221.296C963.903 223.173 965.183 224.112 967.145 224.112C969.065 224.112 970.303 223.173 970.857 221.296C971.455 219.376 971.753 216.539 971.753 212.784C971.753 209.029 971.455 206.213 970.857 204.336C970.303 202.416 969.065 201.456 967.145 201.456C965.183 201.456 963.903 202.416 963.305 204.336C962.751 206.213 962.473 209.029 962.473 212.784ZM1001 212.784C1001 214.533 1001.04 216.155 1001.13 217.648C1001.21 219.141 1001.41 220.421 1001.71 221.488C1002.05 222.555 1002.54 223.387 1003.18 223.984C1003.82 224.581 1004.67 224.88 1005.74 224.88C1007.53 224.88 1008.77 223.941 1009.45 222.064C1010.13 220.187 1010.47 217.093 1010.47 212.784C1010.47 208.475 1010.13 205.381 1009.45 203.504C1008.77 201.627 1007.53 200.688 1005.74 200.688C1004.67 200.688 1003.82 200.987 1003.18 201.584C1002.54 202.181 1002.05 203.013 1001.71 204.08C1001.41 205.147 1001.21 206.427 1001.13 207.92C1001.04 209.413 1001 211.035 1001 212.784ZM992.169 212.784C992.169 209.84 992.404 207.237 992.873 204.976C993.343 202.715 994.111 200.837 995.177 199.344C996.244 197.808 997.631 196.656 999.337 195.888C1001.09 195.077 1003.22 194.672 1005.74 194.672C1008.38 194.629 1010.58 194.992 1012.33 195.76C1014.08 196.485 1015.47 197.616 1016.49 199.152C1017.51 200.688 1018.24 202.587 1018.67 204.848C1019.09 207.109 1019.31 209.755 1019.31 212.784C1019.31 215.728 1019.07 218.331 1018.6 220.592C1018.13 222.853 1017.36 224.752 1016.3 226.288C1015.23 227.781 1013.82 228.891 1012.07 229.616C1010.37 230.341 1008.25 230.704 1005.74 230.704C1003.09 230.747 1000.89 230.427 999.145 229.744C997.396 229.019 996.009 227.909 994.985 226.416C993.961 224.88 993.236 222.981 992.809 220.72C992.383 218.416 992.169 215.771 992.169 212.784ZM1038.22 218.736V219.888C1038.22 221.381 1038.6 222.597 1039.37 223.536C1040.18 224.432 1041.33 224.88 1042.82 224.88C1044.19 224.88 1045.28 224.539 1046.09 223.856C1046.9 223.173 1047.3 222.149 1047.3 220.784C1047.3 219.675 1046.98 218.843 1046.34 218.288C1045.7 217.691 1044.96 217.221 1044.1 216.88L1037.9 214.64C1035.46 213.787 1033.63 212.592 1032.39 211.056C1031.15 209.477 1030.54 207.472 1030.54 205.04C1030.54 203.632 1030.77 202.309 1031.24 201.072C1031.71 199.792 1032.46 198.683 1033.48 197.744C1034.5 196.805 1035.8 196.059 1037.38 195.504C1039 194.949 1040.95 194.672 1043.21 194.672C1047.22 194.672 1050.18 195.525 1052.1 197.232C1054.02 198.939 1054.98 201.349 1054.98 204.464V205.872H1047.05C1047.05 204.08 1046.75 202.779 1046.15 201.968C1045.6 201.115 1044.59 200.688 1043.14 200.688C1042.03 200.688 1041.05 201.008 1040.2 201.648C1039.39 202.245 1038.98 203.163 1038.98 204.4C1038.98 205.253 1039.24 206.021 1039.75 206.704C1040.31 207.387 1041.33 207.963 1042.82 208.432L1048.14 210.224C1050.91 211.163 1052.87 212.4 1054.02 213.936C1055.18 215.429 1055.75 217.477 1055.75 220.08C1055.75 221.915 1055.43 223.515 1054.79 224.88C1054.15 226.203 1053.26 227.312 1052.1 228.208C1050.99 229.104 1049.65 229.744 1048.07 230.128C1046.54 230.512 1044.83 230.704 1042.95 230.704C1040.48 230.704 1038.41 230.469 1036.74 230C1035.12 229.531 1033.82 228.827 1032.84 227.888C1031.9 226.949 1031.24 225.819 1030.86 224.496C1030.47 223.131 1030.28 221.616 1030.28 219.952V218.736H1038.22ZM1074.33 218.736V219.888C1074.33 221.381 1074.72 222.597 1075.48 223.536C1076.3 224.432 1077.45 224.88 1078.94 224.88C1080.31 224.88 1081.39 224.539 1082.2 223.856C1083.02 223.173 1083.42 222.149 1083.42 220.784C1083.42 219.675 1083.1 218.843 1082.46 218.288C1081.82 217.691 1081.07 217.221 1080.22 216.88L1074.01 214.64C1071.58 213.787 1069.75 212.592 1068.51 211.056C1067.27 209.477 1066.65 207.472 1066.65 205.04C1066.65 203.632 1066.89 202.309 1067.36 201.072C1067.83 199.792 1068.57 198.683 1069.6 197.744C1070.62 196.805 1071.92 196.059 1073.5 195.504C1075.12 194.949 1077.06 194.672 1079.32 194.672C1083.34 194.672 1086.3 195.525 1088.22 197.232C1090.14 198.939 1091.1 201.349 1091.1 204.464V205.872H1083.16C1083.16 204.08 1082.87 202.779 1082.27 201.968C1081.71 201.115 1080.71 200.688 1079.26 200.688C1078.15 200.688 1077.17 201.008 1076.32 201.648C1075.51 202.245 1075.1 203.163 1075.1 204.4C1075.1 205.253 1075.36 206.021 1075.87 206.704C1076.42 207.387 1077.45 207.963 1078.94 208.432L1084.25 210.224C1087.03 211.163 1088.99 212.4 1090.14 213.936C1091.29 215.429 1091.87 217.477 1091.87 220.08C1091.87 221.915 1091.55 223.515 1090.91 224.88C1090.27 226.203 1089.37 227.312 1088.22 228.208C1087.11 229.104 1085.77 229.744 1084.19 230.128C1082.65 230.512 1080.95 230.704 1079.07 230.704C1076.59 230.704 1074.52 230.469 1072.86 230C1071.24 229.531 1069.94 228.827 1068.96 227.888C1068.02 226.949 1067.36 225.819 1066.97 224.496C1066.59 223.131 1066.4 221.616 1066.4 219.952V218.736H1074.33ZM1104.31 183.792H1113.14V191.344H1104.31V183.792ZM1104.31 195.568H1113.14V230H1104.31V195.568ZM1127.04 184.304H1135.87V198.768H1136C1136.94 197.403 1137.99 196.379 1139.14 195.696C1140.33 195.013 1141.76 194.672 1143.43 194.672C1147.05 194.672 1149.72 196.101 1151.43 198.96C1153.13 201.776 1153.99 206.384 1153.99 212.784C1153.99 219.184 1153.13 223.771 1151.43 226.544C1149.72 229.317 1147.05 230.704 1143.43 230.704C1141.63 230.704 1140.12 230.384 1138.88 229.744C1137.69 229.104 1136.6 227.973 1135.62 226.352H1135.49V230H1127.04V184.304ZM1135.87 212.784C1135.87 216.539 1136.15 219.376 1136.71 221.296C1137.3 223.173 1138.58 224.112 1140.55 224.112C1142.47 224.112 1143.7 223.173 1144.26 221.296C1144.85 219.376 1145.15 216.539 1145.15 212.784C1145.15 209.029 1144.85 206.213 1144.26 204.336C1143.7 202.416 1142.47 201.456 1140.55 201.456C1138.58 201.456 1137.3 202.416 1136.71 204.336C1136.15 206.213 1135.87 209.029 1135.87 212.784ZM1167.04 183.792H1175.87V191.344H1167.04V183.792ZM1167.04 195.568H1175.87V230L1167.04 230V195.568ZM1190.1 184.304H1198.93V230H1190.1V184.304ZM1213.15 183.792H1221.98V191.344H1213.15V183.792ZM1213.15 195.568H1221.98V230H1213.15V195.568ZM1237.81 185.712H1246.64V195.568H1251.76V201.584H1246.64V220.208C1246.64 221.573 1246.83 222.555 1247.21 223.152C1247.64 223.707 1248.49 223.984 1249.77 223.984C1250.12 223.984 1250.46 223.984 1250.8 223.984C1251.14 223.941 1251.46 223.899 1251.76 223.856V230C1250.78 230 1249.82 230.021 1248.88 230.064C1247.98 230.149 1247.02 230.192 1246 230.192C1244.29 230.192 1242.88 230.085 1241.77 229.872C1240.71 229.616 1239.88 229.147 1239.28 228.464C1238.72 227.739 1238.34 226.8 1238.13 225.648C1237.91 224.496 1237.81 223.045 1237.81 221.296V201.584H1233.33V195.568H1237.81V185.712ZM1279.08 208.88C1279.04 207.557 1278.95 206.405 1278.82 205.424C1278.7 204.4 1278.46 203.547 1278.12 202.864C1277.82 202.139 1277.37 201.605 1276.78 201.264C1276.22 200.88 1275.5 200.688 1274.6 200.688C1273.7 200.688 1272.96 200.901 1272.36 201.328C1271.81 201.712 1271.36 202.245 1271.02 202.928C1270.67 203.568 1270.42 204.293 1270.25 205.104C1270.12 205.915 1270.06 206.725 1270.06 207.536V208.88H1279.08ZM1270.06 214.128V216.88C1270.06 217.904 1270.12 218.907 1270.25 219.888C1270.42 220.827 1270.67 221.68 1271.02 222.448C1271.36 223.173 1271.81 223.771 1272.36 224.24C1272.91 224.667 1273.6 224.88 1274.41 224.88C1275.9 224.88 1276.99 224.347 1277.67 223.28C1278.35 222.213 1278.82 220.592 1279.08 218.416H1287.02C1286.85 222.427 1285.78 225.477 1283.82 227.568C1281.85 229.659 1278.76 230.704 1274.54 230.704C1271.34 230.704 1268.84 230.171 1267.05 229.104C1265.26 228.037 1263.93 226.629 1263.08 224.88C1262.23 223.131 1261.69 221.168 1261.48 218.992C1261.31 216.816 1261.22 214.64 1261.22 212.464C1261.22 210.16 1261.37 207.941 1261.67 205.808C1262.01 203.675 1262.65 201.776 1263.59 200.112C1264.57 198.448 1265.96 197.125 1267.75 196.144C1269.54 195.163 1271.93 194.672 1274.92 194.672C1277.48 194.672 1279.57 195.099 1281.19 195.952C1282.86 196.763 1284.16 197.936 1285.1 199.472C1286.03 200.965 1286.67 202.8 1287.02 204.976C1287.36 207.109 1287.53 209.499 1287.53 212.144V214.128H1270.06ZM1306.27 218.736V219.888C1306.27 221.381 1306.66 222.597 1307.42 223.536C1308.24 224.432 1309.39 224.88 1310.88 224.88C1312.25 224.88 1313.33 224.539 1314.14 223.856C1314.96 223.173 1315.36 222.149 1315.36 220.784C1315.36 219.675 1315.04 218.843 1314.4 218.288C1313.76 217.691 1313.01 217.221 1312.16 216.88L1305.95 214.64C1303.52 213.787 1301.69 212.592 1300.45 211.056C1299.21 209.477 1298.59 207.472 1298.59 205.04C1298.59 203.632 1298.83 202.309 1299.3 201.072C1299.77 199.792 1300.51 198.683 1301.54 197.744C1302.56 196.805 1303.86 196.059 1305.44 195.504C1307.06 194.949 1309 194.672 1311.26 194.672C1315.28 194.672 1318.24 195.525 1320.16 197.232C1322.08 198.939 1323.04 201.349 1323.04 204.464V205.872H1315.1C1315.1 204.08 1314.81 202.779 1314.21 201.968C1313.65 201.115 1312.65 200.688 1311.2 200.688C1310.09 200.688 1309.11 201.008 1308.26 201.648C1307.45 202.245 1307.04 203.163 1307.04 204.4C1307.04 205.253 1307.3 206.021 1307.81 206.704C1308.36 207.387 1309.39 207.963 1310.88 208.432L1316.19 210.224C1318.97 211.163 1320.93 212.4 1322.08 213.936C1323.23 215.429 1323.81 217.477 1323.81 220.08C1323.81 221.915 1323.49 223.515 1322.85 224.88C1322.21 226.203 1321.31 227.312 1320.16 228.208C1319.05 229.104 1317.71 229.744 1316.13 230.128C1314.59 230.512 1312.89 230.704 1311.01 230.704C1308.53 230.704 1306.46 230.469 1304.8 230C1303.18 229.531 1301.88 228.827 1300.9 227.888C1299.96 226.949 1299.3 225.819 1298.91 224.496C1298.53 223.131 1298.34 221.616 1298.34 219.952V218.736H1306.27Z" fill="white"/>
<path d="M307.382 408.912H314.038V414.992H307.382V431.376C307.382 432.912 307.638 433.936 308.15 434.448C308.662 434.96 309.686 435.216 311.222 435.216C311.734 435.216 312.225 435.195 312.694 435.152C313.164 435.109 313.612 435.045 314.038 434.96V442C313.27 442.128 312.417 442.213 311.478 442.256C310.54 442.299 309.622 442.32 308.726 442.32C307.318 442.32 305.974 442.213 304.694 442C303.457 441.829 302.348 441.467 301.366 440.912C300.428 440.357 299.681 439.568 299.126 438.544C298.572 437.52 298.294 436.176 298.294 434.512V414.992H292.79V408.912H298.294V398.992H307.382V408.912ZM340.634 421.904C340.208 419.6 339.44 417.851 338.33 416.656C337.264 415.461 335.621 414.864 333.402 414.864C331.952 414.864 330.736 415.12 329.754 415.632C328.816 416.101 328.048 416.699 327.45 417.424C326.896 418.149 326.49 418.917 326.234 419.728C326.021 420.539 325.893 421.264 325.85 421.904H340.634ZM325.85 427.664C325.978 430.608 326.725 432.741 328.09 434.064C329.456 435.387 331.418 436.048 333.978 436.048C335.813 436.048 337.392 435.6 338.714 434.704C340.037 433.765 340.848 432.784 341.146 431.76H349.146C347.866 435.728 345.904 438.565 343.258 440.272C340.613 441.979 337.413 442.832 333.658 442.832C331.056 442.832 328.709 442.427 326.618 441.616C324.528 440.763 322.757 439.568 321.306 438.032C319.856 436.496 318.725 434.661 317.914 432.528C317.146 430.395 316.762 428.048 316.762 425.488C316.762 423.013 317.168 420.709 317.978 418.576C318.789 416.443 319.941 414.608 321.434 413.072C322.928 411.493 324.698 410.256 326.746 409.36C328.837 408.464 331.141 408.016 333.658 408.016C336.474 408.016 338.928 408.571 341.018 409.68C343.109 410.747 344.816 412.197 346.138 414.032C347.504 415.867 348.485 417.957 349.082 420.304C349.68 422.651 349.893 425.104 349.722 427.664H325.85ZM355.368 408.912H363.944V413.392H364.072C365.267 411.685 366.696 410.363 368.36 409.424C370.067 408.485 372.008 408.016 374.184 408.016C376.275 408.016 378.174 408.421 379.88 409.232C381.63 410.043 382.952 411.472 383.848 413.52C384.83 412.069 386.152 410.789 387.816 409.68C389.523 408.571 391.528 408.016 393.832 408.016C395.582 408.016 397.203 408.229 398.696 408.656C400.19 409.083 401.47 409.765 402.536 410.704C403.603 411.643 404.435 412.88 405.032 414.416C405.63 415.909 405.928 417.723 405.928 419.856V442H396.84V423.248C396.84 422.139 396.798 421.093 396.712 420.112C396.627 419.131 396.392 418.277 396.008 417.552C395.624 416.827 395.048 416.251 394.28 415.824C393.555 415.397 392.552 415.184 391.272 415.184C389.992 415.184 388.947 415.44 388.136 415.952C387.368 416.421 386.75 417.061 386.28 417.872C385.854 418.64 385.555 419.536 385.384 420.56C385.256 421.541 385.192 422.544 385.192 423.568V442H376.104V423.44C376.104 422.459 376.083 421.499 376.04 420.56C375.998 419.579 375.806 418.683 375.464 417.872C375.166 417.061 374.632 416.421 373.864 415.952C373.139 415.44 372.051 415.184 370.6 415.184C370.174 415.184 369.598 415.291 368.872 415.504C368.19 415.675 367.507 416.037 366.824 416.592C366.184 417.104 365.63 417.872 365.16 418.896C364.691 419.877 364.456 421.179 364.456 422.8V442H355.368V408.912ZM429.816 436.048C431.31 436.048 432.547 435.749 433.528 435.152C434.552 434.555 435.363 433.787 435.96 432.848C436.6 431.867 437.048 430.736 437.304 429.456C437.56 428.176 437.688 426.875 437.688 425.552C437.688 424.229 437.539 422.928 437.24 421.648C436.984 420.368 436.536 419.237 435.896 418.256C435.256 417.232 434.424 416.421 433.4 415.824C432.419 415.184 431.203 414.864 429.752 414.864C428.259 414.864 427 415.184 425.976 415.824C424.995 416.421 424.184 417.211 423.544 418.192C422.947 419.173 422.52 420.304 422.264 421.584C422.008 422.864 421.88 424.187 421.88 425.552C421.88 426.875 422.008 428.176 422.264 429.456C422.563 430.736 423.011 431.867 423.608 432.848C424.248 433.787 425.08 434.555 426.104 435.152C427.128 435.749 428.366 436.048 429.816 436.048ZM413.112 408.912H421.752V413.136H421.88C422.99 411.344 424.398 410.043 426.104 409.232C427.811 408.421 429.688 408.016 431.736 408.016C434.339 408.016 436.579 408.507 438.456 409.488C440.334 410.469 441.891 411.771 443.128 413.392C444.366 415.013 445.283 416.912 445.88 419.088C446.478 421.221 446.776 423.461 446.776 425.808C446.776 428.027 446.478 430.16 445.88 432.208C445.283 434.256 444.366 436.069 443.128 437.648C441.934 439.227 440.419 440.485 438.584 441.424C436.792 442.363 434.68 442.832 432.248 442.832C430.2 442.832 428.302 442.427 426.552 441.616C424.846 440.763 423.438 439.525 422.328 437.904H422.2V453.584H413.112V408.912ZM460.301 425.488C460.301 426.811 460.429 428.112 460.685 429.392C460.941 430.629 461.368 431.76 461.965 432.784C462.605 433.765 463.437 434.555 464.461 435.152C465.485 435.749 466.765 436.048 468.301 436.048C469.837 436.048 471.117 435.749 472.141 435.152C473.208 434.555 474.04 433.765 474.637 432.784C475.277 431.76 475.725 430.629 475.981 429.392C476.237 428.112 476.365 426.811 476.365 425.488C476.365 424.165 476.237 422.864 475.981 421.584C475.725 420.304 475.277 419.173 474.637 418.192C474.04 417.211 473.208 416.421 472.141 415.824C471.117 415.184 469.837 414.864 468.301 414.864C466.765 414.864 465.485 415.184 464.461 415.824C463.437 416.421 462.605 417.211 461.965 418.192C461.368 419.173 460.941 420.304 460.685 421.584C460.429 422.864 460.301 424.165 460.301 425.488ZM451.213 425.488C451.213 422.843 451.619 420.453 452.429 418.32C453.24 416.144 454.392 414.309 455.885 412.816C457.379 411.28 459.171 410.107 461.261 409.296C463.352 408.443 465.699 408.016 468.301 408.016C470.904 408.016 473.251 408.443 475.341 409.296C477.475 410.107 479.288 411.28 480.781 412.816C482.275 414.309 483.427 416.144 484.237 418.32C485.048 420.453 485.453 422.843 485.453 425.488C485.453 428.133 485.048 430.523 484.237 432.656C483.427 434.789 482.275 436.624 480.781 438.16C479.288 439.653 477.475 440.805 475.341 441.616C473.251 442.427 470.904 442.832 468.301 442.832C465.699 442.832 463.352 442.427 461.261 441.616C459.171 440.805 457.379 439.653 455.885 438.16C454.392 436.624 453.24 434.789 452.429 432.656C451.619 430.523 451.213 428.133 451.213 425.488ZM491.362 408.912H500.002V415.056H500.13C500.557 414.032 501.133 413.093 501.858 412.24C502.584 411.344 503.416 410.597 504.354 410C505.293 409.36 506.296 408.869 507.362 408.528C508.429 408.187 509.538 408.016 510.69 408.016C511.288 408.016 511.949 408.123 512.674 408.336V416.784C512.248 416.699 511.736 416.635 511.138 416.592C510.541 416.507 509.965 416.464 509.41 416.464C507.746 416.464 506.338 416.741 505.186 417.296C504.034 417.851 503.096 418.619 502.37 419.6C501.688 420.539 501.197 421.648 500.898 422.928C500.6 424.208 500.45 425.595 500.45 427.088V442H491.362V408.912ZM515.853 419.088C515.981 416.955 516.515 415.184 517.453 413.776C518.392 412.368 519.587 411.237 521.037 410.384C522.488 409.531 524.109 408.933 525.901 408.592C527.736 408.208 529.571 408.016 531.405 408.016C533.069 408.016 534.755 408.144 536.461 408.4C538.168 408.613 539.725 409.061 541.133 409.744C542.541 410.427 543.693 411.387 544.589 412.624C545.485 413.819 545.933 415.419 545.933 417.424V434.64C545.933 436.133 546.019 437.563 546.189 438.928C546.36 440.293 546.659 441.317 547.085 442H537.869C537.699 441.488 537.549 440.976 537.421 440.464C537.336 439.909 537.272 439.355 537.229 438.8C535.779 440.293 534.072 441.339 532.109 441.936C530.147 442.533 528.141 442.832 526.093 442.832C524.515 442.832 523.043 442.64 521.677 442.256C520.312 441.872 519.117 441.275 518.093 440.464C517.069 439.653 516.259 438.629 515.661 437.392C515.107 436.155 514.829 434.683 514.829 432.976C514.829 431.099 515.149 429.563 515.789 428.368C516.472 427.131 517.325 426.149 518.349 425.424C519.416 424.699 520.611 424.165 521.933 423.824C523.299 423.44 524.664 423.141 526.029 422.928C527.395 422.715 528.739 422.544 530.061 422.416C531.384 422.288 532.557 422.096 533.581 421.84C534.605 421.584 535.416 421.221 536.013 420.752C536.611 420.24 536.888 419.515 536.845 418.576C536.845 417.595 536.675 416.827 536.333 416.272C536.035 415.675 535.608 415.227 535.053 414.928C534.541 414.587 533.923 414.373 533.197 414.288C532.515 414.16 531.768 414.096 530.957 414.096C529.165 414.096 527.757 414.48 526.733 415.248C525.709 416.016 525.112 417.296 524.941 419.088H515.853ZM536.845 425.808C536.461 426.149 535.971 426.427 535.373 426.64C534.819 426.811 534.2 426.96 533.517 427.088C532.877 427.216 532.195 427.323 531.469 427.408C530.744 427.493 530.019 427.6 529.293 427.728C528.611 427.856 527.928 428.027 527.245 428.24C526.605 428.453 526.029 428.752 525.517 429.136C525.048 429.477 524.664 429.925 524.365 430.48C524.067 431.035 523.917 431.739 523.917 432.592C523.917 433.403 524.067 434.085 524.365 434.64C524.664 435.195 525.069 435.643 525.581 435.984C526.093 436.283 526.691 436.496 527.373 436.624C528.056 436.752 528.76 436.816 529.485 436.816C531.277 436.816 532.664 436.517 533.645 435.92C534.627 435.323 535.352 434.619 535.821 433.808C536.291 432.955 536.568 432.101 536.653 431.248C536.781 430.395 536.845 429.712 536.845 429.2V425.808ZM552.987 408.912H561.627V415.056H561.755C562.182 414.032 562.758 413.093 563.483 412.24C564.209 411.344 565.041 410.597 565.979 410C566.918 409.36 567.921 408.869 568.987 408.528C570.054 408.187 571.163 408.016 572.315 408.016C572.913 408.016 573.574 408.123 574.299 408.336V416.784C573.873 416.699 573.361 416.635 572.763 416.592C572.166 416.507 571.59 416.464 571.035 416.464C569.371 416.464 567.963 416.741 566.811 417.296C565.659 417.851 564.721 418.619 563.995 419.6C563.313 420.539 562.822 421.648 562.523 422.928C562.225 424.208 562.075 425.595 562.075 427.088V442H552.987V408.912ZM594.182 446.096C593.201 448.784 591.836 450.704 590.086 451.856C588.337 453.008 585.905 453.584 582.79 453.584C581.852 453.584 580.913 453.541 579.974 453.456C579.078 453.413 578.161 453.349 577.222 453.264V445.776C578.076 445.861 578.95 445.947 579.846 446.032C580.742 446.117 581.638 446.139 582.534 446.096C583.729 445.968 584.604 445.499 585.158 444.688C585.756 443.877 586.054 442.981 586.054 442C586.054 441.275 585.926 440.592 585.67 439.952L574.086 408.912H583.75L591.238 431.568H591.366L598.598 408.912H608.006L594.182 446.096Z" fill="white"/>
<path d="M392.76 539.84C392.76 542.88 393.24 545.4 394.2 547.4C395.24 549.4 396.56 551 398.16 552.2C399.84 553.4 401.72 554.24 403.8 554.72C405.96 555.2 408.12 555.44 410.28 555.44C411.96 555.44 413.72 555.24 415.56 554.84C417.4 554.36 419.08 553.68 420.6 552.8C422.12 551.84 423.36 550.64 424.32 549.2C425.36 547.76 425.88 546.04 425.88 544.04C425.88 541.96 425.36 540.24 424.32 538.88C423.36 537.52 422.08 536.36 420.48 535.4C418.96 534.36 417.2 533.48 415.2 532.76C413.2 531.96 411.2 531.16 409.2 530.36C407.2 529.56 405.2 528.72 403.2 527.84C401.2 526.88 399.4 525.76 397.8 524.48C396.28 523.12 395.04 521.56 394.08 519.8C393.12 517.96 392.64 515.76 392.64 513.2C392.64 510.16 393.36 507.6 394.8 505.52C396.24 503.36 398.08 501.6 400.32 500.24C402.56 498.88 405.04 497.88 407.76 497.24C410.48 496.6 413.08 496.28 415.56 496.28C418.84 496.28 421.84 496.64 424.56 497.36C427.28 498.08 429.6 499.24 431.52 500.84C433.52 502.44 435.04 504.52 436.08 507.08C437.2 509.56 437.72 512.6 437.64 516.2H430.08C430.24 513.8 429.96 511.76 429.24 510.08C428.52 508.4 427.48 507 426.12 505.88C424.84 504.76 423.28 503.96 421.44 503.48C419.6 502.92 417.64 502.64 415.56 502.64C413.88 502.64 412.12 502.8 410.28 503.12C408.52 503.44 406.88 504 405.36 504.8C403.92 505.52 402.68 506.56 401.64 507.92C400.68 509.28 400.2 511.04 400.2 513.2C400.2 514.64 400.56 515.92 401.28 517.04C402 518.16 402.96 519.16 404.16 520.04C405.36 520.92 406.72 521.72 408.24 522.44C409.84 523.16 411.52 523.88 413.28 524.6C415.44 525.48 417.68 526.4 420 527.36C422.4 528.24 424.56 529.36 426.48 530.72C428.48 532.08 430.12 533.72 431.4 535.64C432.76 537.56 433.44 539.96 433.44 542.84C433.44 546.36 432.68 549.32 431.16 551.72C429.72 554.12 427.8 556.08 425.4 557.6C423 559.04 420.32 560.08 417.36 560.72C414.4 561.36 411.44 561.68 408.48 561.68C405.44 561.68 402.48 561.28 399.6 560.48C396.8 559.68 394.32 558.4 392.16 556.64C390 554.88 388.28 552.64 387 549.92C385.72 547.12 385.16 543.76 385.32 539.84H392.76ZM479.814 498.08H486.654L484.254 509.24H484.494C487.134 505.16 490.174 502 493.614 499.76C497.134 497.44 501.614 496.28 507.054 496.28C511.054 496.28 514.494 496.92 517.374 498.2C520.334 499.4 522.774 501.12 524.694 503.36C526.694 505.52 528.174 508.16 529.134 511.28C530.094 514.4 530.574 517.84 530.574 521.6C530.574 526.4 529.774 531.2 528.174 536C526.654 540.72 524.414 545 521.454 548.84C518.494 552.6 514.934 555.68 510.774 558.08C506.614 560.48 501.934 561.68 496.734 561.68C494.334 561.68 492.014 561.4 489.774 560.84C487.534 560.36 485.534 559.56 483.774 558.44C482.014 557.32 480.534 555.88 479.334 554.12C478.134 552.28 477.334 550.12 476.934 547.64H476.694L469.134 582.8H461.694L479.814 498.08ZM506.334 502.64C502.014 502.64 498.174 503.76 494.814 506C491.454 508.16 488.614 510.96 486.294 514.4C484.054 517.76 482.334 521.52 481.134 525.68C479.934 529.76 479.334 533.72 479.334 537.56C479.334 543.08 480.814 547.44 483.774 550.64C486.814 553.84 491.094 555.44 496.614 555.44C500.934 555.44 504.734 554.36 508.014 552.2C511.374 550.04 514.134 547.28 516.294 543.92C518.534 540.56 520.214 536.88 521.334 532.88C522.454 528.8 523.014 524.88 523.014 521.12C523.014 515.84 521.654 511.44 518.934 507.92C516.214 504.4 512.014 502.64 506.334 502.64ZM567.44 516.56C567.92 513.04 568.92 510 570.44 507.44C572.04 504.88 574 502.8 576.32 501.2C578.64 499.52 581.28 498.28 584.24 497.48C587.2 496.68 590.32 496.28 593.6 496.28C595.68 496.28 597.96 496.48 600.44 496.88C603 497.28 605.36 498 607.52 499.04C609.68 500.08 611.48 501.48 612.92 503.24C614.36 505 615.08 507.28 615.08 510.08C615.08 511.6 614.92 513.28 614.6 515.12C614.36 516.96 614.04 518.84 613.64 520.76C613.24 522.6 612.8 524.44 612.32 526.28C611.92 528.04 611.56 529.6 611.24 530.96C610.52 534.4 609.88 537.28 609.32 539.6C608.84 541.84 608.44 543.72 608.12 545.24C607.8 546.76 607.56 548 607.4 548.96C607.24 549.92 607.16 550.88 607.16 551.84C607.16 552.96 607.6 553.68 608.48 554C609.36 554.24 610.24 554.36 611.12 554.36C611.68 554.36 612.16 554.36 612.56 554.36C613.04 554.28 613.56 554.2 614.12 554.12L613.04 560C611.04 560.4 608.96 560.6 606.8 560.6C602.56 560.6 600.36 558.4 600.2 554C600.2 553.44 600.2 552.88 600.2 552.32C600.28 551.76 600.36 551.2 600.44 550.64L600.2 550.4C598.04 554 595 556.8 591.08 558.8C587.16 560.72 583.04 561.68 578.72 561.68C575.84 561.68 573.2 561.36 570.8 560.72C568.4 560.08 566.32 559.08 564.56 557.72C562.88 556.36 561.52 554.6 560.48 552.44C559.52 550.28 559.04 547.68 559.04 544.64C559.04 541.36 559.6 538.6 560.72 536.36C561.92 534.12 563.52 532.28 565.52 530.84C567.52 529.4 569.8 528.28 572.36 527.48C574.92 526.6 577.6 525.92 580.4 525.44C584.48 524.8 588.16 524.52 591.44 524.6C594.8 524.6 597.68 524.28 600.08 523.64C602.56 523 604.4 521.84 605.6 520.16C606.88 518.48 607.52 515.6 607.52 511.52C607.52 509.68 607.08 508.2 606.2 507.08C605.4 505.88 604.36 504.96 603.08 504.32C601.88 503.68 600.48 503.24 598.88 503C597.36 502.76 595.88 502.64 594.44 502.64C592.04 502.64 589.76 502.88 587.6 503.36C585.44 503.84 583.48 504.64 581.72 505.76C579.96 506.8 578.48 508.24 577.28 510.08C576.16 511.84 575.4 514 575 516.56H567.44ZM604.88 526.88L604.64 526.64C604 527.36 603.08 527.96 601.88 528.44C600.76 528.84 599.56 529.16 598.28 529.4C597 529.64 595.68 529.8 594.32 529.88C593.04 529.96 591.92 530.04 590.96 530.12C588.64 530.28 586.04 530.52 583.16 530.84C580.36 531.08 577.72 531.68 575.24 532.64C572.76 533.52 570.68 534.88 569 536.72C567.32 538.48 566.48 541 566.48 544.28C566.48 546.28 566.84 548 567.56 549.44C568.36 550.8 569.4 551.96 570.68 552.92C571.96 553.8 573.44 554.44 575.12 554.84C576.8 555.24 578.52 555.44 580.28 555.44C586.36 555.44 591.28 553.8 595.04 550.52C598.8 547.24 601.28 542.84 602.48 537.32L604.88 526.88ZM697.107 517.4C697.267 515.08 696.987 513 696.267 511.16C695.547 509.32 694.507 507.8 693.147 506.6C691.867 505.32 690.267 504.36 688.347 503.72C686.507 503 684.467 502.64 682.227 502.64C677.667 502.64 673.707 503.64 670.347 505.64C667.067 507.64 664.307 510.24 662.067 513.44C659.827 516.64 658.147 520.24 657.027 524.24C655.987 528.24 655.467 532.24 655.467 536.24C655.467 538.96 655.787 541.52 656.427 543.92C657.147 546.24 658.227 548.28 659.667 550.04C661.107 551.72 662.907 553.04 665.067 554C667.227 554.96 669.787 555.44 672.747 555.44C677.787 555.44 682.027 554 685.467 551.12C688.987 548.24 691.547 544.52 693.147 539.96H700.707C698.387 547.16 694.867 552.6 690.147 556.28C685.427 559.88 679.307 561.68 671.787 561.68C664.107 561.68 658.187 559.36 654.027 554.72C649.947 550.08 647.907 543.92 647.907 536.24C647.907 531.44 648.667 526.64 650.187 521.84C651.707 517.04 653.907 512.76 656.787 509C659.667 505.24 663.187 502.2 667.347 499.88C671.507 497.48 676.227 496.28 681.507 496.28C684.867 496.28 687.987 496.72 690.867 497.6C693.747 498.4 696.227 499.68 698.307 501.44C700.387 503.2 701.987 505.4 703.107 508.04C704.227 510.68 704.747 513.8 704.667 517.4H697.107ZM783.453 524.72C783.453 523.84 783.453 523.04 783.453 522.32C783.533 521.52 783.573 520.72 783.573 519.92C783.573 514.64 782.053 510.44 779.013 507.32C776.053 504.2 771.933 502.64 766.653 502.64C763.533 502.64 760.653 503.28 758.013 504.56C755.453 505.76 753.133 507.4 751.053 509.48C749.053 511.48 747.373 513.8 746.013 516.44C744.653 519.08 743.653 521.84 743.013 524.72L783.453 524.72ZM742.053 531.08C741.813 532.52 741.693 534.12 741.693 535.88C741.693 538.68 742.053 541.28 742.773 543.68C743.493 546.08 744.573 548.16 746.013 549.92C747.533 551.6 749.413 552.96 751.653 554C753.973 554.96 756.653 555.44 759.693 555.44C764.733 555.44 769.013 554.04 772.533 551.24C776.053 548.36 778.533 544.64 779.973 540.08L787.533 540.08C785.453 547.12 782.093 552.48 777.453 556.16C772.813 559.84 766.773 561.68 759.333 561.68C751.093 561.68 744.813 559.36 740.493 554.72C736.253 550.08 734.133 543.68 734.133 535.52C734.133 530.56 734.853 525.76 736.293 521.12C737.813 516.4 740.013 512.2 742.893 508.52C745.773 504.84 749.293 501.88 753.453 499.64C757.613 497.4 762.333 496.28 767.613 496.28C771.373 496.28 774.693 496.88 777.573 498.08C780.453 499.2 782.893 500.84 784.893 503C786.973 505.08 788.533 507.6 789.573 510.56C790.613 513.52 791.133 516.8 791.133 520.4C791.133 522.16 791.093 523.92 791.013 525.68C790.933 527.44 790.773 529.24 790.533 531.08L742.053 531.08Z" fill="white"/>
</svg>
